<?xml version="1.0" encoding="UTF-8" standalone="no"?>
<!DOCTYPE svg PUBLIC "-//W3C//DTD SVG 20010904//EN"
              "http://www.w3.org/TR/2001/REC-SVG-20010904/DTD/svg10.dtd">

<svg xmlns="http://www.w3.org/2000/svg"
     width="52.9101mm" height="52.9101mm"
     viewBox="0 0 150 150">
  <path id="Selection"
        fill="none" stroke="black" stroke-width="1"
        d="M 54.00,31.28
           C 56.28,31.15 57.65,30.94 60.00,31.28
             85.09,32.67 89.08,70.40 62.00,75.38
             40.50,79.34 27.49,52.55 42.47,37.33
             45.89,33.85 49.39,32.56 54.00,31.28 Z
           M 93.01,36.57
           C 97.09,35.92 100.61,36.10 103.70,39.28
             109.18,44.90 106.60,54.52 99.00,56.57
             85.93,60.09 80.40,41.73 93.01,36.57 Z
           M 106.00,67.00
           C 105.19,65.21 103.47,62.13 103.87,60.18
             104.49,57.14 113.58,50.84 116.70,51.70
             119.14,52.38 123.36,56.56 117.93,60.96
             117.93,60.96 113.00,64.29 113.00,64.29
             110.13,66.03 109.24,66.34 106.00,67.00 Z
           M 90.00,99.00
           C 86.90,95.41 81.66,82.73 81.25,78.00
             80.84,73.31 84.75,64.48 89.04,62.32
             94.45,59.59 100.99,62.98 101.85,69.00
             102.60,74.30 99.27,80.23 97.14,85.00
             97.14,85.00 90.00,99.00 90.00,99.00 Z
           M 91.00,119.00
           C 88.74,119.00 84.48,119.32 82.65,118.01
             80.91,116.77 79.56,112.99 78.73,111.00
             78.73,111.00 71.46,92.00 71.46,92.00
             70.39,89.54 68.70,85.95 69.33,83.21
             70.07,80.02 74.54,78.23 77.03,80.59
             78.89,82.35 80.94,89.27 82.00,92.00
             82.00,92.00 86.28,103.00 86.28,103.00
             88.61,108.55 90.66,112.90 91.00,119.00 Z
           M 69.00,99.00
           C 59.70,98.57 56.07,94.76 52.63,97.61
             48.02,101.45 43.14,118.41 35.00,118.63
             29.03,118.79 27.33,112.75 29.22,108.00
             29.22,108.00 39.20,91.00 39.20,91.00
             40.92,88.14 43.40,83.47 46.10,81.60
             50.13,78.81 60.13,81.60 63.50,84.70
             64.83,85.92 65.47,87.41 66.18,89.02
             67.87,92.83 68.57,94.86 69.00,99.00 Z" />
</svg>
