<?xml version="1.0" encoding="UTF-8" standalone="no"?>
<!DOCTYPE svg PUBLIC "-//W3C//DTD SVG 20010904//EN"
              "http://www.w3.org/TR/2001/REC-SVG-20010904/DTD/svg10.dtd">

<svg xmlns="http://www.w3.org/2000/svg"
     width="52.9101mm" height="52.9101mm"
     viewBox="0 0 150 150">
  <path id="Selection"
        fill="none" stroke="black" stroke-width="1"
        d="M 81.02,21.48
           C 96.13,19.25 119.47,25.59 124.21,42.00
             130.44,63.56 103.66,75.94 86.00,74.91
             83.32,74.75 79.48,74.19 77.39,72.42
             75.25,70.61 73.79,66.63 72.86,64.00
             69.67,54.91 69.05,45.35 71.37,36.00
             73.00,29.49 73.97,23.63 81.02,21.48 Z
           M 30.00,24.00
           C 30.00,24.00 62.00,24.00 62.00,24.00
             63.52,24.03 69.88,24.22 67.83,27.46
             66.80,29.08 63.67,28.96 62.00,29.00
             62.00,29.00 30.00,29.00 30.00,29.00
             30.00,29.00 30.00,24.00 30.00,24.00 Z
           M 83.13,28.60
           C 75.33,33.61 76.10,49.91 78.04,58.00
             78.60,60.36 79.92,64.74 81.70,66.40
             83.83,68.40 88.22,68.06 91.00,67.99
             95.75,67.87 98.58,66.93 103.00,65.30
             105.85,64.26 108.51,63.05 110.96,61.21
             120.92,53.76 120.65,42.12 110.96,34.55
             104.06,29.17 91.62,26.69 83.13,28.60 Z
           M 29.00,33.00
           C 29.00,33.00 67.00,33.00 67.00,33.00
             66.82,35.16 66.96,37.28 64.69,38.40
             63.33,39.07 60.54,38.99 59.00,39.00
             59.00,39.00 40.00,39.00 40.00,39.00
             37.91,39.00 32.92,39.20 31.18,38.40
             28.62,37.22 28.96,35.36 29.00,33.00 Z
           M 27.00,47.00
           C 28.77,42.23 30.09,42.10 35.00,42.00
             35.00,42.00 66.00,42.00 66.00,42.00
             66.00,42.00 66.00,48.00 66.00,48.00
             57.47,48.00 33.77,48.92 27.00,47.00 Z
           M 28.00,54.00
           C 34.77,52.08 58.47,53.00 67.00,53.00
             67.00,53.00 67.00,58.00 67.00,58.00
             67.00,58.00 36.00,58.00 36.00,58.00
             31.40,57.97 29.82,58.53 28.00,54.00 Z
           M 30.00,62.00
           C 30.00,62.00 61.00,62.00 61.00,62.00
             63.20,62.04 68.66,62.16 67.95,65.76
             67.48,68.16 63.81,67.97 62.00,68.00
             62.00,68.00 30.00,68.00 30.00,68.00
             30.00,68.00 30.00,62.00 30.00,62.00 Z
           M 28.00,103.00
           C 29.65,98.28 34.75,82.23 39.10,80.62
             43.00,79.18 44.96,81.91 46.38,85.02
             48.69,90.07 52.16,98.65 53.00,104.00
             44.46,103.71 44.17,100.52 40.04,100.77
             34.98,101.07 36.30,105.26 28.00,103.00 Z
           M 68.00,80.00
           C 75.38,80.26 75.14,81.37 75.00,92.00
             74.89,99.78 72.32,103.88 64.00,103.98
             52.93,104.12 52.85,95.64 53.00,87.00
             53.04,85.05 52.90,82.37 54.60,81.02
             56.00,79.91 58.31,80.06 60.00,80.00
             60.00,83.60 58.55,96.80 64.00,96.80
             69.45,96.80 68.00,83.60 68.00,80.00 Z
           M 83.00,87.00
           C 80.26,86.91 75.20,86.63 76.84,82.28
             77.77,79.83 80.87,80.04 83.00,80.00
             83.00,80.00 96.00,80.00 96.00,80.00
             95.82,85.43 95.60,86.33 90.00,87.00
             90.00,102.52 91.18,103.71 83.00,104.00
             83.00,104.00 83.00,87.00 83.00,87.00 Z
           M 103.00,80.74
           C 107.94,79.54 113.90,79.28 117.72,83.23
             123.21,88.88 121.68,100.28 114.00,103.26
             112.20,103.96 109.91,103.99 108.00,103.99
             105.74,103.99 103.20,103.98 101.18,102.83
             95.34,99.48 92.27,86.48 103.00,80.74 Z
           M 108.03,86.77
           C 99.98,89.27 103.80,98.10 108.97,97.42
             113.95,96.77 116.61,88.06 108.03,86.77 Z
           M 41.00,90.00
           C 41.00,90.00 39.00,94.00 39.00,94.00
             39.00,94.00 40.00,95.00 40.00,95.00
             40.00,95.00 43.00,94.00 43.00,94.00
             43.00,94.00 41.00,90.00 41.00,90.00 Z" />
</svg>
