<?xml version="1.0" encoding="UTF-8" standalone="no"?>
<!DOCTYPE svg PUBLIC "-//W3C//DTD SVG 20010904//EN"
              "http://www.w3.org/TR/2001/REC-SVG-20010904/DTD/svg10.dtd">

<svg xmlns="http://www.w3.org/2000/svg"
     width="52.9101mm" height="52.9101mm"
     viewBox="0 0 150 150">
  <path id="Selection"
        fill="none" stroke="black" stroke-width="1"
        d="M 40.00,44.00
           C 40.00,44.00 57.00,44.00 57.00,44.00
             57.00,44.00 58.60,49.40 58.60,49.40
             58.60,49.40 67.00,51.00 67.00,51.00
             67.00,51.00 83.00,51.00 83.00,51.00
             83.00,51.00 90.69,49.98 90.69,49.98
             90.69,49.98 93.00,44.00 93.00,44.00
             93.00,44.00 110.00,44.00 110.00,44.00
             110.00,44.00 110.00,51.00 110.00,51.00
             110.00,51.00 114.00,51.00 114.00,51.00
             121.43,51.14 121.95,53.04 122.00,60.00
             122.00,60.00 122.00,91.00 122.00,91.00
             122.00,93.90 122.45,101.47 120.98,103.69
             119.14,106.45 114.91,105.99 112.00,106.00
             112.00,106.00 49.00,106.00 49.00,106.00
             44.73,106.00 31.38,107.23 29.02,103.69
             27.79,101.84 28.00,98.19 28.00,96.00
             28.00,96.00 28.00,61.00 28.00,61.00
             28.01,58.46 27.68,54.52 29.60,52.60
             31.71,50.49 37.14,51.00 40.00,51.00
             40.00,51.00 40.00,44.00 40.00,44.00 Z
           M 34.00,57.00
           C 34.00,57.00 34.00,87.00 34.00,87.00
             34.00,89.54 33.56,96.55 35.02,98.40
             36.59,100.38 40.70,100.00 43.00,100.00
             43.00,100.00 98.00,100.00 98.00,100.00
             101.39,100.00 113.00,100.90 114.98,98.40
             116.23,96.81 116.00,92.99 116.00,91.00
             116.00,91.00 116.00,66.00 116.00,66.00
             116.00,64.01 116.23,60.19 114.98,58.60
             113.41,56.62 109.30,57.00 107.00,57.00
             107.00,57.00 34.00,57.00 34.00,57.00 Z
           M 99.00,64.00
           C 99.00,64.00 104.00,64.00 104.00,64.00
             104.00,64.00 104.00,69.00 104.00,69.00
             104.00,69.00 109.00,69.00 109.00,69.00
             109.00,69.00 109.00,74.00 109.00,74.00
             109.00,74.00 104.00,74.00 104.00,74.00
             104.00,74.00 104.00,79.00 104.00,79.00
             104.00,79.00 99.00,79.00 99.00,79.00
             99.00,79.00 99.00,74.00 99.00,74.00
             99.00,74.00 94.00,74.00 94.00,74.00
             94.00,74.00 94.00,69.00 94.00,69.00
             94.00,69.00 99.00,69.00 99.00,69.00
             99.00,69.00 99.00,64.00 99.00,64.00 Z
           M 41.00,69.00
           C 41.00,69.00 57.00,69.00 57.00,69.00
             57.00,69.00 57.00,75.00 57.00,75.00
             57.00,75.00 41.00,75.00 41.00,75.00
             41.00,75.00 41.00,69.00 41.00,69.00 Z" />
</svg>
