<?xml version="1.0" encoding="UTF-8" standalone="no"?>
<!DOCTYPE svg PUBLIC "-//W3C//DTD SVG 20010904//EN"
              "http://www.w3.org/TR/2001/REC-SVG-20010904/DTD/svg10.dtd">

<svg xmlns="http://www.w3.org/2000/svg"
     width="52.9101mm" height="52.9101mm"
     viewBox="0 0 150 150">
  <path id="Selection"
        fill="none" stroke="black" stroke-width="1"
        d="M 72.00,39.44
           C 109.53,36.43 125.41,85.48 94.00,105.29
             88.89,108.52 82.99,110.11 77.00,110.70
             56.07,112.77 37.74,93.67 39.32,73.00
             40.82,53.43 53.13,42.18 72.00,39.44 Z
           M 41.08,43.34
           C 44.43,43.50 46.92,45.15 46.00,49.00
             45.33,51.84 41.61,54.99 39.09,62.00
             35.04,73.25 35.69,82.39 41.26,92.99
             41.26,92.99 45.19,99.28 45.19,99.28
             46.68,102.03 46.49,105.66 42.96,106.66
             40.65,107.32 39.07,105.51 37.76,103.94
             34.37,99.87 31.94,95.01 30.35,90.00
             26.38,77.49 27.32,64.73 33.27,53.00
             35.32,48.97 37.19,45.73 41.08,43.34 Z
           M 107.98,43.34
           C 112.73,44.79 115.14,49.69 117.21,54.00
             123.12,66.29 123.51,79.21 118.98,92.00
             117.68,95.68 112.50,106.73 108.05,106.66
             105.10,106.62 103.37,103.11 104.55,100.00
             105.23,98.19 109.30,93.07 111.45,87.00
             114.52,78.35 114.30,69.46 110.66,61.00
             110.66,61.00 104.47,50.00 104.47,50.00
             102.84,46.15 104.52,44.52 107.98,43.34 Z
           M 72.00,46.30
           C 61.77,48.21 54.02,52.21 49.19,62.00
             39.32,82.00 55.25,106.60 78.00,103.71
             82.45,103.15 86.10,101.90 90.00,99.66
             115.55,84.96 103.74,43.24 72.00,46.30 Z
           M 73.22,53.76
           C 75.22,53.39 76.58,52.92 78.26,54.60
             80.84,57.19 80.07,70.03 80.00,74.00
             79.94,76.84 80.02,80.16 76.86,81.38
             73.27,82.78 70.70,80.44 70.15,76.98
             69.69,74.18 69.73,58.38 70.74,56.23
             71.55,54.48 71.90,54.70 73.22,53.76 Z
           M 74.04,87.96
           C 81.19,88.24 80.81,95.73 75.96,96.63
             71.32,97.49 67.34,91.44 74.04,87.96 Z" />
</svg>
