<?xml version="1.0" encoding="UTF-8" standalone="no"?>
<!DOCTYPE svg PUBLIC "-//W3C//DTD SVG 20010904//EN"
              "http://www.w3.org/TR/2001/REC-SVG-20010904/DTD/svg10.dtd">

<svg xmlns="http://www.w3.org/2000/svg"
     width="52.9101mm" height="52.9101mm"
     viewBox="0 0 150 150">
  <path id="Selection"
        fill="none" stroke="black" stroke-width="1"
        d="M 54.00,44.00
           C 54.00,44.00 84.00,44.00 84.00,44.00
             85.50,44.03 90.65,43.91 89.55,46.82
             88.54,49.48 84.47,48.12 79.00,51.00
             82.33,51.81 88.51,51.81 90.69,53.60
             93.04,55.53 92.86,58.34 95.31,59.98
             97.09,61.17 99.77,60.92 101.57,62.17
             104.73,64.38 104.00,70.53 104.00,74.00
             104.00,74.00 107.00,74.00 107.00,74.00
             108.25,63.37 118.09,67.06 119.86,69.43
             122.39,72.81 122.01,80.84 122.00,85.00
             121.99,88.89 122.09,95.34 119.28,98.35
             116.09,101.75 107.81,102.92 107.00,93.00
             107.00,93.00 104.00,93.00 104.00,93.00
             104.00,96.10 104.51,102.10 102.26,104.40
             100.65,106.05 98.13,105.96 96.00,106.00
             96.00,106.00 69.00,106.00 69.00,106.00
             57.71,105.84 58.84,100.44 52.00,97.02
             47.63,94.84 42.87,97.49 39.85,93.69
             37.55,90.78 38.00,84.60 38.00,81.00
             33.03,86.04 36.28,87.97 34.00,96.00
             34.00,96.00 32.00,96.00 32.00,96.00
             30.26,89.88 31.56,88.17 30.86,83.00
             30.39,79.56 29.31,78.73 28.54,76.00
             27.88,73.66 27.96,70.45 28.00,68.00
             28.11,62.12 28.91,60.00 35.00,59.00
             35.00,64.58 33.85,68.79 38.00,73.00
             38.00,73.00 39.89,60.31 39.89,60.31
             39.89,60.31 48.79,57.41 48.79,57.41
             48.79,57.41 54.21,53.17 54.21,53.17
             54.21,53.17 65.00,52.00 65.00,52.00
             65.00,52.00 65.00,49.00 65.00,49.00
             59.70,49.00 55.09,50.30 54.00,44.00 Z
           M 99.00,66.00
           C 95.75,65.99 92.08,66.42 89.73,63.69
             88.02,61.68 88.22,58.82 85.69,57.60
             83.58,56.58 68.41,56.99 65.00,57.00
             62.76,57.00 59.45,56.76 57.54,58.01
             55.56,59.30 55.56,61.50 51.94,62.57
             49.22,63.38 45.11,62.23 43.60,65.31
             42.64,67.26 42.99,79.06 43.03,82.00
             43.03,82.00 43.03,85.98 43.03,85.98
             43.75,93.70 48.96,89.00 55.00,92.74
             58.51,94.91 61.13,98.98 65.00,100.40
             67.31,101.25 73.29,101.00 76.00,101.00
             76.00,101.00 99.00,101.00 99.00,101.00
             99.00,97.88 98.52,92.78 100.60,90.31
             103.36,87.04 110.59,86.39 112.00,95.00
             112.00,95.00 116.00,95.00 116.00,95.00
             117.62,85.93 117.18,80.98 116.00,72.00
             116.00,72.00 112.00,72.00 112.00,72.00
             111.23,81.25 103.16,79.89 100.59,77.27
             98.40,75.04 99.00,69.05 99.00,66.00 Z" />
</svg>
