<?xml version="1.0" encoding="UTF-8" standalone="no"?>
<!DOCTYPE svg PUBLIC "-//W3C//DTD SVG 20010904//EN"
              "http://www.w3.org/TR/2001/REC-SVG-20010904/DTD/svg10.dtd">

<svg xmlns="http://www.w3.org/2000/svg"
     width="1341.45mm" height="541.446mm"
     viewBox="0 0 3803 1535">
  <path id="Selection #5"
        fill="#171717" stroke="black" stroke-width="1"
        d="M 1066.00,1351.00
           C 1067.55,1358.40 1076.94,1368.82 1081.79,1375.00
             1083.67,1377.40 1088.56,1382.88 1088.10,1385.96
             1087.72,1388.50 1083.87,1391.38 1082.00,1393.05
             1082.00,1393.05 1066.00,1407.00 1066.00,1407.00
             1066.00,1407.00 1001.00,1463.42 1001.00,1463.42
             1001.00,1463.42 943.00,1512.25 943.00,1512.25
             938.78,1515.76 925.11,1527.59 921.00,1529.11
             918.24,1530.13 914.91,1530.00 912.00,1530.00
             912.00,1530.00 884.00,1530.00 884.00,1530.00
             884.00,1530.00 868.00,1529.00 868.00,1529.00
             868.00,1529.00 615.00,1529.00 615.00,1529.00
             615.00,1529.00 603.00,1528.09 603.00,1528.09
             603.00,1528.09 560.00,1524.15 560.00,1524.15
             522.56,1519.68 482.87,1510.87 447.00,1499.26
             427.68,1493.00 408.56,1485.06 390.00,1476.86
             390.00,1476.86 334.00,1450.69 334.00,1450.69
             334.00,1450.69 316.00,1440.01 316.00,1440.01
             260.17,1407.21 210.02,1366.35 165.91,1319.00
             136.40,1287.32 112.56,1256.71 89.58,1220.00
             89.58,1220.00 79.43,1204.00 79.43,1204.00
             79.43,1204.00 68.75,1183.00 68.75,1183.00
             56.46,1158.42 44.53,1133.84 35.05,1108.00
             22.41,1073.53 13.96,1037.29 8.73,1001.00
             8.73,1001.00 4.00,951.00 4.00,951.00
             4.00,951.00 4.00,882.00 4.00,882.00
             4.00,882.00 6.91,855.00 6.91,855.00
             10.83,799.21 26.69,738.26 46.42,686.00
             46.42,686.00 62.58,648.00 62.58,648.00
             62.58,648.00 80.26,607.00 80.26,607.00
             80.26,607.00 94.69,580.00 94.69,580.00
             110.96,549.91 128.56,521.17 147.98,493.00
             147.98,493.00 187.45,439.00 187.45,439.00
             209.46,411.44 243.65,373.24 269.00,349.04
             269.00,349.04 279.33,340.13 279.33,340.13
             279.33,340.13 288.95,330.32 288.95,330.32
             288.95,330.32 312.00,310.73 312.00,310.73
             365.89,264.64 421.56,227.09 485.00,195.37
             560.17,157.79 621.04,143.00 702.00,125.79
             702.00,125.79 767.00,112.00 767.00,112.00
             916.05,82.19 1065.88,58.01 1217.00,41.84
             1217.00,41.84 1265.00,36.17 1265.00,36.17
             1265.00,36.17 1404.00,23.91 1404.00,23.91
             1404.00,23.91 1484.00,17.91 1484.00,17.91
             1484.00,17.91 1491.00,17.00 1491.00,17.00
             1491.00,17.00 1501.00,17.00 1501.00,17.00
             1501.00,17.00 1512.00,16.00 1512.00,16.00
             1512.00,16.00 1531.00,15.00 1531.00,15.00
             1531.00,15.00 1549.00,14.00 1549.00,14.00
             1549.00,14.00 1559.00,13.04 1559.00,13.04
             1559.00,13.04 1567.00,13.04 1567.00,13.04
             1567.00,13.04 1586.00,12.00 1586.00,12.00
             1586.00,12.00 1600.00,11.00 1600.00,11.00
             1600.00,11.00 1633.00,10.00 1633.00,10.00
             1633.00,10.00 1647.00,9.00 1647.00,9.00
             1647.00,9.00 1679.00,8.00 1679.00,8.00
             1679.00,8.00 1696.00,7.00 1696.00,7.00
             1696.00,7.00 1717.00,7.00 1717.00,7.00
             1717.00,7.00 1733.00,6.00 1733.00,6.00
             1733.00,6.00 1755.00,6.00 1755.00,6.00
             1755.00,6.00 1771.00,5.00 1771.00,5.00
             1771.00,5.00 1800.00,5.00 1800.00,5.00
             1800.00,5.00 1817.00,4.00 1817.00,4.00
             1817.00,4.00 2016.00,4.00 2016.00,4.00
             2016.00,4.00 2031.00,5.00 2031.00,5.00
             2031.00,5.00 2098.00,6.00 2098.00,6.00
             2098.00,6.00 2113.00,7.00 2113.00,7.00
             2113.00,7.00 2127.00,7.00 2127.00,7.00
             2127.00,7.00 2143.00,8.00 2143.00,8.00
             2143.00,8.00 2199.00,10.00 2199.00,10.00
             2199.00,10.00 2215.00,11.00 2215.00,11.00
             2215.00,11.00 2235.00,12.00 2235.00,12.00
             2235.00,12.00 2255.00,13.00 2255.00,13.00
             2255.00,13.00 2266.00,14.00 2266.00,14.00
             2266.00,14.00 2276.00,14.00 2276.00,14.00
             2276.00,14.00 2290.00,15.00 2290.00,15.00
             2290.00,15.00 2307.00,16.00 2307.00,16.00
             2307.00,16.00 2317.00,17.00 2317.00,17.00
             2317.00,17.00 2326.00,17.00 2326.00,17.00
             2326.00,17.00 2371.00,20.91 2371.00,20.91
             2371.00,20.91 2533.00,35.17 2533.00,35.17
             2533.00,35.17 2563.00,38.84 2563.00,38.84
             2646.30,47.75 2729.21,59.72 2812.00,72.58
             2875.83,82.48 2939.81,93.36 3003.00,106.79
             3109.97,129.52 3209.85,142.78 3310.00,191.26
             3310.00,191.26 3335.00,204.69 3335.00,204.69
             3359.68,218.07 3383.56,232.54 3407.00,248.00
             3407.00,248.00 3463.00,286.23 3463.00,286.23
             3463.00,286.23 3513.00,328.83 3513.00,328.83
             3578.76,388.30 3636.69,456.57 3683.42,532.00
             3683.42,532.00 3719.74,595.00 3719.74,595.00
             3719.74,595.00 3731.31,620.00 3731.31,620.00
             3750.98,662.97 3769.09,707.04 3780.53,753.00
             3788.56,785.28 3794.81,819.85 3797.09,853.00
             3797.09,853.00 3799.00,877.00 3799.00,877.00
             3799.00,877.00 3799.00,947.00 3799.00,947.00
             3799.00,947.00 3798.09,957.00 3798.09,957.00
             3796.65,977.56 3794.42,997.71 3790.61,1018.00
             3780.23,1073.37 3767.80,1109.15 3743.78,1160.00
             3743.78,1160.00 3719.57,1208.00 3719.57,1208.00
             3696.30,1248.57 3667.16,1286.38 3635.83,1321.00
             3635.83,1321.00 3623.04,1334.00 3623.04,1334.00
             3623.04,1334.00 3612.00,1345.96 3612.00,1345.96
             3612.00,1345.96 3595.00,1361.17 3595.00,1361.17
             3557.35,1395.05 3516.31,1425.42 3472.00,1450.14
             3452.47,1461.03 3431.55,1470.03 3411.00,1478.85
             3378.81,1492.67 3346.17,1505.00 3312.00,1513.12
             3284.61,1519.62 3256.02,1525.03 3228.00,1527.83
             3228.00,1527.83 3210.00,1529.17 3210.00,1529.17
             3210.00,1529.17 3186.00,1531.00 3186.00,1531.00
             3186.00,1531.00 3091.00,1531.00 3091.00,1531.00
             3091.00,1531.00 2892.00,1531.00 2892.00,1531.00
             2880.09,1530.98 2877.74,1525.81 2869.00,1518.05
             2869.00,1518.05 2841.00,1493.42 2841.00,1493.42
             2841.00,1493.42 2759.00,1419.91 2759.00,1419.91
             2759.00,1419.91 2711.00,1376.00 2711.00,1376.00
             2713.61,1365.46 2725.22,1359.23 2728.00,1349.00
             2724.68,1349.00 2710.44,1348.30 2708.00,1347.40
             2704.10,1345.97 2698.35,1339.15 2695.00,1336.10
             2695.00,1336.10 2687.00,1329.79 2687.00,1329.79
             2687.00,1329.79 2668.00,1312.00 2668.00,1312.00
             2668.00,1312.00 2641.01,1286.00 2641.01,1286.00
             2641.01,1286.00 2623.58,1267.28 2623.58,1267.28
             2623.58,1267.28 2574.00,1217.00 2574.00,1217.00
             2574.00,1217.00 2548.00,1191.00 2548.00,1191.00
             2544.40,1187.40 2538.56,1180.85 2534.00,1179.01
             2530.17,1177.46 2521.46,1178.05 2517.00,1178.00
             2517.00,1178.00 2502.00,1177.00 2502.00,1177.00
             2502.00,1177.00 2451.00,1177.00 2451.00,1177.00
             2451.00,1177.00 2436.00,1176.00 2436.00,1176.00
             2436.00,1176.00 2380.00,1176.00 2380.00,1176.00
             2380.00,1176.00 2363.00,1175.00 2363.00,1175.00
             2363.00,1175.00 2291.00,1175.00 2291.00,1175.00
             2291.00,1175.00 2276.00,1174.00 2276.00,1174.00
             2276.00,1174.00 2177.00,1174.00 2177.00,1174.00
             2177.00,1174.00 2162.00,1173.00 2162.00,1173.00
             2162.00,1173.00 1936.00,1173.00 1936.00,1173.00
             1936.00,1173.00 1921.00,1172.00 1921.00,1172.00
             1921.00,1172.00 1869.00,1172.00 1869.00,1172.00
             1869.00,1172.00 1852.00,1173.00 1852.00,1173.00
             1852.00,1173.00 1687.00,1173.00 1687.00,1173.00
             1678.12,1173.01 1675.54,1174.83 1672.00,1174.74
             1667.98,1174.63 1666.52,1173.01 1657.00,1173.00
             1657.00,1173.00 1625.00,1173.00 1625.00,1173.00
             1625.00,1173.00 1610.00,1174.00 1610.00,1174.00
             1610.00,1174.00 1510.00,1174.00 1510.00,1174.00
             1510.00,1174.00 1495.00,1175.00 1495.00,1175.00
             1495.00,1175.00 1426.00,1175.00 1426.00,1175.00
             1426.00,1175.00 1411.00,1176.00 1411.00,1176.00
             1411.00,1176.00 1353.00,1176.00 1353.00,1176.00
             1353.00,1176.00 1338.00,1177.00 1338.00,1177.00
             1338.00,1177.00 1287.00,1177.00 1287.00,1177.00
             1287.00,1177.00 1268.00,1178.00 1268.00,1178.00
             1258.00,1178.14 1255.66,1184.10 1249.27,1190.83
             1249.27,1190.83 1224.00,1216.00 1224.00,1216.00
             1224.00,1216.00 1208.00,1233.00 1208.00,1233.00
             1208.00,1233.00 1130.00,1311.00 1130.00,1311.00
             1130.00,1311.00 1104.00,1337.00 1104.00,1337.00
             1100.32,1340.68 1092.73,1348.52 1088.00,1350.27
             1084.73,1351.47 1070.40,1351.00 1066.00,1351.00 Z
           M 1295.00,1029.00
           C 1295.00,1029.00 1273.00,1028.00 1273.00,1028.00
             1252.61,1027.76 1216.93,1020.97 1197.00,1015.42
             1133.05,997.64 1083.58,969.33 1035.00,924.09
             1035.00,924.09 1026.04,915.99 1026.04,915.99
             991.86,881.11 964.57,839.13 946.01,794.00
             931.11,757.78 922.59,718.99 919.91,680.00
             919.91,680.00 919.00,668.00 919.00,668.00
             919.00,668.00 919.00,643.00 919.00,643.00
             919.00,643.00 919.91,633.00 919.91,633.00
             922.18,600.02 928.48,567.29 939.34,536.00
             953.22,496.01 975.60,455.74 1002.42,423.00
             1040.50,376.52 1085.04,343.42 1139.00,317.75
             1174.54,300.84 1231.62,285.46 1271.00,285.00
             1271.00,285.00 1284.00,284.00 1284.00,284.00
             1284.00,284.00 1308.00,284.00 1308.00,284.00
             1308.00,284.00 1318.00,284.91 1318.00,284.91
             1340.48,286.45 1362.09,289.65 1384.00,295.13
             1464.50,315.25 1535.28,360.11 1587.20,425.00
             1597.18,437.47 1608.57,453.22 1616.58,467.00
             1639.96,507.28 1656.68,549.95 1664.41,596.00
             1664.41,596.00 1669.00,635.00 1669.00,635.00
             1669.07,641.52 1668.88,643.29 1669.72,650.00
             1669.94,651.75 1669.94,655.04 1671.02,656.40
             1673.15,659.08 1679.00,657.24 1682.00,657.10
             1682.00,657.10 1691.00,657.95 1691.00,657.95
             1691.00,657.95 1710.00,657.95 1710.00,657.95
             1712.11,657.96 1714.57,658.07 1716.15,656.40
             1717.79,654.66 1717.99,651.27 1717.90,649.00
             1717.90,649.00 1717.04,642.00 1717.04,642.00
             1717.04,642.00 1717.04,630.00 1717.04,630.00
             1717.04,630.00 1716.09,620.00 1716.09,620.00
             1714.18,593.87 1710.22,572.37 1703.87,547.00
             1669.76,410.54 1565.72,301.52 1434.00,254.69
             1386.17,237.68 1335.51,230.92 1285.00,231.00
             1285.00,231.00 1265.00,232.00 1265.00,232.00
             1265.00,232.00 1255.00,232.91 1255.00,232.91
             1231.03,234.56 1207.33,238.80 1184.00,244.63
             1061.89,275.15 956.83,362.62 904.31,477.00
             876.04,538.55 865.22,600.67 866.00,668.00
             866.00,668.00 866.91,678.00 866.91,678.00
             866.91,678.00 868.84,701.00 868.84,701.00
             879.86,804.08 927.08,894.72 1003.00,965.09
             1023.34,983.94 1050.78,1004.55 1075.00,1018.14
             1130.77,1049.45 1176.73,1064.84 1240.00,1073.58
             1240.00,1073.58 1272.00,1075.91 1272.00,1075.91
             1276.56,1076.06 1290.12,1078.43 1293.43,1075.91
             1295.41,1074.26 1295.00,1070.30 1295.00,1068.00
             1295.00,1068.00 1295.00,1029.00 1295.00,1029.00 Z
           M 2502.00,231.29
           C 2495.45,232.22 2489.57,231.99 2483.00,232.00
             2483.00,232.00 2447.00,235.28 2447.00,235.28
             2409.18,240.26 2372.15,250.67 2337.00,265.42
             2217.33,315.64 2124.17,421.81 2092.63,548.00
             2086.62,572.02 2082.72,593.26 2080.91,618.00
             2080.91,618.00 2079.96,628.00 2079.96,628.00
             2079.96,628.00 2079.96,638.00 2079.96,638.00
             2079.96,638.00 2079.00,648.00 2079.00,648.00
             2078.92,655.71 2078.45,657.86 2086.00,658.00
             2086.00,658.00 2118.00,658.00 2118.00,658.00
             2120.30,658.00 2124.26,658.41 2125.83,656.43
             2127.51,654.28 2126.88,647.03 2127.17,644.00
             2127.17,644.00 2129.85,613.00 2129.85,613.00
             2135.90,562.32 2152.06,516.27 2177.28,472.00
             2225.73,386.94 2309.73,323.38 2404.00,297.85
             2425.91,291.92 2448.35,287.57 2471.00,285.91
             2471.00,285.91 2481.00,284.96 2481.00,284.96
             2481.00,284.96 2494.00,284.96 2494.00,284.96
             2497.87,284.65 2499.71,283.85 2504.00,284.09
             2504.00,284.09 2514.00,285.00 2514.00,285.00
             2514.00,285.00 2548.00,287.28 2548.00,287.28
             2611.68,295.22 2674.67,320.40 2726.00,358.89
             2772.32,393.63 2810.15,437.47 2836.74,489.00
             2859.57,533.25 2876.42,593.10 2877.00,643.00
             2877.00,643.00 2878.00,656.00 2878.00,656.00
             2878.00,656.00 2877.00,678.00 2877.00,678.00
             2876.83,692.58 2871.68,722.25 2868.42,737.00
             2855.19,796.93 2823.96,857.51 2782.83,903.00
             2729.01,962.54 2656.90,1005.17 2578.00,1021.20
             2557.00,1025.46 2532.38,1028.97 2511.00,1029.00
             2508.62,1029.00 2504.44,1028.76 2502.49,1030.17
             2499.49,1032.34 2500.99,1040.40 2501.00,1044.00
             2501.00,1044.00 2501.00,1070.00 2501.00,1070.00
             2501.14,1077.49 2503.26,1076.99 2510.00,1077.00
             2510.00,1077.00 2515.00,1077.00 2515.00,1077.00
             2515.00,1077.00 2528.00,1076.00 2528.00,1076.00
             2528.00,1076.00 2532.00,1076.00 2532.00,1076.00
             2532.00,1076.00 2542.00,1075.09 2542.00,1075.09
             2557.51,1074.00 2572.74,1071.85 2588.00,1068.80
             2625.56,1061.29 2659.66,1050.42 2694.00,1033.25
             2734.52,1012.99 2770.20,988.33 2803.00,956.96
             2803.00,956.96 2818.09,941.00 2818.09,941.00
             2864.25,891.20 2898.82,829.79 2916.12,764.00
             2922.66,739.11 2927.29,713.67 2929.09,688.00
             2929.09,688.00 2930.04,677.00 2930.04,677.00
             2930.04,677.00 2930.04,664.00 2930.04,664.00
             2930.04,664.00 2930.96,653.00 2930.96,653.00
             2930.96,653.00 2930.04,645.00 2930.04,645.00
             2930.04,645.00 2930.04,631.00 2930.04,631.00
             2930.04,631.00 2929.09,621.00 2929.09,621.00
             2927.14,593.12 2922.08,565.88 2914.42,539.00
             2874.32,398.29 2766.85,291.24 2627.00,249.28
             2598.43,240.71 2568.75,234.99 2539.00,232.91
             2539.00,232.91 2528.00,232.00 2528.00,232.00
             2528.00,232.00 2516.00,232.00 2516.00,232.00
             2516.00,232.00 2502.00,231.29 2502.00,231.29 Z
           M 1614.00,643.00
           C 1607.01,644.70 1579.55,644.99 1571.00,645.00
             1567.96,645.00 1561.94,644.83 1559.60,646.93
             1557.52,648.80 1557.35,655.20 1559.60,656.98
             1561.19,658.23 1565.01,658.00 1567.00,658.00
             1567.00,658.00 1624.00,658.00 1624.00,658.00
             1626.35,657.98 1629.61,658.19 1631.40,656.40
             1632.36,655.44 1632.66,654.29 1632.82,652.98
             1632.82,652.98 1632.00,635.00 1632.00,635.00
             1632.00,635.00 1631.08,625.00 1631.08,625.00
             1629.01,599.03 1623.23,573.69 1615.00,549.00
             1605.41,520.24 1591.67,491.88 1574.28,467.00
             1551.14,433.89 1524.91,406.94 1492.00,383.43
             1401.87,319.01 1282.07,303.63 1178.00,340.69
             1080.92,375.27 1005.05,453.39 972.51,551.00
             963.75,577.30 958.84,604.42 956.91,632.00
             956.91,632.00 956.00,644.00 956.00,644.00
             956.00,644.00 956.00,667.00 956.00,667.00
             956.00,667.00 956.91,679.00 956.91,679.00
             956.91,679.00 961.58,718.00 961.58,718.00
             978.67,812.62 1035.55,892.13 1117.00,942.58
             1155.03,966.13 1205.54,983.52 1250.00,988.85
             1250.00,988.85 1277.00,990.91 1277.00,990.91
             1280.96,991.05 1290.54,993.10 1293.43,990.91
             1295.41,989.26 1295.00,985.30 1295.00,983.00
             1295.00,983.00 1295.00,918.00 1295.00,918.00
             1295.00,918.00 1282.00,918.00 1282.00,918.00
             1282.00,918.00 1282.00,952.00 1282.00,952.00
             1282.00,952.00 1281.00,973.00 1281.00,973.00
             1281.00,973.00 1263.00,971.13 1263.00,971.13
             1263.00,971.13 1256.00,971.13 1256.00,971.13
             1236.40,967.88 1217.09,963.98 1198.00,958.23
             1180.60,952.99 1156.38,941.81 1140.00,933.49
             1140.00,933.49 1120.00,922.00 1120.00,922.00
             1120.00,922.00 1138.00,894.00 1138.00,894.00
             1138.00,894.00 1150.00,874.00 1150.00,874.00
             1150.00,874.00 1139.00,867.00 1139.00,867.00
             1139.00,867.00 1117.23,900.00 1117.23,900.00
             1115.29,903.08 1111.71,910.42 1107.96,911.10
             1104.98,911.65 1100.21,907.63 1098.00,905.83
             1098.00,905.83 1075.05,886.17 1075.05,886.17
             1075.05,886.17 1066.95,877.01 1066.95,877.01
             1066.95,877.01 1052.28,862.83 1052.28,862.83
             1033.28,841.19 1011.72,807.80 1001.00,781.00
             1001.00,781.00 1043.00,763.80 1043.00,763.80
             1048.52,761.56 1054.25,757.89 1048.99,751.31
             1045.73,747.22 1038.94,750.93 1035.00,752.42
             1035.00,752.42 995.00,768.00 995.00,768.00
             995.00,768.00 990.33,754.00 990.33,754.00
             990.33,754.00 984.42,734.00 984.42,734.00
             979.34,715.51 975.17,689.13 975.00,670.00
             975.00,670.00 975.00,639.00 975.00,639.00
             975.00,639.00 977.28,613.00 977.28,613.00
             977.28,613.00 979.00,599.00 979.00,599.00
             979.00,599.00 1019.00,608.03 1019.00,608.03
             1022.00,608.92 1031.79,612.74 1034.27,610.97
             1036.11,609.65 1037.32,601.56 1038.00,599.00
             1023.34,596.04 995.78,586.63 982.00,586.00
             982.00,586.00 991.69,553.00 991.69,553.00
             991.69,553.00 999.57,535.00 999.57,535.00
             999.57,535.00 1004.31,522.00 1004.31,522.00
             1010.93,507.21 1026.14,481.76 1035.99,469.00
             1035.99,469.00 1054.93,446.00 1054.93,446.00
             1056.71,444.04 1060.27,439.04 1063.01,439.04
             1065.83,439.04 1070.98,444.98 1073.00,447.00
             1073.00,447.00 1097.00,469.98 1097.00,469.98
             1098.57,471.48 1100.79,473.76 1103.00,474.18
             1107.12,474.95 1111.47,469.98 1110.34,466.00
             1109.65,463.55 1102.90,456.29 1100.83,454.00
             1100.83,454.00 1073.00,426.00 1073.00,426.00
             1073.00,426.00 1093.00,409.46 1093.00,409.46
             1103.08,401.27 1118.83,390.06 1130.00,383.45
             1147.88,372.87 1171.28,362.09 1191.00,355.51
             1191.00,355.51 1223.00,346.00 1223.00,346.00
             1223.00,346.00 1225.68,360.00 1225.68,360.00
             1225.68,360.00 1229.29,387.00 1229.29,387.00
             1229.29,387.00 1232.00,402.00 1232.00,402.00
             1232.00,402.00 1246.00,400.00 1246.00,400.00
             1246.00,400.00 1240.42,367.00 1240.42,367.00
             1240.42,367.00 1236.00,344.00 1236.00,344.00
             1246.85,341.26 1279.56,338.02 1291.00,338.00
             1291.00,338.00 1298.00,338.00 1298.00,338.00
             1298.00,338.00 1309.00,338.91 1309.00,338.91
             1348.68,341.63 1369.38,346.46 1407.00,359.00
             1407.00,359.00 1392.32,397.00 1392.32,397.00
             1391.01,400.54 1386.98,408.24 1389.04,411.61
             1392.82,417.81 1399.63,413.82 1402.10,409.00
             1402.10,409.00 1412.28,385.00 1412.28,385.00
             1414.81,379.11 1418.86,371.09 1420.00,365.00
             1430.32,367.79 1449.43,378.66 1459.00,384.40
             1485.03,400.02 1508.21,418.78 1528.91,441.00
             1528.91,441.00 1553.00,470.00 1553.00,470.00
             1546.22,472.16 1536.16,480.47 1530.00,484.86
             1530.00,484.86 1512.11,496.90 1512.11,496.90
             1504.79,503.16 1510.59,508.93 1514.09,509.64
             1518.74,510.60 1524.32,505.49 1528.00,503.08
             1528.00,503.08 1561.00,481.00 1561.00,481.00
             1561.00,481.00 1567.55,492.00 1567.55,492.00
             1567.55,492.00 1578.74,512.00 1578.74,512.00
             1588.61,531.13 1595.68,549.33 1601.57,570.00
             1604.97,581.93 1608.45,594.71 1610.14,607.00
             1610.14,607.00 1614.00,643.00 1614.00,643.00 Z
           M 2501.00,992.00
           C 2501.00,992.00 2516.00,992.00 2516.00,992.00
             2529.33,991.98 2547.67,989.29 2561.00,987.08
             2623.97,976.65 2683.64,947.66 2731.00,904.83
             2784.24,856.69 2821.58,790.63 2834.74,720.00
             2837.39,705.75 2839.98,687.39 2840.00,673.00
             2840.00,673.00 2841.00,654.00 2841.00,654.00
             2841.00,654.00 2840.00,635.00 2840.00,635.00
             2840.00,635.00 2839.08,625.00 2839.08,625.00
             2836.84,597.02 2828.95,563.08 2818.60,537.00
             2805.12,503.01 2787.20,470.92 2763.42,443.00
             2763.42,443.00 2741.91,419.09 2741.91,419.09
             2721.11,398.29 2692.90,377.35 2667.00,363.31
             2623.43,339.69 2567.77,322.58 2518.00,322.00
             2518.00,322.00 2505.00,321.00 2505.00,321.00
             2505.00,321.00 2492.00,321.96 2492.00,321.96
             2492.00,321.96 2481.00,321.96 2481.00,321.96
             2481.00,321.96 2471.00,322.91 2471.00,322.91
             2449.00,324.45 2427.18,328.89 2406.00,335.00
             2321.93,359.24 2247.06,417.81 2205.31,495.00
             2185.16,532.24 2170.41,574.69 2166.17,617.00
             2166.17,617.00 2164.00,649.00 2164.00,649.00
             2164.00,650.99 2163.77,654.81 2165.02,656.40
             2166.59,658.38 2170.70,658.00 2173.00,658.00
             2173.00,658.00 2230.00,658.00 2230.00,658.00
             2231.94,658.00 2235.72,658.25 2237.26,657.01
             2239.93,654.85 2239.27,648.89 2236.69,646.93
             2233.95,644.86 2228.33,645.01 2225.00,645.00
             2225.00,645.00 2208.00,645.00 2208.00,645.00
             2208.00,645.00 2194.00,644.00 2194.00,644.00
             2194.00,644.00 2190.00,644.00 2190.00,644.00
             2186.59,643.96 2185.32,643.81 2182.00,643.00
             2182.00,643.00 2182.00,641.00 2182.00,641.00
             2182.00,641.00 2183.00,640.00 2183.00,640.00
             2186.20,640.78 2193.68,641.64 2196.77,640.71
             2199.22,639.97 2200.17,637.55 2198.36,635.59
             2196.16,633.23 2186.36,634.00 2183.00,634.00
             2183.44,632.64 2183.44,631.72 2184.59,630.60
             2187.06,628.20 2196.45,629.00 2200.00,629.00
             2198.98,616.86 2187.38,627.57 2184.00,617.00
             2187.13,617.00 2198.57,618.42 2200.24,617.00
             2202.32,615.24 2201.06,612.60 2198.85,611.59
             2196.93,610.72 2188.43,610.05 2186.00,610.00
             2186.00,610.00 2186.00,605.00 2186.00,605.00
             2189.54,605.08 2199.65,607.33 2201.57,606.41
             2204.15,605.18 2203.75,602.11 2200.85,600.42
             2197.39,598.40 2191.92,598.04 2188.00,598.00
             2190.01,591.77 2193.67,593.74 2199.00,594.80
             2206.15,596.23 2217.17,598.94 2224.00,599.00
             2223.40,591.78 2220.35,592.34 2214.00,590.88
             2205.97,589.03 2197.73,587.92 2190.00,585.00
             2190.00,585.00 2192.00,581.00 2192.00,581.00
             2195.08,582.00 2205.69,585.69 2207.92,582.41
             2211.48,577.17 2196.84,574.51 2194.00,574.00
             2194.00,574.00 2194.00,570.00 2194.00,570.00
             2196.68,570.22 2198.39,570.48 2201.00,571.15
             2201.00,571.15 2206.00,572.47 2206.00,572.47
             2212.05,573.47 2212.59,569.36 2209.68,566.65
             2207.03,564.18 2203.24,564.28 2201.08,563.28
             2200.01,562.79 2198.28,561.75 2198.62,560.30
             2198.96,558.86 2200.95,559.03 2202.02,559.18
             2204.53,559.54 2209.28,561.90 2211.85,561.50
             2215.24,560.99 2216.11,556.53 2210.94,553.97
             2210.94,553.97 2207.00,552.59 2207.00,552.59
             2207.00,552.59 2201.00,551.00 2201.00,551.00
             2204.90,544.49 2207.41,550.71 2219.00,551.00
             2218.64,540.85 2214.35,544.37 2205.00,538.00
             2205.00,538.00 2252.00,556.47 2252.00,556.47
             2261.44,559.24 2262.57,550.02 2260.96,547.41
             2259.54,545.10 2251.74,542.06 2249.00,540.75
             2249.00,540.75 2226.00,530.31 2226.00,530.31
             2220.30,527.70 2216.32,526.91 2212.00,522.00
             2214.68,522.76 2216.51,523.53 2219.00,524.78
             2221.60,526.09 2226.75,529.46 2228.92,525.69
             2229.56,524.57 2229.48,523.33 2228.92,522.21
             2226.27,516.91 2218.44,519.33 2218.00,511.00
             2221.03,512.31 2229.19,516.94 2231.85,516.56
             2234.74,516.13 2235.43,513.11 2233.42,510.95
             2231.25,508.62 2225.10,505.90 2222.00,505.00
             2222.00,505.00 2223.00,501.00 2223.00,501.00
             2223.00,501.00 2229.00,504.14 2229.00,504.14
             2229.00,504.14 2233.00,506.03 2233.00,506.03
             2236.01,507.09 2242.08,507.24 2239.72,502.17
             2237.05,496.44 2230.02,498.73 2229.00,490.00
             2232.41,492.08 2239.87,497.47 2243.85,496.63
             2246.04,496.17 2247.08,494.30 2246.34,492.19
             2245.38,489.44 2237.69,485.20 2235.00,484.00
             2235.00,484.00 2236.00,480.00 2236.00,480.00
             2244.25,484.02 2251.34,489.98 2259.00,494.96
             2261.00,496.26 2265.88,499.37 2267.34,495.70
             2268.72,492.24 2264.26,489.58 2262.00,487.98
             2256.43,484.04 2246.70,476.93 2241.00,474.00
             2245.86,469.34 2248.12,474.16 2253.00,476.58
             2255.01,477.58 2258.27,478.49 2259.34,475.69
             2262.02,468.68 2248.31,468.91 2252.00,460.00
             2254.29,462.93 2258.32,467.12 2261.98,468.21
             2265.17,469.15 2267.31,467.22 2266.34,463.98
             2265.36,460.68 2258.73,455.60 2256.00,453.00
             2263.63,452.02 2263.75,458.04 2269.98,459.43
             2273.04,460.11 2275.36,458.26 2274.34,455.07
             2273.62,452.79 2270.71,450.54 2269.00,448.91
             2269.00,448.91 2264.00,444.00 2264.00,444.00
             2272.08,442.96 2272.13,449.95 2277.98,451.26
             2279.23,451.53 2280.46,451.31 2281.38,450.38
             2284.42,447.35 2279.96,443.12 2278.00,441.00
             2275.90,438.74 2274.81,437.52 2273.00,435.00
             2273.00,435.00 2286.00,447.04 2286.00,447.04
             2286.00,447.04 2305.00,466.00 2305.00,466.00
             2308.88,469.85 2313.23,475.44 2318.69,470.28
             2323.67,465.57 2318.17,459.71 2314.83,456.00
             2314.83,456.00 2300.04,441.00 2300.04,441.00
             2300.04,441.00 2284.00,424.00 2284.00,424.00
             2291.11,425.63 2292.00,430.88 2296.98,432.34
             2300.14,433.28 2302.28,431.14 2301.34,427.98
             2300.42,424.83 2294.47,419.48 2292.00,417.00
             2300.48,415.91 2299.85,423.61 2306.00,425.29
             2311.58,426.83 2310.99,421.24 2308.97,418.00
             2308.97,418.00 2305.93,414.00 2305.93,414.00
             2304.14,411.71 2303.37,410.56 2302.00,408.00
             2302.00,408.00 2306.00,407.00 2306.00,407.00
             2307.39,410.25 2310.38,415.33 2313.30,417.39
             2316.08,419.35 2319.76,418.62 2319.64,414.89
             2319.47,409.33 2313.31,407.47 2313.00,400.00
             2319.37,404.79 2320.77,410.20 2324.16,411.34
             2327.37,412.42 2328.98,409.93 2328.55,406.98
             2327.94,402.73 2323.79,398.07 2321.00,395.00
             2326.43,394.29 2327.14,396.77 2330.00,401.00
             2332.46,404.65 2340.79,418.49 2344.03,419.83
             2346.40,420.81 2347.65,419.19 2347.64,416.94
             2347.64,414.03 2345.20,410.38 2343.66,408.00
             2343.66,408.00 2338.33,400.00 2338.33,400.00
             2335.61,395.92 2333.16,392.44 2331.00,388.00
             2331.00,388.00 2335.00,386.00 2335.00,386.00
             2336.18,388.42 2340.66,396.68 2342.63,398.00
             2344.76,399.43 2348.18,398.78 2348.46,395.85
             2348.72,393.20 2343.33,384.31 2342.00,381.00
             2342.00,381.00 2346.00,380.00 2346.00,380.00
             2348.17,387.59 2350.55,392.71 2359.00,393.00
             2358.76,385.52 2355.66,382.35 2352.00,376.00
             2352.00,376.00 2356.00,374.00 2356.00,374.00
             2357.59,377.70 2362.19,389.48 2367.69,387.34
             2372.83,385.34 2364.40,373.14 2363.00,370.00
             2363.00,370.00 2367.00,369.00 2367.00,369.00
             2368.48,372.44 2372.64,384.34 2377.70,382.34
             2382.90,380.30 2375.39,368.23 2374.00,365.00
             2378.20,368.95 2379.91,374.78 2382.15,380.00
             2382.15,380.00 2394.44,409.00 2394.44,409.00
             2398.55,417.68 2406.14,415.06 2407.99,412.35
             2410.04,409.37 2405.88,401.25 2404.68,398.00
             2404.68,398.00 2394.58,372.00 2394.58,372.00
             2392.56,366.71 2390.50,363.82 2391.00,358.00
             2396.31,365.03 2395.91,371.30 2399.26,372.83
             2402.01,374.09 2403.59,371.38 2403.67,368.98
             2403.67,368.98 2400.00,355.00 2400.00,355.00
             2400.00,355.00 2404.00,354.00 2404.00,354.00
             2405.07,357.66 2407.09,368.17 2411.07,369.26
             2413.97,370.05 2414.84,367.24 2414.85,364.98
             2414.87,361.32 2412.49,355.39 2411.00,352.00
             2411.00,352.00 2416.00,351.00 2416.00,351.00
             2416.47,354.05 2418.33,362.41 2420.08,364.68
             2421.59,366.63 2424.17,367.25 2425.40,364.68
             2426.85,361.66 2423.56,351.97 2423.00,348.00
             2423.00,348.00 2428.00,348.00 2428.00,348.00
             2428.49,351.70 2429.29,360.85 2432.43,362.98
             2433.83,363.93 2435.40,363.87 2436.77,364.00
             2436.99,361.04 2437.06,358.97 2436.77,356.00
             2436.16,353.86 2434.94,350.24 2435.68,348.20
             2437.09,344.36 2439.70,347.83 2440.47,350.02
             2440.47,350.02 2444.40,370.00 2444.40,370.00
             2444.86,372.26 2445.41,376.61 2447.49,377.92
             2452.25,380.91 2451.58,373.15 2451.25,371.00
             2451.25,371.00 2446.00,344.00 2446.00,344.00
             2455.69,343.18 2450.67,353.83 2454.93,358.38
             2455.67,359.18 2456.66,359.60 2457.74,359.26
             2461.02,358.21 2459.80,351.49 2459.41,349.00
             2459.41,349.00 2458.00,342.00 2458.00,342.00
             2468.94,341.08 2461.72,355.12 2467.30,357.34
             2473.25,359.72 2471.78,349.69 2471.21,347.00
             2471.21,347.00 2471.21,340.00 2471.21,340.00
             2479.54,342.73 2474.33,350.98 2478.01,355.38
             2479.58,357.25 2481.91,356.47 2482.69,353.85
             2483.65,350.57 2482.93,343.29 2482.00,340.00
             2489.52,339.37 2487.51,344.70 2489.00,356.00
             2490.47,355.88 2492.17,355.96 2493.40,354.98
             2495.88,353.02 2495.00,342.29 2495.00,339.00
             2495.00,339.00 2498.00,339.00 2498.00,339.00
             2498.00,339.00 2498.00,386.00 2498.00,386.00
             2498.00,387.99 2497.77,391.81 2499.02,393.40
             2500.77,395.61 2508.23,395.61 2509.98,393.40
             2511.23,391.81 2511.00,387.99 2511.00,386.00
             2511.00,386.00 2511.00,359.00 2511.00,359.00
             2511.00,351.84 2510.50,345.52 2514.00,339.00
             2514.68,341.78 2514.91,343.11 2515.00,346.00
             2515.00,346.00 2515.00,350.00 2515.00,350.00
             2515.33,357.19 2519.27,355.91 2520.41,353.68
             2523.04,348.52 2518.95,339.24 2528.00,340.00
             2527.19,343.31 2527.04,344.59 2527.01,348.00
             2527.01,348.00 2527.01,351.98 2527.01,351.98
             2527.12,354.63 2528.94,359.97 2531.98,355.64
             2533.63,353.29 2532.35,340.65 2536.83,341.62
             2538.27,341.93 2538.66,343.81 2538.77,345.02
             2539.05,348.22 2536.70,354.22 2537.69,356.69
             2538.62,359.03 2543.04,360.32 2544.52,353.98
             2544.52,353.98 2545.15,349.00 2545.15,349.00
             2545.15,349.00 2546.00,342.00 2546.00,342.00
             2546.00,342.00 2550.99,342.00 2550.99,342.00
             2550.97,345.51 2549.04,357.06 2550.99,359.21
             2552.63,361.02 2554.59,359.53 2555.49,357.84
             2557.06,354.91 2557.92,347.43 2558.00,344.00
             2558.00,344.00 2563.00,344.00 2563.00,344.00
             2563.00,344.00 2558.00,380.00 2558.00,380.00
             2564.24,378.93 2564.07,375.55 2565.20,370.00
             2565.20,370.00 2570.00,346.00 2570.00,346.00
             2570.00,346.00 2575.00,347.00 2575.00,347.00
             2574.21,350.50 2570.81,360.54 2573.02,363.40
             2574.57,365.40 2577.13,364.76 2578.30,362.71
             2579.25,361.05 2581.65,351.26 2582.00,349.00
             2590.42,353.58 2581.25,359.57 2583.69,365.69
             2584.56,367.89 2588.36,369.60 2590.70,362.98
             2590.70,362.98 2591.98,359.00 2591.98,359.00
             2591.98,359.00 2594.00,352.00 2594.00,352.00
             2594.00,352.00 2599.00,354.00 2599.00,354.00
             2597.52,357.38 2595.14,363.30 2595.14,366.96
             2595.14,369.13 2596.04,371.87 2598.83,371.18
             2602.26,370.32 2604.90,359.29 2606.00,356.00
             2606.00,356.00 2610.00,357.00 2610.00,357.00
             2610.00,357.00 2605.64,371.85 2605.64,371.85
             2605.92,374.98 2609.46,375.35 2611.30,374.00
             2614.00,372.03 2613.56,366.45 2619.00,361.00
             2619.00,361.00 2604.32,398.00 2604.32,398.00
             2604.32,398.00 2600.79,407.00 2600.79,407.00
             2597.67,418.06 2607.84,417.55 2610.39,415.40
             2612.63,413.51 2615.35,406.87 2616.58,404.00
             2616.58,404.00 2627.14,380.00 2627.14,380.00
             2629.21,375.32 2630.44,369.70 2635.00,367.00
             2634.09,370.90 2629.23,380.59 2629.81,382.77
             2630.49,385.37 2633.65,386.30 2636.20,383.67
             2638.49,381.31 2641.08,374.26 2642.00,371.00
             2642.00,371.00 2646.00,372.00 2646.00,372.00
             2644.84,376.07 2639.85,384.75 2640.40,387.77
             2641.03,391.26 2644.56,390.57 2646.61,388.67
             2648.87,386.58 2651.71,380.00 2653.00,377.00
             2653.00,377.00 2657.00,378.00 2657.00,378.00
             2655.45,381.18 2649.72,389.40 2649.73,391.94
             2649.74,395.17 2653.34,396.82 2656.24,394.42
             2659.04,392.10 2661.90,386.44 2663.00,383.00
             2663.00,383.00 2667.00,384.00 2667.00,384.00
             2665.55,387.34 2660.06,396.14 2660.45,398.85
             2660.78,401.17 2662.83,402.02 2664.93,401.34
             2669.10,400.00 2671.90,392.86 2672.79,389.00
             2678.49,392.08 2675.48,394.88 2672.79,399.00
             2669.94,402.74 2661.56,414.17 2660.70,417.98
             2659.72,422.34 2663.22,424.32 2667.25,419.85
             2667.25,419.85 2678.33,404.00 2678.33,404.00
             2681.48,399.31 2682.36,395.85 2688.00,399.00
             2685.47,401.27 2680.57,406.67 2679.87,409.98
             2679.29,412.73 2681.15,414.92 2683.98,414.26
             2687.19,413.50 2691.48,406.52 2696.00,403.00
             2695.64,410.63 2688.56,412.94 2688.62,417.94
             2688.66,420.88 2691.85,422.49 2694.54,420.99
             2697.35,419.42 2701.47,412.91 2703.00,410.00
             2709.14,416.41 2699.01,418.75 2697.74,424.07
             2697.05,426.97 2699.92,430.85 2705.83,426.14
             2705.83,426.14 2709.28,422.83 2709.28,422.83
             2709.28,422.83 2714.00,418.00 2714.00,418.00
             2715.02,425.95 2708.30,426.02 2706.88,431.98
             2706.11,435.25 2709.00,438.34 2714.00,434.68
             2714.00,434.68 2718.00,431.00 2718.00,431.00
             2718.00,431.00 2723.00,426.00 2723.00,426.00
             2720.48,431.32 2716.12,434.88 2712.00,439.00
             2712.00,439.00 2689.39,462.00 2689.39,462.00
             2686.56,465.93 2684.58,469.78 2689.39,473.67
             2690.26,474.62 2691.50,475.29 2693.00,475.26
             2697.10,475.16 2702.27,468.20 2705.17,465.42
             2705.17,465.42 2723.00,449.00 2723.00,449.00
             2726.94,445.06 2730.44,440.28 2736.00,439.00
             2736.00,439.00 2731.00,444.00 2731.00,444.00
             2731.00,444.00 2727.32,448.00 2727.32,448.00
             2723.64,453.02 2726.81,455.85 2729.85,455.13
             2735.66,453.76 2736.48,445.89 2744.00,449.00
             2741.91,450.33 2739.88,451.65 2738.02,453.30
             2730.14,460.29 2733.91,464.55 2738.02,463.34
             2744.13,461.55 2744.40,454.51 2752.00,458.00
             2748.96,459.93 2741.73,464.67 2740.66,468.07
             2739.83,470.66 2741.29,472.73 2744.06,472.58
             2749.66,472.26 2751.05,466.04 2759.00,466.00
             2757.15,468.46 2756.38,469.34 2753.98,471.34
             2753.98,471.34 2750.15,474.46 2750.15,474.46
             2745.61,478.92 2747.82,482.19 2752.02,481.67
             2755.33,481.25 2757.39,478.98 2759.91,477.16
             2760.74,476.56 2762.58,474.97 2763.66,475.95
             2765.98,478.06 2759.23,482.17 2758.00,483.00
             2754.29,485.50 2741.82,493.03 2740.02,496.18
             2739.09,497.82 2739.15,499.22 2739.00,501.00
             2750.00,500.65 2760.98,488.89 2771.00,484.00
             2770.56,492.41 2762.53,490.78 2760.66,496.19
             2759.55,499.38 2762.12,500.97 2765.02,500.55
             2771.69,499.59 2773.51,492.75 2779.00,498.00
             2776.35,499.18 2769.35,502.59 2767.60,504.63
             2765.76,506.79 2765.99,510.01 2769.15,510.58
             2772.67,511.22 2779.88,506.30 2784.00,505.00
             2784.00,505.00 2785.00,509.00 2785.00,509.00
             2781.84,509.90 2775.63,512.35 2773.33,514.63
             2770.79,517.15 2771.51,520.46 2774.23,521.27
             2778.44,522.53 2781.82,516.55 2790.00,517.00
             2790.00,517.00 2790.00,519.00 2790.00,519.00
             2787.09,520.25 2780.46,523.03 2778.60,525.39
             2776.86,527.59 2776.87,531.07 2780.15,531.56
             2782.80,531.95 2790.98,527.30 2794.00,526.00
             2790.11,530.40 2787.19,530.86 2782.00,533.23
             2782.00,533.23 2758.00,543.78 2758.00,543.78
             2754.64,545.35 2746.66,548.13 2745.04,551.13
             2743.46,554.04 2744.25,563.05 2754.00,559.76
             2754.00,559.76 2801.00,542.00 2801.00,542.00
             2797.09,548.30 2789.36,546.45 2787.66,551.20
             2786.71,553.85 2788.48,555.58 2791.06,555.67
             2791.06,555.67 2805.00,552.00 2805.00,552.00
             2805.00,552.00 2805.00,556.00 2805.00,556.00
             2802.69,556.42 2801.22,556.80 2799.00,557.59
             2799.00,557.59 2795.06,559.10 2795.06,559.10
             2789.88,561.64 2790.74,565.92 2794.15,566.40
             2797.10,566.82 2801.10,564.89 2803.98,564.37
             2804.99,564.19 2807.01,563.85 2807.38,565.27
             2807.73,566.66 2805.89,567.56 2804.92,568.01
             2802.36,569.20 2797.50,569.75 2795.60,571.72
             2793.66,573.75 2793.46,578.65 2800.00,577.11
             2800.00,577.11 2805.00,575.64 2805.00,575.64
             2805.00,575.64 2811.00,574.00 2811.00,574.00
             2811.97,585.45 2798.03,575.65 2797.00,588.00
             2810.15,587.99 2812.73,583.95 2815.00,591.00
             2815.00,591.00 2794.00,595.25 2794.00,595.25
             2794.00,595.25 2783.60,597.98 2783.60,597.98
             2783.60,597.98 2782.00,603.00 2782.00,603.00
             2782.00,603.00 2817.00,598.00 2817.00,598.00
             2814.89,604.68 2808.14,604.50 2802.00,605.00
             2802.00,605.00 2802.00,610.86 2802.00,610.86
             2802.00,610.86 2808.00,610.86 2808.00,610.86
             2808.00,610.86 2812.00,610.10 2812.00,610.10
             2814.31,609.82 2821.05,610.44 2816.63,614.07
             2811.54,618.25 2804.77,612.39 2804.00,621.95
             2804.00,621.95 2808.00,621.95 2808.00,621.95
             2808.00,621.95 2813.00,621.95 2813.00,621.95
             2814.81,621.73 2819.80,621.03 2819.80,624.08
             2819.80,624.93 2819.27,625.53 2818.63,626.00
             2813.41,629.77 2805.83,624.05 2805.00,634.00
             2808.48,633.97 2818.17,632.07 2820.26,634.56
             2821.93,636.55 2819.68,638.03 2817.94,638.57
             2817.94,638.57 2806.00,640.00 2806.00,640.00
             2806.00,640.00 2806.00,645.00 2806.00,645.00
             2806.00,645.00 2822.00,646.00 2822.00,646.00
             2822.00,646.00 2822.00,648.00 2822.00,648.00
             2822.00,648.00 2796.00,649.00 2796.00,649.00
             2796.00,649.00 2783.00,649.00 2783.00,649.00
             2783.00,649.00 2766.00,650.00 2766.00,650.00
             2766.00,650.00 2766.00,661.00 2766.00,661.00
             2778.84,661.00 2811.08,660.35 2822.00,663.00
             2822.00,663.00 2822.00,665.00 2822.00,665.00
             2822.00,665.00 2806.00,666.00 2806.00,666.00
             2806.00,666.00 2806.00,671.00 2806.00,671.00
             2809.40,671.01 2814.76,671.11 2817.94,672.22
             2819.64,672.82 2821.95,674.25 2820.26,676.28
             2818.24,678.69 2808.44,677.01 2805.00,677.00
             2805.00,677.00 2805.00,683.00 2805.00,683.00
             2808.39,683.00 2813.86,682.78 2816.94,684.03
             2818.48,684.65 2821.01,686.32 2819.26,688.19
             2817.73,689.82 2806.73,689.00 2804.00,689.00
             2804.00,689.00 2804.00,694.00 2804.00,694.00
             2804.00,694.00 2810.00,694.92 2810.00,694.92
             2812.15,695.14 2814.90,695.14 2816.80,696.31
             2819.39,697.91 2818.72,700.01 2815.92,700.65
             2812.40,701.45 2807.05,698.61 2804.31,699.69
             2802.69,700.33 2802.02,702.11 2802.66,703.71
             2804.24,707.70 2815.49,705.86 2816.38,710.13
             2817.10,713.61 2810.55,712.29 2809.00,712.00
             2800.06,710.31 2791.12,708.03 2782.00,708.00
             2782.16,709.85 2782.03,711.67 2783.60,713.02
             2785.68,714.81 2802.20,717.25 2806.00,718.00
             2811.41,719.07 2814.86,718.75 2815.00,725.00
             2815.00,725.00 2798.00,722.00 2798.00,722.00
             2798.24,728.74 2799.00,728.12 2805.00,729.86
             2806.86,730.40 2811.70,731.35 2811.55,733.92
             2811.46,735.41 2810.03,735.79 2808.81,735.82
             2806.59,735.87 2801.11,733.64 2798.15,734.35
             2795.01,735.11 2793.81,738.80 2800.02,740.83
             2800.02,740.83 2804.00,741.91 2804.00,741.91
             2804.00,741.91 2810.00,744.00 2810.00,744.00
             2810.00,744.00 2807.59,746.77 2807.59,746.77
             2807.59,746.77 2792.00,745.00 2792.00,745.00
             2792.00,745.00 2792.00,751.00 2792.00,751.00
             2794.20,751.50 2801.11,753.37 2802.80,754.41
             2804.00,755.16 2805.42,756.79 2803.54,757.79
             2803.54,757.79 2788.00,756.00 2788.00,756.00
             2788.89,766.74 2797.26,761.43 2802.00,769.00
             2802.00,769.00 2785.00,762.42 2785.00,762.42
             2785.00,762.42 2769.00,756.55 2769.00,756.55
             2769.00,756.55 2755.00,751.04 2755.00,751.04
             2744.81,748.13 2744.16,757.54 2746.60,760.73
             2748.52,763.22 2755.85,765.80 2759.00,767.15
             2759.00,767.15 2783.00,777.28 2783.00,777.28
             2787.85,779.37 2791.31,780.07 2795.00,784.00
             2789.42,782.87 2784.48,778.82 2781.15,779.78
             2778.35,780.59 2777.98,783.48 2779.62,785.61
             2781.64,788.25 2787.82,790.14 2791.00,791.00
             2791.00,791.00 2790.00,796.00 2790.00,796.00
             2787.04,794.73 2778.83,790.12 2776.15,790.81
             2773.46,791.49 2772.93,794.33 2774.62,796.37
             2776.59,798.74 2783.01,801.15 2786.00,802.00
             2786.00,802.00 2784.00,807.00 2784.00,807.00
             2777.76,802.94 2775.59,801.19 2768.00,801.00
             2768.61,808.45 2773.40,810.12 2780.00,812.00
             2779.30,813.54 2778.84,815.51 2776.66,815.29
             2774.41,815.07 2769.82,810.58 2766.06,810.42
             2762.51,810.26 2759.15,814.40 2768.00,820.15
             2770.34,821.66 2771.40,822.14 2774.00,823.00
             2772.70,824.32 2772.14,825.45 2769.96,825.32
             2767.98,825.20 2764.68,822.78 2763.00,821.67
             2763.00,821.67 2750.00,813.32 2750.00,813.32
             2748.08,812.15 2744.00,809.33 2741.76,811.04
             2738.50,813.51 2743.11,817.54 2745.02,818.96
             2749.29,822.12 2762.94,829.46 2765.10,833.18
             2765.96,834.65 2765.82,835.46 2766.00,837.00
             2762.28,835.33 2755.74,829.92 2752.15,830.44
             2749.89,830.78 2748.96,832.77 2749.66,834.84
             2750.73,838.03 2757.04,841.67 2760.00,843.00
             2760.00,843.00 2760.00,845.00 2760.00,845.00
             2752.46,844.07 2749.18,838.94 2745.15,839.46
             2742.79,839.76 2742.00,841.88 2742.66,843.98
             2743.82,847.70 2749.70,850.41 2753.00,852.00
             2751.67,853.26 2751.16,854.39 2748.96,853.82
             2746.64,853.22 2743.57,849.36 2740.02,848.57
             2736.28,847.73 2733.89,850.33 2737.32,855.00
             2737.32,855.00 2740.00,858.00 2740.00,858.00
             2742.10,860.26 2743.19,861.48 2745.00,864.00
             2745.00,864.00 2744.00,865.00 2744.00,865.00
             2744.00,865.00 2733.00,857.62 2733.00,857.62
             2729.18,856.37 2724.19,858.79 2731.05,865.91
             2731.05,865.91 2737.00,872.00 2737.00,872.00
             2731.32,869.32 2727.48,864.33 2723.00,860.04
             2723.00,860.04 2700.00,839.14 2700.00,839.14
             2691.59,832.89 2687.07,841.82 2688.17,845.00
             2689.04,847.52 2695.81,853.81 2698.00,856.00
             2704.32,862.32 2721.75,878.12 2725.00,885.00
             2725.00,885.00 2720.00,880.97 2720.00,880.97
             2720.00,880.97 2717.00,878.31 2717.00,878.31
             2712.11,874.70 2709.01,876.92 2709.74,880.06
             2710.37,882.75 2713.19,884.81 2714.71,886.99
             2715.26,887.78 2716.83,890.03 2715.37,890.80
             2712.65,892.24 2708.37,884.76 2704.93,883.88
             2702.10,883.16 2700.28,885.25 2701.08,888.02
             2701.96,891.07 2706.52,894.73 2709.00,900.00
             2699.30,898.89 2703.07,892.28 2692.00,891.00
             2692.22,897.60 2692.87,896.73 2696.10,901.99
             2696.66,902.90 2698.13,905.03 2697.11,906.09
             2696.05,907.18 2694.16,905.47 2693.43,904.80
             2691.40,902.93 2689.59,899.56 2686.85,898.66
             2684.00,897.72 2680.85,899.63 2683.86,905.00
             2683.86,905.00 2685.89,908.00 2685.89,908.00
             2685.89,908.00 2690.00,913.84 2690.00,913.84
             2688.61,914.02 2687.56,914.26 2686.17,913.84
             2681.30,911.64 2673.53,895.62 2668.68,891.32
             2665.40,888.42 2662.20,889.45 2662.56,893.06
             2662.82,895.62 2665.87,899.80 2667.33,902.00
             2667.33,902.00 2672.14,909.00 2672.14,909.00
             2672.14,909.00 2680.00,921.00 2680.00,921.00
             2671.35,921.15 2673.75,914.83 2667.93,912.08
             2664.69,910.55 2662.03,913.00 2664.28,918.00
             2664.28,918.00 2666.67,922.00 2666.67,922.00
             2666.67,922.00 2670.00,927.00 2670.00,927.00
             2670.00,927.00 2665.00,929.00 2665.00,929.00
             2663.83,925.83 2661.45,920.64 2658.68,918.62
             2657.00,917.39 2654.58,917.00 2653.65,919.32
             2652.38,922.48 2657.43,930.02 2659.00,933.00
             2659.00,933.00 2655.00,935.00 2655.00,935.00
             2652.16,928.64 2650.55,923.62 2643.00,923.00
             2643.16,929.49 2643.47,928.38 2645.97,933.99
             2646.19,935.02 2647.17,937.09 2645.97,938.09
             2645.10,939.16 2643.58,937.55 2642.96,936.80
             2640.97,934.40 2639.99,929.77 2636.81,928.66
             2632.70,927.21 2632.27,931.15 2633.12,934.00
             2633.12,934.00 2634.78,938.00 2634.78,938.00
             2634.78,938.00 2638.00,944.00 2638.00,944.00
             2633.47,941.52 2632.96,938.51 2630.76,934.00
             2630.76,934.00 2618.86,908.00 2618.86,908.00
             2617.53,905.01 2615.35,898.75 2612.61,897.02
             2609.53,895.07 2600.23,896.28 2602.02,903.02
             2602.02,903.02 2615.28,935.00 2615.28,935.00
             2617.61,940.41 2620.84,946.00 2620.00,952.00
             2620.00,952.00 2617.01,946.00 2617.01,946.00
             2617.01,946.00 2615.29,942.06 2615.29,942.06
             2612.75,937.49 2609.60,938.39 2608.78,941.15
             2607.06,946.96 2615.35,951.15 2608.00,956.00
             2606.93,953.21 2604.33,943.52 2601.60,942.72
             2599.40,942.07 2597.82,944.04 2597.64,946.06
             2597.44,948.21 2600.18,955.55 2601.00,958.00
             2601.00,958.00 2596.00,959.00 2596.00,959.00
             2596.00,959.00 2593.00,946.00 2593.00,946.00
             2582.62,946.37 2586.80,951.10 2589.00,962.00
             2589.00,962.00 2585.00,963.00 2585.00,963.00
             2580.84,950.28 2582.82,949.25 2575.00,949.00
             2575.00,949.00 2577.00,966.00 2577.00,966.00
             2575.19,965.42 2574.22,965.41 2572.98,963.69
             2571.54,961.68 2568.51,944.79 2567.65,941.00
             2567.20,939.02 2566.64,935.18 2565.18,933.78
             2560.62,929.43 2559.96,937.35 2560.29,940.00
             2560.29,940.00 2566.00,967.00 2566.00,967.00
             2556.07,967.86 2562.83,955.75 2555.91,953.96
             2547.81,951.87 2556.49,968.91 2550.93,969.47
             2548.33,969.73 2548.03,965.73 2547.73,964.00
             2546.76,958.28 2547.27,956.52 2541.05,956.00
             2541.05,956.00 2541.05,960.00 2541.05,960.00
             2541.05,960.00 2541.05,965.00 2541.05,965.00
             2541.26,967.05 2540.46,974.38 2537.02,969.63
             2534.54,966.21 2538.06,958.88 2532.77,957.15
             2531.74,956.98 2530.09,957.04 2529.00,957.15
             2529.00,957.15 2530.00,972.00 2530.00,972.00
             2521.59,971.54 2527.17,963.82 2523.83,959.57
             2522.46,957.83 2519.97,958.06 2518.00,958.00
             2518.00,958.00 2517.00,974.00 2517.00,974.00
             2517.00,974.00 2515.00,974.00 2515.00,974.00
             2513.08,966.10 2514.02,937.07 2514.00,927.00
             2513.99,920.18 2514.06,917.39 2506.02,918.06
             2504.53,918.18 2503.03,918.33 2502.02,919.60
             2500.44,921.60 2501.00,932.00 2501.00,935.00
             2501.00,935.00 2501.00,992.00 2501.00,992.00 Z
           M 3287.00,492.00
           C 3290.37,492.00 3301.31,492.56 3303.69,490.98
             3306.76,488.93 3305.64,485.02 3305.28,482.00
             3305.28,482.00 3302.40,459.00 3302.40,459.00
             3297.06,432.47 3281.58,402.80 3261.99,384.09
             3251.70,374.27 3237.74,363.64 3225.00,357.27
             3164.06,326.80 3087.39,339.67 3042.58,392.00
             3032.54,403.72 3024.52,415.76 3018.43,430.00
             3009.98,449.76 3006.00,470.58 3006.00,492.00
             3009.97,492.71 3022.49,492.69 3024.40,494.60
             3026.50,496.70 3026.90,509.39 3027.43,513.00
             3029.49,527.24 3033.33,539.12 3039.75,552.00
             3043.25,559.00 3047.01,565.83 3051.90,571.98
             3053.92,574.52 3056.33,577.26 3059.96,576.63
             3071.34,574.63 3057.29,559.74 3054.75,556.00
             3045.63,542.57 3038.89,525.99 3035.85,510.00
             3035.49,506.59 3033.23,496.07 3035.85,493.60
             3037.91,491.21 3046.64,492.04 3050.00,492.00
             3059.41,491.87 3058.99,489.28 3059.00,481.00
             3059.00,481.00 3043.00,481.00 3043.00,481.00
             3040.87,480.96 3038.22,481.03 3036.42,479.40
             3034.12,476.90 3035.70,471.14 3036.42,468.00
             3037.68,459.78 3040.03,451.69 3043.28,444.00
             3044.16,441.94 3046.15,436.78 3047.65,435.64
             3052.40,431.08 3060.47,444.74 3065.68,435.64
             3069.35,429.60 3060.86,424.64 3056.00,423.00
             3058.90,414.26 3071.86,401.86 3079.00,395.92
             3081.06,394.21 3086.30,389.52 3088.91,389.45
             3094.09,389.31 3095.75,402.17 3103.84,397.82
             3113.09,392.97 3100.48,385.06 3103.84,380.70
             3104.77,379.30 3110.21,377.16 3112.00,376.45
             3118.74,373.77 3130.87,370.22 3138.00,369.29
             3140.80,368.92 3146.27,368.46 3148.40,370.60
             3150.83,373.02 3149.99,383.38 3150.00,387.00
             3150.00,388.99 3149.77,392.82 3151.02,394.40
             3152.17,395.85 3160.79,399.24 3161.00,388.00
             3161.00,388.00 3161.00,383.00 3161.00,383.00
             3161.00,383.00 3162.00,369.00 3162.00,369.00
             3175.11,369.00 3185.80,371.37 3198.00,376.20
             3198.00,376.20 3210.00,381.00 3210.00,381.00
             3208.02,385.68 3200.75,393.56 3206.31,398.11
             3214.13,404.50 3217.08,390.26 3223.00,390.45
             3225.36,390.53 3229.19,393.93 3231.00,395.44
             3238.33,401.57 3241.57,404.72 3247.73,412.00
             3249.40,413.99 3253.41,418.27 3253.12,420.96
             3252.69,425.10 3245.25,426.92 3243.64,432.01
             3242.52,435.57 3245.22,441.67 3250.04,440.37
             3250.04,440.37 3263.00,433.00 3263.00,433.00
             3263.00,433.00 3268.58,447.00 3268.58,447.00
             3268.58,447.00 3273.63,464.00 3273.63,464.00
             3274.27,466.62 3276.06,474.59 3275.60,476.94
             3274.20,484.00 3259.59,479.28 3253.31,482.58
             3249.93,484.36 3251.19,489.97 3254.28,491.40
             3254.28,491.40 3277.00,493.00 3277.00,493.00
             3277.00,493.00 3273.58,515.00 3273.58,515.00
             3270.43,529.06 3263.74,544.11 3255.66,556.00
             3252.47,560.69 3242.60,571.02 3246.03,576.77
             3247.96,580.02 3251.90,580.23 3254.83,578.26
             3258.35,575.89 3264.80,565.93 3267.31,562.00
             3280.38,541.44 3286.78,516.23 3287.00,492.00 Z
           M 1258.00,417.00
           C 1258.00,417.00 1239.00,417.00 1239.00,417.00
             1239.00,417.00 1239.00,433.00 1239.00,433.00
             1243.85,432.13 1248.60,431.13 1252.77,434.65
             1258.29,439.30 1253.80,446.22 1248.00,447.53
             1245.10,448.18 1240.95,446.66 1238.00,446.00
             1239.60,449.96 1243.02,450.07 1247.00,449.94
             1253.95,449.72 1258.71,445.22 1257.77,438.00
             1256.43,427.63 1245.94,431.75 1242.60,428.40
             1241.47,427.27 1241.09,425.56 1241.20,424.01
             1241.61,418.45 1246.89,419.01 1251.00,419.00
             1251.00,419.00 1258.00,419.00 1258.00,419.00
             1258.00,419.00 1258.00,417.00 1258.00,417.00 Z
           M 1388.00,434.00
           C 1386.06,429.33 1379.61,430.94 1376.04,433.09
             1370.93,436.17 1369.27,442.39 1369.04,448.00
             1368.83,453.14 1369.50,459.08 1374.11,462.26
             1378.83,465.53 1389.55,464.51 1390.77,455.00
             1392.36,442.66 1380.13,442.95 1372.00,446.00
             1372.00,446.00 1371.00,445.00 1371.00,445.00
             1374.06,436.48 1378.52,431.79 1388.00,434.00 Z
           M 1376.02,446.57
           C 1379.68,445.91 1383.67,445.53 1386.57,448.43
             1390.87,452.74 1388.76,459.78 1382.98,461.49
             1373.78,464.20 1365.68,450.95 1376.02,446.57 Z
           M 1134.00,475.00
           C 1128.80,476.60 1119.62,487.08 1117.17,492.00
             1116.24,493.88 1116.23,495.01 1116.00,497.00
             1129.12,497.00 1131.87,495.55 1132.00,506.00
             1132.00,506.00 1134.00,506.00 1134.00,506.00
             1134.07,500.86 1133.63,498.72 1139.00,497.00
             1139.00,497.00 1139.00,495.00 1139.00,495.00
             1139.00,495.00 1135.02,492.69 1135.02,492.69
             1135.02,492.69 1134.00,475.00 1134.00,475.00 Z
           M 1120.00,495.00
           C 1121.44,489.17 1126.16,482.87 1132.00,481.00
             1132.00,483.94 1132.73,492.13 1130.40,493.98
             1128.60,495.40 1122.41,495.00 1120.00,495.00 Z
           M 1498.00,515.00
           C 1498.00,515.00 1477.00,515.00 1477.00,515.00
             1477.00,515.00 1477.00,517.00 1477.00,517.00
             1477.00,517.00 1495.00,517.00 1495.00,517.00
             1495.00,517.00 1481.00,546.00 1481.00,546.00
             1485.65,544.37 1486.08,541.12 1488.31,537.00
             1491.99,530.19 1497.17,522.80 1498.00,515.00 Z
           M 1069.00,609.00
           C 1073.47,607.28 1075.85,602.65 1072.26,598.65
             1068.27,594.20 1058.99,595.25 1056.00,600.21
             1060.41,599.01 1065.89,596.57 1069.67,600.21
             1071.05,601.84 1071.40,603.10 1070.95,605.00
             1070.68,606.12 1069.56,607.96 1069.00,609.00 Z
           M 1069.00,609.00
           C 1069.00,609.00 1063.00,610.00 1063.00,610.00
             1063.00,610.00 1063.00,612.00 1063.00,612.00
             1074.09,613.28 1075.01,622.10 1067.96,625.82
             1063.86,627.99 1059.16,625.94 1055.00,625.00
             1059.02,631.39 1071.44,630.14 1074.26,622.98
             1077.11,615.76 1071.89,614.06 1069.00,609.00 Z
           M 1538.00,653.00
           C 1539.40,649.61 1542.34,645.73 1541.53,642.02
             1539.93,634.77 1527.56,634.16 1524.18,640.13
             1521.59,644.69 1525.22,648.94 1527.00,653.00
             1537.86,650.89 1544.34,660.16 1536.89,665.26
             1531.33,669.06 1525.49,663.30 1524.82,660.00
             1524.34,657.65 1525.98,655.04 1527.00,653.00
             1519.02,657.26 1521.41,667.52 1530.00,668.79
             1540.99,670.40 1548.37,658.55 1538.00,653.00 Z
           M 1529.06,639.03
           C 1532.33,637.99 1534.97,637.78 1537.69,640.43
             1541.09,643.75 1539.46,649.04 1534.98,650.30
             1530.99,651.42 1520.29,645.88 1529.06,639.03 Z
           M 823.00,916.00
           C 823.00,916.00 848.00,916.00 848.00,916.00
             850.35,916.00 856.92,915.74 858.76,916.60
             861.56,917.90 861.21,920.42 861.13,923.00
             859.84,961.21 846.11,1001.00 822.20,1031.00
             813.33,1042.13 806.53,1048.06 797.02,1058.00
             794.61,1060.52 789.48,1066.02 795.15,1068.40
             799.04,1070.03 803.19,1067.23 806.00,1064.81
             810.78,1060.69 823.07,1048.00 827.25,1043.00
             850.32,1015.42 864.51,984.22 871.20,949.00
             871.20,949.00 873.83,928.00 873.83,928.00
             874.14,924.79 873.55,920.93 876.31,918.60
             878.56,916.71 882.23,917.01 885.00,917.00
             888.68,916.99 902.96,917.95 904.98,915.40
             906.47,913.51 906.03,904.72 906.00,902.00
             906.00,902.00 905.17,893.00 905.17,893.00
             902.47,865.16 895.80,838.16 883.25,813.00
             870.69,787.82 854.69,764.37 834.00,745.09
             813.82,726.29 791.24,711.02 766.00,699.86
             745.94,690.99 710.85,681.26 689.00,681.00
             689.00,681.00 670.00,680.01 670.00,680.01
             670.00,680.01 661.00,680.91 661.00,680.91
             661.00,680.91 634.00,683.27 634.00,683.27
             588.49,690.30 547.40,711.01 513.00,741.28
             491.53,760.18 473.00,786.48 460.25,812.00
             444.17,844.18 437.00,880.24 437.00,916.00
             437.00,916.00 458.00,916.00 458.00,916.00
             460.54,916.01 464.48,915.68 466.40,917.60
             468.46,919.66 467.90,924.21 468.17,927.00
             468.17,927.00 471.00,949.00 471.00,949.00
             478.06,985.07 491.74,1015.93 515.87,1044.00
             524.40,1053.92 533.69,1063.27 544.00,1071.34
             546.99,1073.68 551.99,1078.17 555.98,1077.38
             560.57,1076.48 562.84,1072.14 559.67,1068.17
             559.67,1068.17 549.00,1058.83 549.00,1058.83
             542.93,1053.35 536.65,1047.07 531.17,1041.00
             508.32,1015.70 493.34,983.32 486.80,950.00
             485.35,942.59 484.04,933.52 484.00,926.00
             483.99,923.86 483.39,918.96 484.89,917.43
             486.60,915.70 490.71,916.00 493.00,916.00
             493.00,916.00 520.00,916.00 520.00,916.00
             520.00,916.00 518.98,903.60 518.98,903.60
             518.98,903.60 510.00,901.04 510.00,901.04
             510.00,901.04 499.00,901.04 499.00,901.04
             499.00,901.04 485.00,900.00 485.00,900.00
             485.14,884.79 492.09,861.23 497.80,847.00
             499.21,843.47 504.77,830.61 507.10,828.50
             509.49,826.34 512.65,828.56 515.00,829.78
             521.42,833.13 526.67,837.17 530.77,828.00
             534.59,819.45 526.07,817.67 517.00,810.00
             517.00,810.00 532.17,792.00 532.17,792.00
             541.86,781.27 560.19,764.58 573.00,758.00
             574.45,760.98 578.42,768.44 581.21,769.96
             584.99,772.04 592.88,768.07 593.58,763.90
             594.13,760.62 589.48,752.43 588.00,749.00
             588.00,749.00 600.00,743.43 600.00,743.43
             612.79,737.96 629.27,733.39 643.00,731.20
             647.32,730.35 660.31,727.31 662.98,731.20
             664.21,733.16 664.00,736.81 664.00,739.00
             664.00,739.00 664.00,759.00 664.00,759.00
             666.66,759.26 676.34,759.56 678.26,758.01
             680.38,756.30 680.00,751.50 680.00,749.00
             680.00,749.00 680.00,729.00 680.00,729.00
             698.49,729.00 716.55,733.50 734.00,739.33
             737.70,740.57 750.33,745.18 752.58,747.64
             755.97,751.33 750.49,757.00 749.69,761.00
             748.80,765.42 752.44,767.81 756.00,769.46
             763.73,773.06 768.09,762.69 771.00,757.00
             787.26,767.84 799.60,777.34 812.83,792.00
             815.17,794.59 824.21,805.25 825.04,807.99
             826.14,811.64 822.58,813.58 820.00,815.31
             815.01,818.65 810.09,820.98 813.23,828.00
             813.73,829.12 814.75,830.81 815.61,831.68
             820.40,836.51 832.09,827.69 838.00,826.00
             838.00,826.00 846.40,845.00 846.40,845.00
             852.74,860.67 859.95,883.10 860.00,900.00
             860.00,900.00 823.00,903.00 823.00,903.00
             823.00,903.00 823.00,916.00 823.00,916.00 Z
           M 3316.00,918.00
           C 3316.00,918.00 3316.00,927.00 3316.00,927.00
             3315.94,963.39 3296.09,1009.33 3273.08,1037.00
             3265.73,1045.84 3252.88,1058.59 3244.00,1065.92
             3240.79,1068.57 3233.59,1072.72 3235.62,1077.78
             3236.86,1080.88 3240.31,1080.97 3243.00,1079.90
             3247.10,1078.26 3254.45,1071.37 3258.00,1068.28
             3276.70,1052.01 3292.39,1031.02 3303.74,1009.00
             3313.93,989.24 3322.07,962.19 3324.00,940.00
             3324.31,936.49 3324.88,921.32 3326.60,919.60
             3328.52,917.68 3332.46,918.01 3335.00,918.00
             3335.00,918.00 3348.00,918.00 3348.00,918.00
             3350.30,918.00 3354.41,918.38 3355.98,916.40
             3357.43,914.57 3357.01,907.52 3357.00,905.00
             3357.00,905.00 3354.87,883.00 3354.87,883.00
             3349.80,846.56 3336.37,812.18 3315.28,782.00
             3298.61,758.14 3275.50,735.47 3251.00,719.69
             3152.96,656.54 3022.96,673.89 2945.17,761.00
             2929.84,778.17 2914.50,802.78 2905.43,824.00
             2892.74,853.67 2887.00,885.86 2887.00,918.00
             2887.00,918.00 2909.00,918.00 2909.00,918.00
             2911.77,918.01 2915.44,917.71 2917.69,919.60
             2920.44,921.91 2919.93,925.79 2920.01,929.00
             2920.01,929.00 2921.87,947.00 2921.87,947.00
             2926.26,978.53 2939.47,1011.44 2958.48,1037.00
             2966.98,1048.43 2976.43,1058.66 2987.00,1068.17
             2989.81,1070.69 2994.62,1076.51 2998.85,1075.16
             3005.31,1073.09 2999.65,1065.74 2996.98,1063.28
             2984.70,1051.97 2974.20,1041.67 2964.43,1028.00
             2947.48,1004.29 2935.43,976.80 2930.59,948.00
             2929.30,940.37 2927.86,932.77 2928.00,925.00
             2928.05,922.48 2927.95,919.60 2930.31,918.02
             2932.51,916.56 2940.12,916.99 2943.00,917.00
             2954.39,917.05 2956.75,919.37 2970.00,917.00
             2970.00,917.00 2970.00,904.00 2970.00,904.00
             2970.00,904.00 2941.00,902.01 2941.00,902.01
             2937.99,901.94 2931.93,902.59 2929.86,900.11
             2927.73,897.56 2930.60,884.55 2931.26,881.00
             2933.56,868.67 2939.09,851.39 2944.31,840.00
             2944.31,840.00 2952.00,824.00 2952.00,824.00
             2952.00,824.00 2972.00,834.30 2972.00,834.30
             2978.36,835.66 2983.12,826.11 2980.96,822.38
             2979.18,819.29 2965.70,811.41 2962.00,810.00
             2969.02,795.67 2987.68,778.17 3000.00,767.92
             3005.80,763.10 3013.86,756.27 3021.00,754.00
             3022.52,758.10 3030.07,772.15 3034.09,773.30
             3036.40,773.95 3039.05,772.59 3040.94,771.37
             3048.63,766.41 3042.44,758.08 3039.22,752.00
             3038.25,750.17 3035.78,747.01 3036.95,744.94
             3038.45,742.26 3051.59,737.57 3055.00,736.32
             3073.83,729.42 3093.91,725.00 3114.00,725.00
             3114.00,725.00 3115.00,743.00 3115.00,743.00
             3115.00,743.00 3115.00,757.00 3115.00,757.00
             3115.02,759.35 3114.81,762.61 3116.60,764.40
             3119.39,767.19 3127.39,766.56 3129.13,762.77
             3130.34,760.15 3130.00,752.22 3130.00,749.00
             3130.00,749.00 3131.00,725.00 3131.00,725.00
             3152.85,725.00 3174.80,730.42 3195.00,738.60
             3195.00,738.60 3209.00,745.00 3209.00,745.00
             3206.60,750.37 3198.94,760.84 3199.25,765.96
             3199.52,770.44 3207.46,775.39 3211.48,772.99
             3214.85,770.98 3221.74,757.97 3223.00,754.00
             3229.73,756.15 3236.40,762.02 3242.00,766.35
             3254.63,776.13 3275.02,795.75 3282.00,810.00
             3278.36,811.78 3264.58,820.00 3263.13,823.18
             3261.16,827.47 3266.42,834.70 3271.00,834.63
             3274.78,834.58 3287.86,826.21 3292.00,824.00
             3292.00,824.00 3298.69,838.00 3298.69,838.00
             3304.88,851.47 3309.39,865.54 3312.58,880.00
             3312.58,880.00 3315.03,895.00 3315.03,895.00
             3315.18,897.08 3315.51,899.57 3313.60,900.98
             3311.81,902.29 3307.24,901.99 3305.00,902.00
             3305.00,902.00 3274.00,904.00 3274.00,904.00
             3274.00,904.00 3275.02,916.40 3275.02,916.40
             3275.02,916.40 3282.00,918.00 3282.00,918.00
             3282.00,918.00 3316.00,918.00 3316.00,918.00 Z
           M 1679.00,725.00
           C 1672.49,727.10 1668.10,736.53 1664.28,742.00
             1664.28,742.00 1632.00,791.00 1632.00,791.00
             1632.00,791.00 1507.32,987.00 1507.32,987.00
             1507.32,987.00 1473.20,1042.00 1473.20,1042.00
             1469.65,1047.95 1461.82,1058.13 1463.00,1065.00
             1468.30,1061.63 1476.16,1048.73 1480.00,1043.00
             1480.00,1043.00 1512.00,994.00 1512.00,994.00
             1512.00,994.00 1629.41,810.00 1629.41,810.00
             1629.41,810.00 1665.20,752.00 1665.20,752.00
             1669.29,745.18 1678.17,732.40 1679.00,725.00 Z
           M 2337.00,1068.00
           C 2335.97,1060.50 2327.33,1047.83 2323.20,1041.00
             2323.20,1041.00 2290.05,987.00 2290.05,987.00
             2251.38,925.36 2213.04,863.54 2172.67,803.00
             2172.67,803.00 2135.00,746.00 2135.00,746.00
             2130.89,739.83 2124.03,727.17 2117.00,725.00
             2117.91,733.08 2126.79,745.82 2131.19,753.00
             2131.19,753.00 2164.32,807.00 2164.32,807.00
             2164.32,807.00 2177.05,828.00 2177.05,828.00
             2177.05,828.00 2281.00,990.00 2281.00,990.00
             2281.00,990.00 2319.57,1048.00 2319.57,1048.00
             2324.04,1054.44 2329.23,1065.61 2337.00,1068.00 Z
           M 1073.00,755.00
           C 1079.97,750.69 1093.62,738.52 1086.15,729.50
             1082.87,725.53 1070.47,723.42 1069.00,732.00
             1073.02,731.38 1082.25,728.19 1084.54,733.56
             1085.12,734.91 1083.94,739.42 1084.00,742.00
             1084.00,742.00 1071.15,752.59 1071.15,752.59
             1071.15,752.59 1069.17,757.42 1069.17,757.42
             1069.17,757.42 1074.00,759.78 1074.00,759.78
             1074.00,759.78 1090.00,759.78 1090.00,759.78
             1090.00,759.78 1090.00,756.00 1090.00,756.00
             1090.00,756.00 1073.00,755.00 1073.00,755.00 Z
           M 1694.00,736.00
           C 1686.35,738.27 1682.02,748.71 1677.58,755.00
             1677.58,755.00 1640.67,811.00 1640.67,811.00
             1640.67,811.00 1576.95,910.00 1576.95,910.00
             1576.95,910.00 1529.80,985.00 1529.80,985.00
             1529.80,985.00 1500.40,1033.00 1500.40,1033.00
             1496.26,1039.90 1488.86,1050.58 1487.00,1057.93
             1488.54,1058.19 1489.16,1058.63 1490.82,1057.93
             1493.77,1056.51 1500.47,1045.26 1502.67,1042.00
             1502.67,1042.00 1539.33,987.00 1539.33,987.00
             1539.33,987.00 1563.69,949.00 1563.69,949.00
             1563.69,949.00 1649.68,813.00 1649.68,813.00
             1649.68,813.00 1682.28,760.00 1682.28,760.00
             1686.48,752.62 1693.21,744.47 1694.00,736.00 Z
           M 2299.00,1044.00
           C 2298.23,1037.21 2292.10,1029.13 2288.58,1023.00
             2288.58,1023.00 2259.42,976.00 2259.42,976.00
             2224.54,919.98 2189.61,863.91 2153.00,809.00
             2153.00,809.00 2119.66,758.00 2119.66,758.00
             2115.88,752.46 2110.36,741.96 2104.00,740.00
             2104.77,746.82 2111.42,755.77 2115.00,762.00
             2115.00,762.00 2144.58,810.00 2144.58,810.00
             2179.07,865.38 2213.81,920.71 2250.00,975.00
             2250.00,975.00 2283.34,1026.00 2283.34,1026.00
             2287.12,1031.54 2292.64,1042.04 2299.00,1044.00 Z
           M 1161.00,831.00
           C 1161.00,831.00 1152.00,838.00 1152.00,838.00
             1160.67,838.71 1159.05,843.86 1159.00,851.00
             1158.98,853.35 1159.19,856.61 1157.40,858.40
             1155.90,859.90 1153.94,859.84 1152.00,860.00
             1152.00,860.00 1152.00,862.00 1152.00,862.00
             1152.00,862.00 1168.00,862.00 1168.00,862.00
             1168.00,862.00 1168.00,860.00 1168.00,860.00
             1168.00,860.00 1162.02,857.69 1162.02,857.69
             1162.02,857.69 1161.00,851.00 1161.00,851.00
             1161.00,851.00 1161.00,831.00 1161.00,831.00 Z
           M 1284.10,873.60
           C 1279.34,876.56 1279.07,879.72 1279.00,885.00
             1278.88,894.07 1276.52,905.99 1289.00,905.99
             1290.53,905.99 1292.55,905.95 1293.98,905.40
             1300.43,902.92 1300.06,893.71 1300.00,888.00
             1299.87,876.44 1296.61,870.82 1284.10,873.60 Z
           M 1287.05,876.90
           C 1295.90,875.79 1297.32,883.97 1296.91,891.00
             1296.69,894.77 1295.97,900.68 1291.89,902.17
             1287.62,903.72 1283.78,901.08 1282.57,896.98
             1281.46,893.23 1281.51,882.41 1283.85,879.24
             1285.08,877.58 1285.47,877.75 1287.05,876.90 Z
           M 2308.00,1077.00
           C 2301.98,1075.29 2292.50,1076.00 2286.00,1075.96
             2286.00,1075.96 2273.00,1075.96 2273.00,1075.96
             2273.00,1075.96 2261.00,1075.00 2261.00,1075.00
             2261.00,1075.00 2154.00,1075.00 2154.00,1075.00
             2154.00,1075.00 2137.00,1074.00 2137.00,1074.00
             2137.00,1074.00 1811.00,1074.00 1811.00,1074.00
             1811.00,1074.00 1631.00,1074.00 1631.00,1074.00
             1631.00,1074.00 1616.00,1075.00 1616.00,1075.00
             1616.00,1075.00 1526.00,1075.00 1526.00,1075.00
             1526.00,1075.00 1504.00,1075.00 1504.00,1075.00
             1499.14,1075.00 1495.22,1074.27 1491.00,1077.00
             1497.93,1078.68 1509.50,1078.00 1517.00,1078.04
             1517.00,1078.04 1533.00,1078.04 1533.00,1078.04
             1533.00,1078.04 1545.00,1079.00 1545.00,1079.00
             1545.00,1079.00 1634.00,1079.00 1634.00,1079.00
             1634.00,1079.00 1649.00,1080.00 1649.00,1080.00
             1649.00,1080.00 1734.00,1080.00 1734.00,1080.00
             1734.00,1080.00 1903.00,1080.00 1903.00,1080.00
             1903.00,1080.00 2071.00,1080.00 2071.00,1080.00
             2071.00,1080.00 2156.00,1080.00 2156.00,1080.00
             2156.00,1080.00 2171.00,1079.00 2171.00,1079.00
             2171.00,1079.00 2271.00,1079.00 2271.00,1079.00
             2271.00,1079.00 2296.00,1079.00 2296.00,1079.00
             2300.58,1079.00 2304.20,1079.80 2308.00,1077.00 Z
           M 2316.00,1145.00
           C 2316.00,1145.00 2316.00,1129.00 2316.00,1129.00
             2316.00,1129.00 2316.00,1112.00 2316.00,1112.00
             2315.96,1109.86 2316.13,1106.62 2313.70,1105.66
             2308.62,1103.63 2309.01,1111.28 2309.00,1114.00
             2309.00,1114.00 2309.00,1141.00 2309.00,1141.00
             2309.00,1142.99 2308.77,1146.81 2310.02,1148.40
             2311.59,1150.38 2315.70,1150.00 2318.00,1149.84
             2318.00,1149.84 2334.85,1149.84 2334.85,1149.84
             2337.63,1148.87 2337.85,1146.67 2335.67,1145.59
             2334.21,1144.87 2330.69,1145.00 2329.00,1145.00
             2329.00,1145.00 2316.00,1145.00 2316.00,1145.00 Z
           M 1469.00,1149.00
           C 1469.00,1144.90 1468.03,1136.36 1471.31,1133.60
             1475.91,1129.73 1483.05,1135.37 1489.57,1126.96
             1494.18,1121.01 1492.67,1109.71 1485.00,1106.74
             1481.87,1105.53 1468.21,1106.00 1464.00,1106.00
             1464.00,1106.00 1464.00,1149.00 1464.00,1149.00
             1464.00,1149.00 1469.00,1149.00 1469.00,1149.00 Z
           M 1689.00,1130.00
           C 1700.64,1123.69 1698.37,1110.59 1691.96,1107.17
             1688.41,1105.28 1673.80,1106.00 1669.00,1106.00
             1669.00,1106.00 1668.00,1122.00 1668.00,1122.00
             1668.00,1122.00 1668.00,1142.00 1668.00,1142.00
             1668.02,1144.31 1667.66,1148.29 1670.30,1149.34
             1672.98,1150.42 1674.46,1148.28 1674.93,1145.94
             1674.93,1145.94 1674.93,1132.00 1674.93,1132.00
             1674.93,1132.00 1680.96,1132.60 1680.96,1132.60
             1680.96,1132.60 1698.09,1149.40 1698.09,1149.40
             1698.09,1149.40 1704.00,1150.00 1704.00,1150.00
             1704.00,1150.00 1689.00,1130.00 1689.00,1130.00 Z
           M 1908.00,1138.00
           C 1900.76,1133.78 1894.78,1111.26 1888.51,1107.02
             1886.54,1105.70 1882.37,1106.00 1880.00,1106.00
             1880.00,1106.00 1880.00,1149.00 1880.00,1149.00
             1880.00,1149.00 1884.00,1149.00 1884.00,1149.00
             1884.00,1149.00 1885.00,1113.00 1885.00,1113.00
             1888.51,1116.96 1895.77,1130.62 1898.59,1136.00
             1903.65,1145.66 1903.29,1148.87 1913.00,1149.00
             1913.00,1149.00 1913.00,1106.00 1913.00,1106.00
             1913.00,1106.00 1908.00,1106.00 1908.00,1106.00
             1908.00,1106.00 1908.00,1138.00 1908.00,1138.00 Z
           M 2094.00,1149.00
           C 2102.09,1149.00 2115.22,1150.26 2121.96,1145.86
             2133.85,1138.10 2133.64,1115.57 2121.00,1108.56
             2114.46,1104.93 2101.67,1106.00 2094.00,1106.00
             2094.00,1106.00 2094.00,1149.00 2094.00,1149.00 Z
           M 1471.31,1110.11
           C 1484.19,1106.71 1492.41,1120.70 1480.96,1127.07
             1478.74,1128.02 1472.65,1129.15 1470.60,1127.07
             1468.48,1125.43 1468.49,1114.67 1469.60,1112.15
             1470.39,1110.35 1470.53,1110.90 1471.31,1110.11 Z
           M 1675.02,1127.00
           C 1675.00,1124.02 1673.94,1113.02 1675.02,1111.32
             1676.62,1108.86 1679.55,1109.37 1682.00,1109.76
             1693.93,1111.70 1692.48,1121.81 1687.73,1124.83
             1686.38,1125.69 1684.55,1125.96 1683.00,1126.24
             1679.71,1126.84 1678.30,1126.93 1675.02,1127.00 Z
           M 2100.60,1109.94
           C 2103.88,1108.81 2104.62,1109.44 2108.00,1109.94
             2112.92,1110.43 2116.00,1110.63 2119.90,1114.22
             2126.98,1120.75 2126.98,1134.25 2119.90,1140.78
             2115.61,1144.73 2111.42,1144.77 2106.00,1145.42
             2104.01,1145.66 2101.48,1146.21 2100.02,1144.40
             2098.97,1143.09 2099.03,1140.60 2099.00,1139.00
             2099.00,1139.00 2099.00,1118.00 2099.00,1118.00
             2099.01,1114.51 2098.51,1112.93 2100.60,1109.94 Z" />
</svg>
