<?xml version="1.0" encoding="UTF-8" standalone="no"?>
<!DOCTYPE svg PUBLIC "-//W3C//DTD SVG 20010904//EN"
              "http://www.w3.org/TR/2001/REC-SVG-20010904/DTD/svg10.dtd">

<svg xmlns="http://www.w3.org/2000/svg"
     width="52.9101mm" height="52.9101mm"
     viewBox="0 0 150 150">
  <path id="Selection"
        fill="none" stroke="black" stroke-width="1"
        d="M 122.00,50.05
           C 122.00,50.05 122.00,74.00 122.00,74.00
             122.12,85.48 122.41,94.78 109.00,99.15
             106.03,100.12 103.08,100.00 100.00,100.00
             100.00,100.00 36.00,100.00 36.00,100.00
             34.14,100.00 30.21,100.25 28.78,99.01
             26.95,97.42 28.00,89.66 28.00,87.00
             28.00,87.00 28.00,69.00 28.00,69.00
             28.12,59.04 33.87,51.75 44.00,50.05
             44.00,50.05 58.00,50.05 58.00,50.05
             58.00,50.05 77.00,50.05 77.00,50.05
             77.00,50.05 122.00,50.05 122.00,50.05 Z
           M 54.00,63.00
           C 51.46,63.00 44.45,62.56 42.60,64.02
             40.17,65.94 40.98,75.84 41.00,79.00
             41.02,81.13 40.74,84.51 42.60,85.98
             44.45,87.44 51.46,87.00 54.00,87.00
             51.89,81.62 49.35,84.83 46.62,82.25
             44.74,80.47 45.22,76.92 50.02,76.07
             50.02,76.07 54.00,76.07 54.00,76.07
             50.89,71.34 47.72,73.90 46.17,70.70
             44.81,67.92 47.81,66.50 50.02,66.07
             50.02,66.07 54.00,66.07 54.00,66.07
             54.00,66.07 54.00,63.00 54.00,63.00 Z
           M 79.00,67.11
           C 76.70,60.44 67.99,62.68 64.58,67.11
             61.24,71.26 61.06,79.58 64.58,83.80
             68.12,87.50 75.88,88.66 79.00,83.80
             75.99,83.99 72.71,84.27 70.13,82.40
             64.87,78.58 64.94,70.18 71.04,67.11
             73.54,66.00 76.37,66.68 79.00,67.11 Z
           M 94.00,63.43
           C 81.43,68.50 85.85,90.66 101.00,86.57
             110.34,84.05 110.68,71.49 105.70,66.23
             102.38,62.71 98.41,62.77 94.00,63.43 Z" />
</svg>
