<?xml version="1.0" encoding="UTF-8" standalone="no"?>
<!DOCTYPE svg PUBLIC "-//W3C//DTD SVG 20010904//EN"
              "http://www.w3.org/TR/2001/REC-SVG-20010904/DTD/svg10.dtd">

<svg xmlns="http://www.w3.org/2000/svg"
     width="52.9101mm" height="52.9101mm"
     viewBox="0 0 150 150">
  <path id="Selection"
        fill="#EF1C23" stroke="black" stroke-width="0"
        d="M 99.00,79.00
           C 95.10,79.00 84.24,77.87 82.03,81.31
             80.13,84.26 82.18,87.26 83.12,90.00
             84.96,95.33 84.09,101.63 77.98,103.63
             76.55,103.93 74.48,104.02 73.00,103.63
             67.77,102.90 65.83,98.95 66.07,94.00
             66.37,87.77 68.98,89.93 69.00,79.00
             69.00,79.00 69.00,44.00 69.00,44.00
             69.01,39.71 68.55,33.47 74.04,32.36
             75.47,32.07 77.31,32.33 78.52,33.18
             81.36,35.17 80.42,39.35 82.02,41.69
             83.79,44.28 87.23,43.98 90.00,44.00
             91.96,44.01 101.14,43.30 98.83,47.74
             97.06,51.15 84.79,49.81 81.00,50.00
             81.00,50.00 81.00,58.00 81.00,58.00
             81.00,58.00 91.00,58.00 91.00,58.00
             92.87,58.03 101.24,58.47 98.83,62.44
             96.52,66.26 84.35,61.11 81.60,67.23
             80.92,68.72 81.02,71.35 81.00,73.00
             84.46,73.00 96.14,72.11 98.23,74.60
             99.33,75.92 99.03,77.45 99.00,79.00 Z
           M 28.00,101.00
           C 28.01,99.34 27.86,95.85 28.57,94.43
             31.54,88.51 43.77,94.58 48.00,95.03
             51.90,95.44 53.07,93.39 60.00,93.00
             59.98,94.68 60.08,97.25 59.40,98.78
             58.51,100.78 56.93,101.52 54.98,102.24
             45.29,105.80 40.91,99.85 33.00,100.47
             33.00,100.47 28.00,101.00 28.00,101.00 Z
           M 90.00,93.00
           C 90.00,93.00 102.00,94.89 102.00,94.89
             106.98,94.38 119.40,87.70 121.84,96.06
             122.03,97.31 121.98,99.65 121.84,101.00
             121.84,101.00 114.00,100.41 114.00,100.41
             108.13,100.99 94.23,106.96 90.60,98.78
             89.92,97.25 90.02,94.68 90.00,93.00 Z
           M 32.00,116.00
           C 32.02,109.31 31.97,106.43 40.00,107.11
             45.36,107.56 47.30,110.30 52.00,109.57
             55.49,109.03 57.21,106.94 63.00,107.05
             68.87,107.17 71.41,109.61 75.00,109.58
             79.01,109.55 82.53,106.20 88.00,106.64
             91.90,106.95 95.04,109.13 98.00,109.52
             102.73,110.14 115.60,103.17 117.85,110.23
             118.06,111.42 118.00,114.64 117.85,116.00
             104.45,114.94 107.44,118.19 99.00,117.94
             93.47,117.78 90.90,115.29 87.00,115.39
             83.01,115.50 81.51,117.97 75.00,117.97
             68.47,117.97 66.82,115.42 63.00,115.42
             58.87,115.42 56.91,118.54 49.00,117.91
             39.97,117.19 45.01,114.30 32.00,116.00 Z" />
</svg>
