<?xml version="1.0" encoding="UTF-8" standalone="no"?>
<!DOCTYPE svg PUBLIC "-//W3C//DTD SVG 20010904//EN"
              "http://www.w3.org/TR/2001/REC-SVG-20010904/DTD/svg10.dtd">

<svg xmlns="http://www.w3.org/2000/svg"
     width="52.9101mm" height="52.9101mm"
     viewBox="0 0 150 150">
  <path id="Selection"
        fill="none" stroke="black" stroke-width="1"
        d="M 71.02,28.74
           C 82.42,25.97 84.69,33.47 89.58,42.00
             89.58,42.00 114.40,84.00 114.40,84.00
             116.55,87.64 125.06,100.36 124.19,103.87
             123.06,108.41 115.58,107.99 112.00,108.00
             112.00,108.00 37.00,108.00 37.00,108.00
             32.90,107.99 26.59,108.63 26.25,102.96
             25.95,98.06 32.96,88.50 35.58,84.00
             35.58,84.00 48.14,63.00 48.14,63.00
             48.14,63.00 59.18,44.00 59.18,44.00
             62.62,38.64 65.28,31.89 71.02,28.74 Z
           M 117.00,102.00
           C 115.52,95.77 109.63,86.73 106.20,81.00
             106.20,81.00 86.60,48.00 86.60,48.00
             84.39,44.31 79.18,32.26 74.04,34.17
             70.54,35.47 63.79,47.39 61.72,51.00
             61.72,51.00 41.78,85.00 41.78,85.00
             38.74,90.26 35.11,95.28 33.00,101.00
             33.00,101.00 62.00,102.00 62.00,102.00
             62.00,102.00 117.00,102.00 117.00,102.00 Z
           M 44.00,96.00
           C 44.00,96.00 65.86,56.00 65.86,56.00
             67.38,53.27 71.69,44.20 74.99,44.20
             78.00,44.20 82.50,53.46 83.99,56.00
             83.99,56.00 106.00,96.00 106.00,96.00
             99.84,97.75 87.86,97.00 81.00,97.00
             72.72,97.00 50.67,97.89 44.00,96.00 Z
           M 76.00,55.00
           C 76.00,55.00 74.00,55.00 74.00,55.00
             74.00,55.00 54.00,91.00 54.00,91.00
             54.00,91.00 95.00,91.00 95.00,91.00
             93.30,83.85 80.42,62.37 76.00,55.00 Z" />
</svg>
