<?xml version="1.0" encoding="UTF-8" standalone="no"?>
<!DOCTYPE svg PUBLIC "-//W3C//DTD SVG 20010904//EN"
              "http://www.w3.org/TR/2001/REC-SVG-20010904/DTD/svg10.dtd">

<svg xmlns="http://www.w3.org/2000/svg"
     width="52.9101mm" height="52.9101mm"
     viewBox="0 0 150 150">
  <path id="Selection"
        fill="none" stroke="black" stroke-width="1"
        d="M 72.00,28.74
           C 82.51,26.32 84.66,34.55 89.01,42.00
             89.01,42.00 113.42,83.00 113.42,83.00
             115.37,86.36 122.66,98.09 123.30,101.00
             124.69,107.40 118.23,106.99 114.00,107.00
             114.00,107.00 36.00,107.00 36.00,107.00
             32.25,106.99 26.15,107.49 26.42,101.98
             26.57,98.90 34.57,86.39 36.60,83.00
             36.60,83.00 58.60,46.00 58.60,46.00
             62.42,39.63 65.22,32.35 72.00,28.74 Z
           M 73.11,46.62
           C 71.60,47.56 71.23,47.36 70.17,49.15
             68.35,52.22 68.95,65.77 69.00,70.00
             69.07,74.54 70.52,81.52 76.94,79.36
             81.43,77.85 80.99,72.79 81.00,69.00
             81.00,69.00 81.00,59.00 81.00,59.00
             81.00,52.80 81.95,45.35 73.11,46.62 Z
           M 73.06,85.62
           C 65.32,90.29 71.08,98.17 76.89,96.07
             82.46,94.05 82.38,84.31 73.06,85.62 Z" />
</svg>
