<?xml version="1.0" encoding="UTF-8" standalone="no"?>
<!DOCTYPE svg PUBLIC "-//W3C//DTD SVG 20010904//EN"
              "http://www.w3.org/TR/2001/REC-SVG-20010904/DTD/svg10.dtd">

<svg xmlns="http://www.w3.org/2000/svg"
     width="52.9101mm" height="52.9101mm"
     viewBox="0 0 150 150">
  <path id="Selection"
        fill="none" stroke="black" stroke-width="1"
        d="M 18.00,69.00
           C 18.62,66.26 21.44,55.39 23.56,54.31
             25.18,53.15 27.36,54.03 29.00,54.31
             31.22,55.15 41.17,57.94 42.41,58.98
             44.16,60.45 43.96,62.83 45.59,64.40
             49.09,67.76 52.90,65.28 55.00,62.00
             49.20,60.98 49.30,56.86 51.60,55.02
             53.22,53.73 57.91,53.97 60.00,54.00
             69.20,54.17 68.68,60.82 62.00,62.00
             65.82,68.07 68.91,64.07 74.00,65.78
             77.35,66.90 79.50,70.21 83.00,70.73
             85.18,71.06 93.30,68.55 96.00,67.87
             96.00,67.87 123.00,62.00 123.00,62.00
             123.00,62.00 128.00,67.00 128.00,67.00
             122.79,77.59 119.92,66.58 111.04,73.43
             105.88,77.40 95.24,93.33 90.00,95.98
             88.02,96.98 86.14,96.96 84.00,97.00
             84.00,97.00 37.00,97.00 37.00,97.00
             37.00,92.54 38.08,78.50 35.40,75.51
             33.40,73.27 21.61,70.35 18.00,69.00 Z
           M 29.00,62.00
           C 29.06,66.03 32.97,66.09 36.00,65.00
             36.00,65.00 29.00,62.00 29.00,62.00 Z
           M 97.00,76.00
           C 97.00,76.00 80.42,78.84 80.42,78.84
             77.85,78.29 75.45,75.23 73.00,73.74
             69.70,71.72 66.70,72.01 63.00,72.00
             59.75,71.99 47.71,71.35 45.60,73.02
             43.26,74.87 43.26,87.13 45.60,88.98
             47.19,90.23 51.01,90.00 53.00,90.00
             53.00,90.00 75.00,90.00 75.00,90.00
             78.17,90.00 83.23,90.37 86.00,88.98
             90.46,86.74 94.99,80.47 97.00,76.00 Z" />
</svg>
