<?xml version="1.0" encoding="UTF-8" standalone="no"?>
<!DOCTYPE svg PUBLIC "-//W3C//DTD SVG 20010904//EN"
              "http://www.w3.org/TR/2001/REC-SVG-20010904/DTD/svg10.dtd">

<svg xmlns="http://www.w3.org/2000/svg"
     width="52.9101mm" height="52.9101mm"
     viewBox="0 0 150 150">
  <path id="Selection"
        fill="none" stroke="black" stroke-width="1"
        d="M 68.00,32.47
           C 82.59,30.43 95.53,34.65 104.37,47.00
             119.13,67.63 107.00,97.85 82.00,102.53
             45.06,109.46 23.87,63.37 53.00,39.33
             57.52,35.60 62.38,33.79 68.00,32.47 Z
           M 40.00,100.00
           C 40.00,100.00 32.98,89.00 32.98,89.00
             26.86,77.10 26.50,62.43 31.23,50.00
             32.52,46.62 36.98,37.52 40.30,36.17
             43.24,34.96 46.28,38.05 45.96,41.00
             45.73,43.18 42.15,47.72 40.90,50.00
             38.29,54.77 35.77,63.56 36.18,69.00
             36.51,73.29 38.41,80.19 40.40,84.00
             40.40,84.00 45.77,93.00 45.77,93.00
             46.96,97.34 43.41,98.98 40.00,100.00 Z
           M 107.06,36.34
           C 112.97,36.61 116.49,44.00 118.53,49.00
             123.53,61.28 123.12,75.99 117.51,88.00
             116.08,91.07 112.41,97.76 108.99,98.66
             106.04,99.44 103.23,96.50 104.28,93.00
             105.01,90.57 108.76,86.77 111.07,81.00
             116.30,67.95 113.31,56.49 106.14,45.00
             103.62,40.97 102.74,39.20 107.06,36.34 Z
           M 68.00,39.34
           C 46.18,45.03 38.33,73.17 55.09,88.79
             62.27,95.48 72.53,97.35 82.00,95.53
             103.51,91.40 110.33,63.68 96.67,48.04
             89.12,39.39 78.75,38.09 68.00,39.34 Z
           M 58.00,50.13
           C 63.12,50.49 67.33,54.15 72.00,56.13
             72.00,56.13 88.37,60.98 88.37,60.98
             88.37,60.98 97.67,72.58 97.67,72.58
             103.16,79.30 89.98,89.40 87.83,89.39
             84.44,89.37 78.56,82.87 77.13,80.00
             76.38,78.48 76.29,76.78 75.25,75.34
             73.65,73.11 71.29,72.42 69.00,71.24
             64.67,69.02 62.38,66.40 59.00,63.00
             54.49,58.46 49.02,53.73 58.00,50.13 Z" />
</svg>
