<?xml version="1.0" encoding="UTF-8" standalone="no"?>
<!DOCTYPE svg PUBLIC "-//W3C//DTD SVG 20010904//EN"
              "http://www.w3.org/TR/2001/REC-SVG-20010904/DTD/svg10.dtd">

<svg xmlns="http://www.w3.org/2000/svg"
     width="7.11111in" height="7.11111in"
     viewBox="0 0 512 512">
  <path id="Selection #1"
        fill="none" stroke="black" stroke-width="1"
        d="M 366.00,183.00
           C 366.00,183.00 366.00,141.00 366.00,141.00
             366.01,137.53 365.81,134.21 367.45,131.01
             372.00,122.16 382.68,121.14 390.00,127.22
             390.00,127.22 415.00,152.00 415.00,152.00
             415.00,152.00 464.00,201.00 464.00,201.00
             464.00,201.00 498.00,235.00 498.00,235.00
             506.54,243.54 512.22,245.59 512.00,258.00
             511.84,266.73 504.84,271.16 499.00,277.00
             499.00,277.00 462.00,314.00 462.00,314.00
             462.00,314.00 415.00,361.00 415.00,361.00
             415.00,361.00 390.00,385.78 390.00,385.78
             379.17,394.77 366.19,387.91 366.00,374.00
             366.00,374.00 366.00,330.00 366.00,330.00
             366.00,330.00 287.00,330.00 287.00,330.00
             273.68,329.84 267.02,326.04 267.00,312.00
             267.00,312.00 267.00,201.00 267.00,201.00
             267.03,185.49 275.17,183.02 289.00,183.00
             289.00,183.00 366.00,183.00 366.00,183.00 Z" />
</svg>
