<?xml version="1.0" encoding="UTF-8" standalone="no"?>
<!DOCTYPE svg PUBLIC "-//W3C//DTD SVG 20010904//EN"
              "http://www.w3.org/TR/2001/REC-SVG-20010904/DTD/svg10.dtd">

<svg xmlns="http://www.w3.org/2000/svg"
     width="52.9101mm" height="52.9101mm"
     viewBox="0 0 150 150">
  <path id="Selection"
        fill="none" stroke="black" stroke-width="1"
        d="M 54.00,113.00
           C 51.12,117.58 45.39,120.57 41.10,115.71
             38.39,112.63 33.19,100.29 31.69,96.00
             28.88,87.92 26.96,76.48 28.46,68.00
             30.30,57.62 33.10,54.49 34.37,50.00
             35.89,44.60 33.74,37.96 36.74,34.43
             39.81,30.82 50.00,30.44 48.89,42.00
             48.37,47.37 44.59,50.55 41.93,55.00
             38.90,60.06 36.28,68.09 36.04,74.00
             35.90,77.39 36.23,80.71 37.04,84.00
             38.25,88.86 40.42,92.43 44.04,95.90
             54.92,106.31 70.21,104.06 84.00,104.00
             93.72,103.95 102.41,100.89 108.61,93.00
             116.53,82.92 114.70,67.73 109.18,57.00
             106.29,51.38 101.86,47.95 101.15,43.00
             100.41,37.89 101.81,32.21 108.00,32.21
             109.63,32.21 111.31,32.67 112.57,33.74
             116.60,37.16 113.99,44.18 115.63,50.00
             116.70,53.75 118.53,55.37 120.35,63.00
             123.52,76.35 121.80,87.36 116.80,100.00
             114.47,105.88 107.63,124.08 98.48,116.40
             97.37,115.47 96.75,114.20 96.00,113.00
             91.80,119.68 85.86,120.20 82.00,113.00
             77.77,119.73 72.23,119.73 68.00,113.00
             63.74,119.78 58.26,119.78 54.00,113.00 Z
           M 72.11,37.74
           C 75.13,37.06 77.99,36.76 80.26,39.43
             82.31,41.84 82.00,46.01 82.00,49.00
             82.00,49.00 82.00,68.00 82.00,68.00
             81.94,71.86 81.74,75.87 77.89,77.97
             73.43,80.42 69.45,77.44 68.20,72.98
             67.98,71.23 68.01,68.82 68.20,67.00
             67.98,62.54 67.48,44.03 68.74,41.11
             69.67,38.93 70.31,38.88 72.11,37.74 Z
           M 72.19,84.74
           C 82.85,82.26 84.12,93.59 77.89,96.65
             71.18,99.94 63.51,90.43 72.19,84.74 Z" />
</svg>
