<?xml version="1.0" encoding="UTF-8" standalone="no"?>
<!DOCTYPE svg PUBLIC "-//W3C//DTD SVG 20010904//EN"
              "http://www.w3.org/TR/2001/REC-SVG-20010904/DTD/svg10.dtd">

<svg xmlns="http://www.w3.org/2000/svg"
     width="52.9101mm" height="52.9101mm"
     viewBox="0 0 150 150">
  <path id="Selection"
        fill="none" stroke="black" stroke-width="1"
        d="M 43.00,49.00
           C 43.77,39.54 47.75,44.23 52.62,39.69
             55.06,37.42 56.17,33.58 60.09,31.85
             63.49,30.36 82.97,30.99 88.00,31.00
             90.59,31.01 93.63,30.81 95.98,32.02
             99.63,33.90 101.25,37.72 103.37,39.69
             108.23,44.20 112.25,39.91 113.00,49.00
             113.00,49.00 109.00,50.00 109.00,50.00
             113.51,58.85 111.52,59.18 111.03,68.00
             110.89,70.56 110.82,75.37 109.52,77.57
             108.10,79.95 98.85,83.40 98.00,73.00
             98.00,73.00 58.00,73.00 58.00,73.00
             57.15,83.40 47.90,79.95 46.48,77.57
             45.19,75.40 45.08,70.54 44.99,68.00
             44.67,59.07 42.47,58.89 47.00,50.00
             47.00,50.00 43.00,49.00 43.00,49.00 Z
           M 95.00,42.00
           C 95.00,42.00 91.86,38.30 91.86,38.30
             91.86,38.30 71.00,38.30 71.00,38.30
             71.00,38.30 65.06,38.30 65.06,38.30
             65.06,38.30 61.00,42.00 61.00,42.00
             61.00,42.00 95.00,42.00 95.00,42.00 Z
           M 101.00,50.00
           C 101.00,50.00 92.00,49.49 92.00,49.49
             92.00,49.49 73.00,50.00 73.00,50.00
             66.88,49.99 59.05,47.86 54.00,52.00
             54.00,52.00 63.00,53.00 63.00,53.00
             62.27,61.91 58.33,58.92 51.00,61.00
             51.00,61.00 52.00,66.00 52.00,66.00
             52.00,66.00 104.00,66.00 104.00,66.00
             104.00,66.00 105.00,61.00 105.00,61.00
             97.67,58.92 93.73,61.91 93.00,53.00
             93.00,53.00 101.00,53.00 101.00,53.00
             101.00,53.00 101.00,50.00 101.00,50.00 Z
           M 48.00,83.00
           C 50.84,83.00 54.25,82.88 57.00,83.53
             59.12,84.04 61.16,84.95 63.00,86.13
             63.00,86.13 65.85,88.33 65.85,88.33
             75.26,97.53 55.62,101.89 50.00,104.21
             48.25,104.93 44.99,106.17 44.34,108.13
             42.98,112.19 51.80,114.00 55.00,119.00
             44.87,119.00 41.68,119.16 33.04,112.78
             30.14,110.64 26.62,107.27 30.33,103.97
             33.10,101.50 43.92,98.46 48.00,96.95
             49.90,96.24 54.11,94.81 54.80,92.73
             55.71,90.01 49.80,85.31 48.00,83.00 Z
           M 101.00,83.00
           C 103.91,83.00 107.20,82.84 110.00,83.63
             111.74,84.13 114.44,85.41 116.00,86.35
             116.00,86.35 118.85,88.39 118.85,88.39
             128.30,97.29 108.30,101.96 103.00,104.07
             101.05,104.85 97.04,106.45 97.04,109.01
             97.04,112.29 104.82,115.20 109.00,119.00
             98.63,119.00 95.00,119.60 86.02,113.10
             82.85,110.80 79.47,107.24 83.32,103.70
             85.83,101.38 97.20,97.96 101.00,96.67
             102.94,96.01 106.96,94.91 107.66,92.74
             108.72,89.48 103.70,87.70 101.00,83.00 Z" />
</svg>
