<?xml version="1.0" encoding="UTF-8" standalone="no"?>
<!DOCTYPE svg PUBLIC "-//W3C//DTD SVG 20010904//EN"
              "http://www.w3.org/TR/2001/REC-SVG-20010904/DTD/svg10.dtd">

<svg xmlns="http://www.w3.org/2000/svg"
     width="52.9101mm" height="52.9101mm"
     viewBox="0 0 150 150">
  <path id="Selection"
        fill="none" stroke="black" stroke-width="1"
        d="M 77.00,36.57
           C 79.74,36.07 94.16,34.87 92.26,40.74
             90.80,45.21 82.70,39.25 77.64,44.43
             71.65,50.55 70.40,68.86 71.75,77.00
             72.47,81.30 73.23,85.58 77.11,88.26
             80.47,90.59 84.26,89.91 88.00,89.20
             96.57,87.56 104.98,83.84 110.66,76.99
             114.94,71.82 114.57,67.74 117.40,66.63
             122.33,64.69 121.77,71.42 120.89,74.00
             118.82,80.08 113.37,85.43 108.00,88.73
             100.04,93.63 89.31,96.21 80.00,95.99
             76.24,95.89 72.22,95.38 69.42,92.58
             66.35,89.52 65.43,83.16 64.75,79.00
             62.80,67.06 64.02,41.70 77.00,36.57 Z
           M 52.00,41.65
           C 58.54,40.82 58.83,44.89 54.85,47.64
             54.85,47.64 33.02,57.55 33.02,57.55
             28.42,58.18 26.83,54.40 31.15,51.35
             31.15,51.35 52.00,41.65 52.00,41.65 Z
           M 96.00,43.00
           C 101.94,41.31 104.14,42.23 110.00,43.00
             109.66,51.11 115.42,51.42 116.53,57.98
             117.20,61.97 113.72,66.02 107.91,57.98
             107.91,57.98 104.00,53.00 104.00,53.00
             104.00,53.00 104.00,54.00 104.00,54.00
             104.00,54.00 102.00,55.00 102.00,55.00
             102.00,55.00 96.00,43.00 96.00,43.00 Z
           M 52.98,54.78
           C 58.85,55.09 58.03,58.97 53.94,61.65
             51.57,63.20 34.34,71.32 32.06,71.47
             28.12,71.72 27.23,67.99 31.15,64.96
             33.09,63.46 50.22,55.64 52.98,54.78 Z
           M 53.94,67.95
           C 59.14,69.05 57.37,72.39 53.94,74.65
             50.90,76.65 35.06,84.65 32.06,84.64
             28.42,84.64 26.56,81.15 32.06,77.80
             36.05,75.36 49.61,69.05 53.94,67.95 Z
           M 52.98,81.66
           C 57.48,81.46 59.12,84.09 55.68,87.24
             55.68,87.24 37.00,96.74 37.00,96.74
             35.30,97.54 32.33,99.04 30.43,98.32
             26.46,96.83 29.98,92.71 32.06,91.35
             35.60,89.02 48.84,82.92 52.98,81.66 Z" />
</svg>
