<?xml version="1.0" encoding="UTF-8" standalone="no"?>
<!DOCTYPE svg PUBLIC "-//W3C//DTD SVG 20010904//EN"
              "http://www.w3.org/TR/2001/REC-SVG-20010904/DTD/svg10.dtd">

<svg xmlns="http://www.w3.org/2000/svg"
     width="52.9101mm" height="52.9101mm"
     viewBox="0 0 150 150">
  <path id="Selection"
        fill="none" stroke="black" stroke-width="1"
        d="M 72.00,39.43
           C 107.86,35.78 124.91,82.99 96.00,104.07
             90.48,108.10 83.75,110.03 77.00,110.70
             73.87,111.01 71.07,110.49 68.00,109.91
             45.13,105.57 33.02,80.97 42.52,60.00
             48.42,46.97 58.55,41.62 72.00,39.43 Z
           M 43.00,108.00
           C 38.74,105.80 36.92,103.06 34.46,99.00
             26.23,85.41 25.87,67.00 33.32,53.00
             34.57,50.65 37.95,44.97 40.18,43.74
             42.83,42.29 45.68,44.26 46.10,47.02
             46.51,49.68 41.69,56.12 40.27,59.00
             36.77,66.10 35.55,73.22 36.92,81.00
             38.89,92.14 44.84,97.21 45.93,100.96
             46.79,103.96 44.70,105.80 43.00,108.00 Z
           M 107.04,43.34
           C 112.71,43.61 116.06,51.27 118.13,56.00
             123.52,68.35 123.23,83.93 117.19,96.00
             115.84,98.71 111.84,105.85 108.91,106.66
             106.11,107.44 103.15,104.48 104.08,101.00
             104.08,101.00 111.53,87.00 111.53,87.00
             116.63,73.64 112.49,63.49 105.62,52.00
             103.15,47.86 102.82,46.10 107.04,43.34 Z
           M 71.00,46.30
           C 65.28,47.38 61.60,48.51 57.00,52.33
             33.53,71.84 50.69,107.77 79.00,103.70
             108.40,99.47 112.68,59.92 87.00,48.53
             81.76,46.20 76.63,45.74 71.00,46.30 Z
           M 51.00,86.00
           C 51.31,82.57 54.91,67.81 56.93,65.60
             58.20,64.21 59.33,64.29 61.00,64.00
             61.00,64.00 67.00,86.00 67.00,86.00
             67.00,86.00 58.07,81.91 58.07,81.91
             58.07,81.91 51.00,86.00 51.00,86.00 Z
           M 69.00,64.00
           C 72.16,64.00 77.06,63.58 79.57,65.74
             82.63,68.37 81.19,71.61 81.31,75.00
             81.44,78.37 82.70,81.68 79.57,84.40
             77.16,86.50 72.08,86.00 69.00,86.00
             69.00,86.00 69.00,64.00 69.00,64.00 Z
           M 94.00,82.00
           C 91.85,75.19 88.74,77.64 86.18,73.61
             85.34,72.30 85.07,70.56 85.27,69.04
             86.08,62.78 92.62,63.94 97.00,65.00
             97.00,65.00 96.00,69.00 96.00,69.00
             96.00,69.00 88.00,69.00 88.00,69.00
             92.44,73.67 95.77,73.44 97.26,77.11
             99.49,82.60 94.88,88.57 85.00,84.00
             85.00,84.00 86.00,80.00 86.00,80.00
             86.00,80.00 94.00,82.00 94.00,82.00 Z
           M 72.00,67.94
           C 72.16,68.93 72.10,69.74 72.59,70.68
             75.09,75.57 80.70,68.72 74.87,67.94
             74.87,67.94 72.00,67.94 72.00,67.94 Z
           M 59.00,71.00
           C 59.00,71.00 57.00,78.00 57.00,78.00
             57.00,78.00 60.00,78.00 60.00,78.00
             60.00,78.00 59.00,71.00 59.00,71.00 Z" />
</svg>
