<?xml version="1.0" encoding="UTF-8" standalone="no"?>
<!DOCTYPE svg PUBLIC "-//W3C//DTD SVG 20010904//EN"
              "http://www.w3.org/TR/2001/REC-SVG-20010904/DTD/svg10.dtd">

<svg xmlns="http://www.w3.org/2000/svg"
     width="52.9101mm" height="52.9101mm"
     viewBox="0 0 150 150">
  <path id="Selection #1"
        fill="none" stroke="black" stroke-width="1"
        d="M 21.00,41.00
           C 24.70,28.53 31.50,36.51 37.00,42.00
             37.00,42.00 43.00,36.00 43.00,36.00
             43.00,36.00 47.00,59.00 47.00,59.00
             47.00,59.00 24.00,55.00 24.00,55.00
             27.91,48.98 29.40,47.56 21.00,41.00 Z
           M 49.00,117.00
           C 38.91,105.99 36.83,99.63 37.00,85.00
             37.08,78.34 38.96,72.67 42.47,67.00
             45.63,61.88 50.72,56.82 56.00,53.90
             69.96,46.19 88.93,47.50 101.00,58.18
             117.52,72.82 119.78,103.24 101.00,117.00
             97.26,113.24 94.28,111.49 94.00,106.00
             94.00,106.00 102.00,110.00 102.00,110.00
             106.10,102.24 108.79,99.09 109.00,90.00
             109.00,90.00 102.00,90.00 102.00,90.00
             102.00,90.00 102.00,86.00 102.00,86.00
             102.00,86.00 109.00,86.00 109.00,86.00
             108.90,81.47 106.59,69.95 101.79,68.18
             98.10,66.81 97.76,71.17 93.00,67.00
             94.24,65.25 95.97,63.57 94.97,61.21
             93.18,56.99 82.21,54.38 78.00,54.00
             78.00,54.00 78.00,61.00 78.00,61.00
             78.00,61.00 73.00,61.00 73.00,61.00
             73.00,61.00 73.00,54.00 73.00,54.00
             68.84,54.38 57.82,56.96 56.17,61.21
             55.19,63.65 57.77,66.57 56.17,68.22
             54.52,70.01 51.65,67.27 49.21,68.22
             46.23,69.28 42.71,77.94 42.42,81.00
             42.22,83.00 42.58,84.11 43.00,86.00
             43.00,86.00 49.00,86.00 49.00,86.00
             49.00,86.00 49.00,90.00 49.00,90.00
             49.00,90.00 42.00,90.00 42.00,90.00
             42.22,99.80 44.99,101.67 49.00,110.00
             49.00,110.00 57.00,106.00 57.00,106.00
             56.05,111.84 53.66,113.65 49.00,117.00 Z
           M 57.00,71.00
           C 64.85,69.40 67.11,76.44 73.00,80.42
             75.33,82.00 78.49,82.52 79.97,85.14
             82.29,89.23 78.79,94.57 74.06,93.16
             69.44,91.78 71.85,88.19 64.98,81.00
             61.45,77.30 59.25,75.76 57.00,71.00 Z" />
</svg>
