<?xml version="1.0" encoding="UTF-8" standalone="no"?>
<!DOCTYPE svg PUBLIC "-//W3C//DTD SVG 20010904//EN"
              "http://www.w3.org/TR/2001/REC-SVG-20010904/DTD/svg10.dtd">

<svg xmlns="http://www.w3.org/2000/svg"
     width="677.249mm" height="272.663mm"
     viewBox="0 0 1920 773">
  <path id="Selection"
        fill="none" stroke="black" stroke-width="1"
        d="M 538.00,682.00
           C 540.03,685.52 548.71,696.34 548.68,699.00
             548.64,702.25 540.49,708.73 537.91,711.15
             537.91,711.15 504.00,740.27 504.00,740.27
             504.00,740.27 477.00,763.20 477.00,763.20
             469.07,769.57 467.40,772.98 457.00,773.00
             457.00,773.00 312.00,773.00 312.00,773.00
             312.00,773.00 302.00,772.09 302.00,772.09
             265.04,769.55 235.23,762.78 201.00,748.42
             182.05,740.48 163.32,731.77 146.00,720.62
             146.00,720.62 119.00,700.60 119.00,700.60
             87.19,675.16 59.13,644.50 38.87,609.00
             38.87,609.00 29.75,591.00 29.75,591.00
             22.80,577.10 16.54,562.81 11.74,548.00
             0.85,514.35 -0.40,481.94 0.00,447.00
             0.00,447.00 0.91,437.00 0.91,437.00
             3.95,393.55 14.13,362.66 31.15,323.00
             31.15,323.00 39.37,304.00 39.37,304.00
             48.69,285.36 57.50,271.27 69.00,254.00
             69.00,254.00 77.44,241.00 77.44,241.00
             111.79,192.00 158.99,147.44 210.00,116.19
             239.11,98.35 269.92,83.22 303.00,74.15
             303.00,74.15 353.00,62.57 353.00,62.57
             353.00,62.57 421.00,48.39 421.00,48.39
             500.27,33.53 579.83,22.97 660.00,14.83
             660.00,14.83 682.00,12.17 682.00,12.17
             682.00,12.17 739.00,7.91 739.00,7.91
             739.00,7.91 766.00,6.00 766.00,6.00
             766.00,6.00 787.00,5.00 787.00,5.00
             787.00,5.00 801.00,4.00 801.00,4.00
             801.00,4.00 832.00,3.00 832.00,3.00
             832.00,3.00 847.00,2.00 847.00,2.00
             847.00,2.00 863.00,2.00 863.00,2.00
             863.00,2.00 879.00,1.00 879.00,1.00
             879.00,1.00 904.00,1.00 904.00,1.00
             904.00,1.00 921.00,0.00 921.00,0.00
             921.00,0.00 1015.00,0.00 1015.00,0.00
             1015.00,0.00 1030.00,1.00 1030.00,1.00
             1030.00,1.00 1056.00,1.00 1056.00,1.00
             1056.00,1.00 1068.00,1.96 1068.00,1.96
             1068.00,1.96 1083.00,1.96 1083.00,1.96
             1083.00,1.96 1099.00,3.00 1099.00,3.00
             1099.00,3.00 1127.00,4.00 1127.00,4.00
             1127.00,4.00 1142.00,5.00 1142.00,5.00
             1142.00,5.00 1161.00,6.00 1161.00,6.00
             1161.00,6.00 1186.00,7.91 1186.00,7.91
             1186.00,7.91 1242.00,12.17 1242.00,12.17
             1242.00,12.17 1253.00,13.83 1253.00,13.83
             1253.00,13.83 1358.00,25.87 1358.00,25.87
             1422.66,34.87 1487.19,44.85 1551.00,58.77
             1580.20,65.14 1609.69,70.52 1638.00,80.34
             1667.77,90.68 1687.52,102.17 1714.00,118.58
             1726.06,126.05 1741.09,135.25 1752.00,144.09
             1811.32,192.16 1859.93,251.68 1890.28,322.00
             1897.29,338.23 1906.26,360.95 1910.53,378.00
             1919.17,412.52 1920.41,439.78 1920.00,475.00
             1920.00,475.00 1919.09,485.00 1919.09,485.00
             1916.37,523.92 1906.68,556.14 1889.25,591.00
             1874.90,619.69 1866.89,631.40 1846.41,656.00
             1839.96,663.76 1833.15,671.80 1825.91,678.83
             1825.91,678.83 1800.00,701.00 1800.00,701.00
             1790.92,708.27 1781.86,715.42 1772.00,721.63
             1754.47,732.68 1738.89,739.82 1720.00,747.87
             1685.38,762.62 1655.49,769.51 1618.00,772.09
             1618.00,772.09 1606.00,773.00 1606.00,773.00
             1606.00,773.00 1464.00,773.00 1464.00,773.00
             1453.44,772.98 1450.65,767.98 1443.00,761.00
             1443.00,761.00 1416.00,737.28 1416.00,737.28
             1416.00,737.28 1381.00,705.04 1381.00,705.04
             1378.25,702.40 1370.32,696.68 1370.16,693.00
             1370.03,690.04 1376.03,683.42 1378.00,681.00
             1375.57,681.00 1371.17,681.20 1369.00,680.40
             1366.07,679.33 1362.47,675.56 1360.00,673.42
             1360.00,673.42 1342.00,657.00 1342.00,657.00
             1342.00,657.00 1300.00,615.00 1300.00,615.00
             1296.39,611.39 1283.40,597.72 1280.00,596.02
             1277.88,594.96 1262.20,594.00 1259.00,594.00
             1259.00,594.00 1206.00,594.00 1206.00,594.00
             1206.00,594.00 1189.00,593.00 1189.00,593.00
             1189.00,593.00 1103.00,593.00 1103.00,593.00
             1103.00,593.00 1088.00,592.00 1088.00,592.00
             1088.00,592.00 918.00,592.00 918.00,592.00
             918.00,592.00 824.00,592.00 824.00,592.00
             824.00,592.00 809.00,593.00 809.00,593.00
             809.00,593.00 723.00,593.00 723.00,593.00
             723.00,593.00 709.00,594.00 709.00,594.00
             709.00,594.00 655.00,594.00 655.00,594.00
             651.63,594.01 639.57,594.74 637.00,596.02
             634.32,597.37 630.25,601.76 628.00,604.00
             628.00,604.00 609.91,623.00 609.91,623.00
             609.91,623.00 573.00,660.00 573.00,660.00
             568.45,664.55 554.91,679.16 550.00,681.15
             547.06,682.34 541.33,682.00 538.00,682.00 Z
           M 1280.00,542.00
           C 1302.20,542.00 1327.68,535.05 1348.00,526.28
             1370.82,516.44 1398.61,498.70 1415.96,480.99
             1415.96,480.99 1425.27,470.00 1425.27,470.00
             1434.77,458.77 1443.96,446.87 1451.14,434.00
             1479.39,383.36 1485.32,319.13 1467.66,264.00
             1444.91,193.03 1386.97,139.88 1315.00,121.38
             1291.21,115.26 1275.12,114.96 1251.00,115.00
             1237.69,115.02 1220.69,118.03 1207.80,121.45
             1162.70,133.43 1121.58,158.33 1092.20,195.00
             1064.99,228.96 1048.00,272.48 1046.00,316.00
             1046.00,316.00 1048.00,316.00 1048.00,316.00
             1048.08,290.59 1061.00,252.98 1073.58,231.00
             1102.02,181.32 1148.49,143.96 1204.00,129.15
             1227.69,122.84 1245.74,121.72 1270.00,122.00
             1283.61,122.16 1308.86,126.96 1322.00,131.02
             1357.26,141.94 1382.04,158.90 1408.96,183.72
             1426.43,199.81 1443.61,226.23 1453.27,248.00
             1462.45,268.68 1468.44,290.40 1470.09,313.00
             1470.09,313.00 1471.00,323.00 1471.00,323.00
             1471.00,323.00 1471.00,338.00 1471.00,338.00
             1471.00,338.00 1470.08,350.00 1470.08,350.00
             1466.31,397.22 1444.61,441.51 1412.44,475.83
             1386.29,503.73 1354.99,521.50 1319.00,533.49
             1311.17,536.09 1303.13,537.89 1295.00,539.25
             1291.27,539.87 1283.01,540.80 1280.00,542.00 Z
           M 866.00,310.00
           C 865.99,292.16 858.63,266.63 852.00,250.00
             825.72,184.11 769.68,137.49 700.96,121.25
             678.82,116.02 665.29,115.97 643.00,116.00
             624.91,116.03 604.20,120.47 587.00,125.97
             528.73,144.61 479.83,185.52 454.86,242.00
             445.92,262.24 437.03,294.89 437.00,317.00
             437.00,317.00 437.00,345.00 437.00,345.00
             437.07,351.00 438.57,360.92 439.59,367.00
             446.37,407.41 462.26,438.94 488.73,470.00
             488.73,470.00 498.09,480.96 498.09,480.96
             506.14,489.23 515.62,496.33 525.00,503.00
             535.07,510.17 549.66,519.61 561.00,524.20
             578.53,531.29 587.16,534.83 606.00,538.60
             611.51,539.70 618.65,542.12 624.00,540.00
             599.84,538.89 561.37,522.59 541.00,509.68
             460.42,458.63 422.39,362.70 449.72,271.00
             455.44,251.80 464.61,233.65 475.67,217.00
             487.31,199.46 497.76,186.56 514.00,172.92
             531.47,158.25 550.76,145.32 572.00,136.80
             593.12,128.33 620.18,121.27 643.00,121.00
             643.00,121.00 661.00,121.00 661.00,121.00
             689.31,121.04 728.17,131.88 753.00,145.31
             763.61,151.05 779.55,162.16 789.00,169.67
             815.94,191.07 841.72,227.47 853.31,260.00
             856.49,268.95 860.41,281.75 862.20,291.00
             863.30,296.71 863.49,305.08 866.00,310.00 Z
           M 846.00,331.00
           C 846.00,297.05 837.23,258.27 817.72,230.00
             817.72,230.00 799.68,205.00 799.68,205.00
             787.68,190.65 763.57,171.29 747.00,162.31
             696.20,134.76 630.35,130.62 577.00,153.43
             552.73,163.80 525.72,182.35 508.17,202.00
             508.17,202.00 494.15,220.00 494.15,220.00
             483.84,234.20 474.12,253.30 468.67,270.00
             463.68,285.29 459.19,306.95 459.00,323.00
             458.53,363.59 465.42,392.57 485.57,428.00
             498.80,451.28 518.32,471.60 540.00,487.14
             571.93,510.03 613.79,523.00 653.00,523.00
             653.00,523.00 653.00,519.00 653.00,519.00
             653.00,519.00 644.00,519.00 644.00,519.00
             610.04,518.95 566.71,502.82 540.00,482.20
             528.32,473.18 514.93,461.25 505.44,450.00
             482.38,422.66 463.07,377.14 463.00,341.00
             463.00,341.00 463.00,323.00 463.00,323.00
             463.28,295.39 472.73,262.93 486.43,239.00
             512.48,193.49 557.10,159.68 608.00,146.89
             627.87,141.91 643.82,141.77 664.00,142.00
             673.19,142.11 692.05,145.35 701.00,147.91
             736.69,158.11 762.75,173.74 789.00,200.00
             807.11,218.11 818.26,235.59 828.28,259.00
             838.50,282.87 843.00,305.06 843.00,331.00
             843.00,331.00 846.00,331.00 846.00,331.00 Z
           M 1260.00,523.00
           C 1299.11,523.00 1338.63,510.66 1371.00,488.66
             1392.68,473.93 1415.45,450.22 1427.78,427.00
             1447.92,389.08 1454.07,366.96 1454.00,324.00
             1453.97,303.03 1448.73,280.36 1440.86,261.00
             1432.31,239.98 1420.43,218.74 1404.91,202.00
             1373.66,168.28 1333.42,147.02 1288.00,140.43
             1274.78,138.51 1261.34,138.85 1248.00,139.00
             1223.06,139.30 1187.65,150.14 1166.00,162.33
             1166.00,162.33 1152.00,171.35 1152.00,171.35
             1127.07,188.02 1107.14,209.09 1092.01,235.00
             1075.08,263.99 1067.00,297.62 1067.00,331.00
             1067.00,331.00 1070.00,331.00 1070.00,331.00
             1070.00,300.80 1076.25,275.00 1089.75,248.00
             1102.06,223.39 1119.48,201.44 1141.00,184.20
             1209.19,129.56 1302.20,127.58 1373.00,178.74
             1389.16,190.42 1408.01,210.45 1419.25,227.00
             1440.22,257.87 1448.83,292.25 1450.91,329.00
             1450.91,329.00 1450.04,340.00 1450.04,340.00
             1448.93,365.51 1442.69,390.11 1431.25,413.00
             1416.87,441.75 1396.16,465.60 1370.00,484.29
             1337.17,507.75 1300.17,519.00 1260.00,519.00
             1260.00,519.00 1260.00,523.00 1260.00,523.00 Z
           M 644.00,161.00
           C 641.93,166.22 643.29,172.58 644.00,178.00
             644.00,178.00 646.00,178.00 646.00,178.00
             646.00,172.72 647.20,165.34 644.00,161.00 Z
           M 655.00,161.00
           C 652.64,161.08 649.83,160.81 648.81,163.31
             647.15,166.27 648.52,173.68 648.81,177.00
             648.81,177.00 648.81,198.00 648.81,198.00
             648.81,198.00 655.00,198.00 655.00,198.00
             655.00,198.00 655.00,161.00 655.00,161.00 Z
           M 660.00,161.00
           C 660.00,161.00 658.00,161.00 658.00,161.00
             658.00,161.00 657.00,178.00 657.00,178.00
             661.42,174.56 660.00,166.16 660.00,161.00 Z
           M 1254.00,161.00
           C 1254.00,161.00 1251.00,161.00 1251.00,161.00
             1251.00,166.10 1249.46,174.83 1254.00,178.00
             1254.00,178.00 1254.00,161.00 1254.00,161.00 Z
           M 1265.00,198.00
           C 1265.00,198.00 1266.00,168.00 1266.00,168.00
             1265.92,164.14 1265.31,160.04 1260.14,161.33
             1256.08,162.35 1257.18,166.95 1257.79,170.00
             1257.79,170.00 1257.79,198.00 1257.79,198.00
             1257.79,198.00 1265.00,198.00 1265.00,198.00 Z
           M 1273.00,161.00
           C 1273.00,161.00 1270.00,161.00 1270.00,161.00
             1270.00,161.00 1269.00,178.00 1269.00,178.00
             1269.00,178.00 1272.00,178.00 1272.00,178.00
             1272.00,178.00 1273.00,161.00 1273.00,161.00 Z
           M 631.00,162.00
           C 631.00,162.00 632.00,179.00 632.00,179.00
             632.00,179.00 634.00,179.00 634.00,179.00
             633.96,174.18 633.82,165.83 631.00,162.00 Z
           M 639.00,162.00
           C 639.00,162.00 636.00,162.00 636.00,162.00
             636.00,162.00 638.00,179.00 638.00,179.00
             638.00,179.00 640.00,179.00 640.00,179.00
             640.00,179.00 639.00,162.00 639.00,162.00 Z
           M 666.00,162.00
           C 666.00,162.00 664.00,162.00 664.00,162.00
             664.00,162.00 663.00,178.00 663.00,178.00
             667.44,174.55 666.00,167.08 666.00,162.00 Z
           M 673.00,162.00
           C 673.00,162.00 670.00,162.00 670.00,162.00
             670.00,162.00 669.00,179.00 669.00,179.00
             669.00,179.00 671.00,179.00 671.00,179.00
             671.00,179.00 673.00,162.00 673.00,162.00 Z
           M 1245.00,162.00
           C 1245.00,162.00 1242.00,162.00 1242.00,162.00
             1242.00,162.00 1244.00,179.00 1244.00,179.00
             1244.00,179.00 1246.00,179.00 1246.00,179.00
             1246.00,179.00 1245.00,162.00 1245.00,162.00 Z
           M 1282.00,162.00
           C 1282.00,162.00 1279.02,163.59 1279.02,163.59
             1279.02,163.59 1277.00,179.00 1277.00,179.00
             1277.00,179.00 1280.00,179.00 1280.00,179.00
             1280.00,179.00 1282.00,162.00 1282.00,162.00 Z
           M 625.00,163.00
           C 625.00,163.00 626.00,180.00 626.00,180.00
             626.00,180.00 628.00,180.00 628.00,180.00
             627.95,174.85 627.59,167.46 625.00,163.00 Z
           M 679.00,163.00
           C 679.00,163.00 677.00,163.00 677.00,163.00
             677.00,163.00 675.00,180.00 675.00,180.00
             675.00,180.00 677.00,180.00 677.00,180.00
             677.00,180.00 679.00,163.00 679.00,163.00 Z
           M 1237.00,163.00
           C 1237.00,163.00 1233.00,164.00 1233.00,164.00
             1234.26,169.12 1233.28,177.93 1239.00,180.00
             1239.00,180.00 1237.00,163.00 1237.00,163.00 Z
           M 1290.00,163.00
           C 1290.00,163.00 1287.00,163.00 1287.00,163.00
             1287.00,163.00 1285.00,180.00 1285.00,180.00
             1285.00,180.00 1288.00,180.00 1288.00,180.00
             1288.00,180.00 1290.00,163.00 1290.00,163.00 Z
           M 620.00,164.00
           C 620.00,164.00 618.00,164.00 618.00,164.00
             618.04,168.47 620.37,184.17 622.43,187.71
             623.32,189.24 623.70,189.15 625.00,190.00
             625.00,190.00 620.00,164.00 620.00,164.00 Z
           M 684.00,164.00
           C 681.79,168.33 679.11,184.81 679.00,190.00
             679.00,190.00 681.00,190.00 681.00,190.00
             681.59,183.43 687.19,169.12 684.00,164.00 Z
           M 1228.00,164.00
           C 1228.00,164.00 1226.00,164.00 1226.00,164.00
             1224.87,168.78 1225.89,179.01 1231.00,181.00
             1231.00,181.00 1228.00,164.00 1228.00,164.00 Z
           M 692.00,165.00
           C 692.00,165.00 690.00,165.00 690.00,165.00
             690.00,165.00 686.00,182.00 686.00,182.00
             690.91,180.02 691.77,169.84 692.00,165.00 Z
           M 1299.00,166.00
           C 1299.00,166.00 1296.00,165.00 1296.00,165.00
             1296.00,165.00 1292.00,181.00 1292.00,181.00
             1292.00,181.00 1295.00,182.00 1295.00,182.00
             1295.00,182.00 1299.00,166.00 1299.00,166.00 Z
           M 614.00,166.00
           C 614.00,166.00 611.00,166.00 611.00,166.00
             611.50,170.81 612.91,179.19 617.00,182.00
             617.00,182.00 614.00,166.00 614.00,166.00 Z
           M 1220.00,166.00
           C 1220.00,166.00 1217.00,166.00 1217.00,166.00
             1217.55,172.67 1219.26,177.62 1220.87,184.00
             1221.93,188.16 1221.72,190.46 1226.00,192.00
             1226.00,192.00 1220.00,166.00 1220.00,166.00 Z
           M 607.00,167.00
           C 603.98,171.29 606.77,181.15 611.00,184.00
             611.00,184.00 607.00,167.00 607.00,167.00 Z
           M 698.00,167.00
           C 698.00,167.00 696.00,167.00 696.00,167.00
             696.00,167.00 692.00,183.00 692.00,183.00
             696.53,180.06 697.75,172.13 698.00,167.00 Z
           M 1307.00,167.00
           C 1307.00,167.00 1304.00,167.00 1304.00,167.00
             1302.01,173.85 1297.42,186.35 1299.00,193.00
             1299.00,193.00 1307.00,167.00 1307.00,167.00 Z
           M 705.00,169.00
           C 705.00,169.00 702.00,168.00 702.00,168.00
             702.00,168.00 697.00,185.00 697.00,185.00
             702.34,183.09 703.32,174.05 705.00,169.00 Z
           M 1211.00,168.00
           C 1211.00,168.00 1208.00,169.00 1208.00,169.00
             1208.00,169.00 1213.13,183.43 1213.13,183.43
             1213.13,183.43 1216.00,185.00 1216.00,185.00
             1216.00,185.00 1211.00,168.00 1211.00,168.00 Z
           M 600.00,170.00
           C 598.43,174.77 601.88,181.11 603.00,186.00
             603.50,185.64 604.22,185.61 604.82,184.46
             606.46,181.27 602.13,172.47 600.00,170.00 Z
           M 1315.00,170.00
           C 1315.00,170.00 1312.00,170.00 1312.00,170.00
             1312.00,170.00 1307.00,184.89 1307.00,184.89
             1307.73,184.99 1308.29,185.40 1309.50,184.89
             1312.27,183.33 1314.68,173.07 1315.00,170.00 Z
           M 711.00,171.00
           C 711.00,171.00 708.00,171.00 708.00,171.00
             708.00,171.00 703.00,187.00 703.00,187.00
             707.68,184.07 709.30,176.10 711.00,171.00 Z
           M 1203.00,171.00
           C 1203.00,171.00 1200.00,172.00 1200.00,172.00
             1201.78,177.14 1203.10,184.09 1208.00,187.00
             1208.00,187.00 1203.00,171.00 1203.00,171.00 Z
           M 1665.00,272.00
           C 1667.97,264.26 1669.90,255.31 1670.00,247.00
             1670.10,237.47 1668.95,230.92 1665.68,222.00
             1661.91,211.72 1659.22,205.51 1651.92,197.04
             1629.77,171.35 1593.84,164.23 1563.00,177.43
             1539.80,187.36 1525.35,206.66 1520.11,231.00
             1519.01,236.66 1517.94,250.81 1520.11,256.00
             1520.00,239.40 1520.66,225.84 1529.45,211.00
             1554.07,169.48 1609.26,159.56 1645.00,193.09
             1660.37,207.52 1668.24,228.20 1668.00,249.00
             1668.00,249.00 1665.00,272.00 1665.00,272.00 Z
           M 600.00,187.00
           C 599.14,181.43 597.91,173.96 592.00,172.00
             593.78,177.14 595.10,184.09 600.00,187.00 Z
           M 1322.00,172.00
           C 1322.00,172.00 1320.00,172.00 1320.00,172.00
             1320.00,172.00 1315.00,188.00 1315.00,188.00
             1320.63,186.02 1323.05,177.43 1322.00,172.00 Z
           M 590.00,173.00
           C 590.00,173.00 584.00,175.00 584.00,175.00
             584.00,175.00 598.00,209.00 598.00,209.00
             604.90,207.41 602.65,203.32 600.55,198.00
             600.55,198.00 590.00,173.00 590.00,173.00 Z
           M 719.00,174.00
           C 719.00,174.00 713.00,173.00 713.00,173.00
             713.00,173.00 700.00,207.00 700.00,207.00
             700.00,207.00 706.01,206.41 706.01,206.41
             706.01,206.41 710.42,197.00 710.42,197.00
             710.42,197.00 719.00,174.00 719.00,174.00 Z
           M 1195.00,174.00
           C 1195.00,174.00 1192.00,177.00 1192.00,177.00
             1194.86,181.18 1196.30,188.19 1201.00,190.00
             1201.00,190.00 1195.00,174.00 1195.00,174.00 Z
           M 723.00,176.00
           C 719.61,179.55 716.01,187.09 716.00,192.00
             719.95,188.05 723.55,181.68 723.00,176.00 Z
           M 1331.00,176.00
           C 1331.00,176.00 1328.00,176.00 1328.00,176.00
             1328.00,176.00 1322.00,191.00 1322.00,191.00
             1327.55,189.11 1329.99,181.36 1331.00,176.00 Z
           M 581.00,177.00
           C 578.97,181.27 583.91,189.77 587.00,193.00
             587.29,187.17 583.81,181.94 581.00,177.00 Z
           M 1188.00,178.00
           C 1188.00,178.00 1184.00,179.00 1184.00,179.00
             1184.00,179.00 1191.00,194.00 1191.00,194.00
             1191.00,194.00 1193.00,194.00 1193.00,194.00
             1193.60,188.23 1190.23,183.19 1188.00,178.00 Z
           M 730.00,179.00
           C 730.00,179.00 727.00,179.00 727.00,179.00
             727.00,179.00 721.00,194.00 721.00,194.00
             725.64,191.22 728.95,184.20 730.00,179.00 Z
           M 1337.00,179.00
           C 1333.68,183.18 1330.01,189.63 1330.00,195.00
             1334.02,192.42 1337.35,184.51 1339.00,180.00
             1339.00,180.00 1337.00,179.00 1337.00,179.00 Z
           M 575.00,180.00
           C 573.81,184.80 578.33,193.36 583.00,195.00
             583.00,195.00 575.00,180.00 575.00,180.00 Z
           M 1181.00,181.00
           C 1181.00,181.00 1173.00,186.00 1173.00,186.00
             1173.00,186.00 1191.00,216.00 1191.00,216.00
             1191.00,216.00 1198.00,214.00 1198.00,214.00
             1198.00,214.00 1181.00,181.00 1181.00,181.00 Z
           M 1585.00,181.29
           C 1554.55,186.33 1529.05,209.84 1529.00,242.00
             1528.98,252.62 1528.63,257.55 1532.09,268.00
             1540.29,292.81 1563.75,310.69 1590.00,311.00
             1602.05,311.14 1611.86,310.71 1623.00,305.19
             1635.01,299.24 1646.56,287.98 1652.63,276.00
             1664.63,252.33 1660.14,219.37 1641.83,200.09
             1627.11,184.58 1605.70,179.33 1585.00,181.29 Z
           M 736.00,182.00
           C 730.27,183.88 727.31,191.48 726.00,197.00
             731.05,195.23 734.56,186.92 736.00,182.00 Z
           M 1343.00,182.00
           C 1343.00,182.00 1332.14,200.00 1332.14,200.00
             1332.14,200.00 1325.00,215.00 1325.00,215.00
             1326.85,215.63 1328.83,216.59 1330.79,215.77
             1333.99,214.44 1341.32,200.62 1343.42,197.00
             1344.74,194.73 1348.33,189.62 1347.99,187.10
             1347.64,184.61 1344.89,183.23 1343.00,182.00 Z
           M 570.00,183.00
           C 570.00,183.00 567.00,184.00 567.00,184.00
             567.00,184.00 575.00,198.00 575.00,198.00
             575.00,198.00 578.00,197.00 578.00,197.00
             578.00,197.00 570.00,183.00 570.00,183.00 Z
           M 741.00,185.00
           C 735.70,187.79 732.36,194.31 731.00,200.00
             736.32,198.15 739.93,190.25 741.00,185.00 Z
           M 565.00,186.00
           C 565.00,186.00 563.00,186.00 563.00,186.00
             562.78,191.57 567.05,196.48 570.00,201.00
             570.00,201.00 573.00,200.00 573.00,200.00
             573.00,200.00 565.00,186.00 565.00,186.00 Z
           M 1170.00,187.00
           C 1169.64,187.62 1169.06,187.76 1168.95,189.22
             1168.72,192.27 1174.83,200.62 1177.00,203.00
             1177.00,203.00 1179.00,202.00 1179.00,202.00
             1179.00,202.00 1170.00,187.00 1170.00,187.00 Z
           M 746.00,188.00
           C 740.37,192.69 732.79,203.86 731.00,211.00
             736.24,208.28 745.80,193.86 746.00,188.00 Z
           M 1356.00,190.00
           C 1349.82,190.06 1346.17,197.88 1344.00,203.00
             1344.00,203.00 1345.00,204.00 1345.00,204.00
             1345.00,204.00 1347.00,204.00 1347.00,204.00
             1347.00,204.00 1356.00,190.00 1356.00,190.00 Z
           M 573.00,212.00
           C 571.45,207.80 562.90,193.20 559.49,190.99
             558.17,190.14 557.41,190.24 556.00,190.00
             559.14,196.10 567.10,208.96 573.00,212.00 Z
           M 752.00,192.00
           C 746.81,194.68 741.55,200.96 742.00,207.00
             745.91,203.58 750.37,196.93 752.00,192.00 Z
           M 1162.00,192.00
           C 1161.01,196.88 1166.63,202.78 1169.00,207.00
             1169.00,207.00 1171.00,207.00 1171.00,207.00
             1171.45,201.01 1166.49,195.53 1162.00,192.00 Z
           M 553.00,193.00
           C 553.00,193.00 551.00,194.00 551.00,194.00
             551.00,194.00 560.00,208.00 560.00,208.00
             560.00,208.00 562.00,208.00 562.00,208.00
             562.23,201.88 556.99,197.18 553.00,193.00 Z
           M 1363.00,195.00
           C 1363.00,195.00 1359.00,194.00 1359.00,194.00
             1359.00,194.00 1351.00,208.00 1351.00,208.00
             1356.73,206.16 1360.13,200.00 1363.00,195.00 Z
           M 757.00,196.00
           C 751.64,198.66 748.15,204.04 745.00,209.00
             751.19,208.94 755.01,201.19 757.00,196.00 Z
           M 548.00,197.00
           C 548.00,197.00 546.00,198.00 546.00,198.00
             549.09,203.05 552.10,209.11 558.00,211.00
             556.05,205.24 552.13,201.33 548.00,197.00 Z
           M 1157.00,197.00
           C 1157.00,197.00 1155.00,197.00 1155.00,197.00
             1154.77,203.29 1160.22,208.50 1165.00,212.00
             1165.44,205.92 1160.26,201.87 1157.00,197.00 Z
           M 761.00,199.00
           C 756.89,202.93 751.04,208.04 751.00,214.00
             755.71,210.55 761.77,205.28 761.00,199.00 Z
           M 1369.00,199.00
           C 1363.22,200.63 1358.52,207.41 1357.00,213.00
             1363.08,211.17 1367.70,205.11 1369.00,199.00 Z
           M 544.00,201.00
           C 544.00,201.00 542.00,201.00 542.00,201.00
             542.32,206.64 548.12,213.94 554.00,214.00
             554.00,214.00 544.00,201.00 544.00,201.00 Z
           M 1150.00,202.00
           C 1150.00,202.00 1147.00,203.00 1147.00,203.00
             1149.59,208.74 1153.91,213.35 1159.00,217.00
             1159.00,211.03 1153.41,206.56 1150.00,202.00 Z
           M 767.00,204.00
           C 761.45,206.63 757.50,211.45 755.00,217.00
             760.57,214.37 765.00,209.87 767.00,204.00 Z
           M 1375.00,204.00
           C 1375.00,204.00 1373.00,204.00 1373.00,204.00
             1373.00,204.00 1363.00,218.00 1363.00,218.00
             1369.29,216.15 1373.49,210.87 1376.00,205.00
             1376.00,205.00 1375.00,204.00 1375.00,204.00 Z
           M 538.00,205.00
           C 536.65,210.74 543.83,216.02 548.00,219.00
             548.00,219.00 549.00,218.00 549.00,218.00
             549.00,218.00 538.00,205.00 538.00,205.00 Z
           M 770.00,207.00
           C 770.00,207.00 744.00,233.00 744.00,233.00
             744.00,233.00 744.00,235.00 744.00,235.00
             744.00,235.00 749.00,235.71 749.00,235.71
             749.00,235.71 766.00,220.72 766.00,220.72
             766.00,220.72 772.66,213.00 772.66,213.00
             772.66,213.00 770.00,207.00 770.00,207.00 Z
           M 1143.00,208.00
           C 1143.00,208.00 1141.00,212.00 1141.00,212.00
             1141.00,212.00 1158.00,226.89 1158.00,226.89
             1158.00,226.89 1161.00,226.89 1161.00,226.89
             1161.00,226.89 1143.00,208.00 1143.00,208.00 Z
           M 534.04,210.11
           C 529.20,212.18 531.27,214.88 534.04,218.00
             538.94,223.45 544.61,228.11 550.00,233.02
             551.68,234.56 555.04,238.18 557.63,236.83
             561.05,235.05 556.33,230.42 554.98,229.00
             554.98,229.00 536.72,210.95 536.72,210.95
             534.75,209.75 535.21,210.38 534.04,210.11 Z
           M 1380.89,210.00
           C 1380.89,210.00 1363.59,226.09 1363.59,226.09
             1363.59,226.09 1362.00,230.00 1362.00,230.00
             1363.74,229.49 1364.36,229.46 1366.00,228.41
             1368.81,226.59 1379.72,215.88 1380.89,213.00
             1381.42,211.24 1380.99,210.92 1380.89,210.00 Z
           M 778.00,215.00
           C 771.87,215.06 767.33,221.35 764.00,226.00
             764.00,226.00 765.00,227.00 765.00,227.00
             765.00,227.00 778.00,215.00 778.00,215.00 Z
           M 1149.00,226.00
           C 1145.31,220.85 1141.61,217.01 1136.00,214.00
             1136.06,220.00 1143.14,225.96 1149.00,226.00 Z
           M 540.00,227.00
           C 536.65,222.70 531.72,217.05 526.00,217.00
             529.47,221.21 534.27,226.95 540.00,227.00 Z
           M 1388.00,218.00
           C 1381.65,217.77 1377.44,223.20 1374.00,228.00
             1379.89,227.96 1384.71,222.50 1388.00,218.00 Z
           M 782.00,219.00
           C 776.21,220.68 771.50,225.21 768.00,230.00
             768.00,230.00 769.00,231.00 769.00,231.00
             774.05,228.05 779.36,224.33 782.00,219.00 Z
           M 536.00,232.00
           C 533.16,226.93 527.61,222.52 522.00,221.00
             524.79,226.12 530.38,230.47 536.00,232.00 Z
           M 1144.00,232.00
           C 1140.50,227.22 1135.32,221.54 1129.00,222.00
             1132.50,226.78 1137.68,232.46 1144.00,232.00 Z
           M 1393.00,223.00
           C 1387.18,224.97 1382.59,229.10 1379.00,234.00
             1384.74,234.00 1391.33,228.43 1393.00,223.00 Z
           M 786.00,224.00
           C 780.20,225.44 774.74,229.68 772.00,235.00
             777.73,233.17 783.29,229.46 786.00,224.00 Z
           M 519.00,225.00
           C 517.99,229.84 528.05,235.45 532.00,237.00
             529.35,231.52 524.17,228.00 519.00,225.00 Z
           M 1126.00,227.00
           C 1125.74,227.50 1125.03,227.84 1125.13,229.14
             1125.36,231.97 1133.36,237.49 1136.00,238.03
             1137.72,238.44 1138.11,238.07 1139.00,238.03
             1139.00,238.03 1126.00,227.00 1126.00,227.00 Z
           M 790.00,229.00
           C 784.41,230.50 777.89,234.27 776.00,240.00
             781.26,237.95 787.36,234.08 790.00,229.00 Z
           M 516.00,230.00
           C 516.00,230.00 515.13,232.04 515.13,232.04
             515.13,232.04 526.00,242.00 526.00,242.00
             526.00,242.00 529.00,241.00 529.00,241.00
             529.00,241.00 516.00,230.00 516.00,230.00 Z
           M 1399.00,230.00
           C 1392.81,230.94 1389.22,234.73 1384.00,238.00
             1384.00,238.00 1385.00,242.00 1385.00,242.00
             1389.67,238.89 1396.30,234.90 1399.00,230.00 Z
           M 794.00,235.00
           C 787.85,234.76 773.82,244.58 771.00,250.00
             777.39,248.44 789.49,239.87 794.00,235.00 Z
           M 1133.00,246.00
           C 1132.94,239.80 1124.97,236.43 1120.00,234.00
             1120.06,239.94 1128.36,243.40 1133.00,246.00 Z
           M 533.00,252.00
           C 531.08,246.28 515.99,236.83 510.00,236.00
             512.90,241.18 527.21,250.16 533.00,252.00 Z
           M 1402.00,236.00
           C 1402.00,236.00 1388.00,245.00 1388.00,245.00
             1388.00,245.00 1389.00,248.00 1389.00,248.00
             1394.37,245.95 1400.27,242.39 1404.00,238.00
             1404.00,238.00 1402.00,236.00 1402.00,236.00 Z
           M 797.00,239.00
           C 797.00,239.00 782.00,247.00 782.00,247.00
             782.00,247.00 782.00,249.00 782.00,249.00
             787.59,249.22 795.21,244.39 797.00,239.00 Z
           M 1145.00,265.00
           C 1145.64,263.12 1146.58,261.18 1145.77,259.18
             1144.54,256.16 1130.52,248.26 1127.00,246.05
             1124.90,244.73 1119.43,240.89 1117.10,241.10
             1113.88,241.40 1112.75,245.46 1112.00,248.00
             1112.00,248.00 1145.00,265.00 1145.00,265.00 Z
           M 521.00,252.00
           C 520.93,245.74 512.23,242.50 507.00,241.00
             508.79,246.14 516.39,249.42 521.00,252.00 Z
           M 1407.00,242.00
           C 1400.44,243.57 1387.04,252.48 1381.00,256.54
             1378.68,258.10 1373.21,262.34 1377.45,265.18
             1379.85,266.79 1383.82,263.93 1386.00,262.78
             1386.00,262.78 1410.00,250.00 1410.00,250.00
             1410.00,250.00 1407.00,242.00 1407.00,242.00 Z
           M 801.00,246.00
           C 795.00,245.12 787.77,249.74 785.00,255.00
             790.44,253.71 797.09,249.99 801.00,246.00 Z
           M 504.84,246.00
           C 504.68,247.01 504.22,247.52 504.84,248.72
             505.83,251.65 515.92,255.91 519.00,257.00
             517.17,251.42 509.84,248.90 504.84,246.00 Z
           M 804.00,251.00
           C 798.44,250.55 793.08,254.81 788.00,257.00
             788.00,257.00 788.00,259.00 788.00,259.00
             793.49,259.25 798.97,255.17 804.00,253.00
             804.00,253.00 804.00,251.00 804.00,251.00 Z
           M 1125.00,257.00
           C 1125.00,257.00 1110.00,250.00 1110.00,250.00
             1110.07,256.47 1119.38,260.00 1125.00,259.00
             1125.00,259.00 1125.00,257.00 1125.00,257.00 Z
           M 516.00,262.00
           C 514.08,256.16 506.52,253.58 501.00,252.00
             502.92,257.84 510.48,260.42 516.00,262.00 Z
           M 1412.00,253.00
           C 1412.00,253.00 1397.00,260.00 1397.00,260.00
             1397.00,260.00 1397.00,262.00 1397.00,262.00
             1402.76,262.56 1408.13,258.77 1413.00,256.00
             1413.00,256.00 1413.00,254.00 1413.00,254.00
             1413.00,254.00 1412.00,253.00 1412.00,253.00 Z
           M 807.00,257.00
           C 801.33,255.99 793.87,260.07 791.00,265.00
             796.47,263.97 803.05,260.94 807.00,257.00 Z
           M 1521.00,256.00
           C 1521.00,256.00 1521.00,262.00 1521.00,262.00
             1521.00,262.00 1521.00,256.00 1521.00,256.00 Z
           M 514.00,267.00
           C 511.10,262.01 503.52,259.03 498.00,258.00
             499.78,263.00 509.05,266.07 514.00,267.00 Z
           M 1121.00,267.00
           C 1118.11,262.04 1111.34,259.52 1106.00,258.00
             1106.00,258.00 1105.00,259.00 1105.00,259.00
             1105.00,259.00 1105.00,261.00 1105.00,261.00
             1105.00,261.00 1121.00,267.00 1121.00,267.00 Z
           M 808.18,261.00
           C 808.18,261.00 775.00,275.00 775.00,275.00
             775.00,275.00 776.00,280.00 776.00,280.00
             783.00,278.90 792.10,274.36 799.00,271.60
             801.06,270.78 807.07,268.63 808.18,267.19
             810.19,265.12 808.91,263.09 808.18,261.00 Z
           M 1417.00,262.00
           C 1411.42,261.29 1404.49,264.74 1400.00,268.00
             1400.00,268.00 1401.00,270.00 1401.00,270.00
             1401.00,270.00 1417.00,264.00 1417.00,264.00
             1417.00,264.00 1417.00,262.00 1417.00,262.00 Z
           M 530.00,277.00
           C 530.00,277.00 506.00,266.32 506.00,266.32
             506.00,266.32 497.27,263.81 497.27,263.81
             497.27,263.81 494.00,269.00 494.00,269.00
             494.00,269.00 529.00,282.00 529.00,282.00
             529.00,282.00 530.00,277.00 530.00,277.00 Z
           M 1118.00,274.00
           C 1115.13,269.16 1107.35,266.97 1102.00,266.00
             1102.00,266.00 1101.00,269.00 1101.00,269.00
             1101.00,269.00 1118.00,274.00 1118.00,274.00 Z
           M 812.00,269.00
           C 806.88,270.38 799.97,272.50 796.00,276.00
             800.91,276.51 810.09,273.96 812.00,269.00 Z
           M 1420.00,269.00
           C 1414.55,269.84 1406.03,271.23 1404.00,277.00
             1408.95,276.11 1418.07,274.00 1420.00,269.00 Z
           M 509.00,279.00
           C 506.22,274.72 496.95,272.16 492.00,271.00
             493.97,276.06 503.97,278.22 509.00,279.00 Z
           M 1525.00,272.00
           C 1525.00,272.00 1526.00,277.00 1526.00,277.00
             1526.00,277.00 1525.00,272.00 1525.00,272.00 Z
           M 1115.00,282.00
           C 1113.05,276.28 1104.49,274.57 1099.00,274.00
             1100.93,278.96 1110.18,280.39 1115.00,282.00 Z
           M 814.00,275.00
           C 809.14,276.11 800.84,277.78 798.00,282.00
             802.94,281.55 812.05,280.03 814.00,275.00 Z
           M 507.00,284.00
           C 504.14,280.26 494.66,278.06 490.00,277.00
             492.05,282.28 501.86,283.57 507.00,284.00 Z
           M 1423.00,277.00
           C 1417.62,277.48 1408.99,279.23 1406.00,284.00
             1410.88,283.56 1421.10,281.88 1423.00,277.00 Z
           M 817.00,282.00
           C 811.77,281.32 802.91,283.35 800.00,288.00
             805.31,287.29 812.94,285.47 817.00,282.00 Z
           M 1660.00,281.00
           C 1660.00,281.00 1659.00,281.00 1659.00,281.00
             1659.00,281.00 1660.00,282.00 1660.00,282.00
             1660.00,282.00 1660.00,281.00 1660.00,281.00 Z
           M 1122.00,292.00
           C 1121.53,290.68 1121.64,290.15 1120.43,289.08
             1117.67,286.65 1100.19,282.35 1096.00,282.00
             1096.00,282.00 1097.59,284.78 1097.59,284.78
             1097.59,284.78 1122.00,292.00 1122.00,292.00 Z
           M 505.00,290.00
           C 501.93,285.27 493.33,284.25 488.00,284.00
             491.02,288.48 499.85,289.57 505.00,290.00 Z
           M 1425.00,285.00
           C 1425.00,285.00 1399.00,291.00 1399.00,291.00
             1399.00,291.00 1402.14,293.52 1402.14,293.52
             1402.14,293.52 1422.69,288.57 1422.69,288.57
             1422.69,288.57 1425.00,285.00 1425.00,285.00 Z
           M 1658.00,285.00
           C 1658.00,285.00 1657.00,285.00 1657.00,285.00
             1657.00,285.00 1658.00,286.00 1658.00,286.00
             1658.00,286.00 1658.00,285.00 1658.00,285.00 Z
           M 818.00,287.00
           C 812.87,288.03 803.98,288.49 802.00,294.00
             807.13,292.97 816.02,292.51 818.00,287.00 Z
           M 1534.00,289.00
           C 1534.00,289.00 1533.00,289.00 1533.00,289.00
             1533.00,289.00 1534.00,290.00 1534.00,290.00
             1534.00,290.00 1534.00,289.00 1534.00,289.00 Z
           M 503.00,296.00
           C 500.91,290.64 492.07,290.24 487.00,290.00
             489.89,294.45 497.97,295.29 503.00,296.00 Z
           M 1111.00,297.00
           C 1108.95,291.10 1099.52,290.46 1094.00,290.00
             1094.00,290.00 1095.59,293.02 1095.59,293.02
             1095.59,293.02 1111.00,297.00 1111.00,297.00 Z
           M 820.00,294.00
           C 816.31,293.69 799.44,296.80 796.29,298.51
             794.73,299.36 794.85,299.71 794.00,301.00
             794.00,301.00 817.73,296.37 817.73,296.37
             817.73,296.37 820.00,294.00 820.00,294.00 Z
           M 1427.00,293.00
           C 1421.83,293.43 1412.95,294.45 1410.00,299.00
             1415.51,298.95 1424.89,299.04 1427.00,293.00 Z
           M 511.00,303.00
           C 511.00,303.00 508.71,300.51 508.71,300.51
             508.71,300.51 485.00,296.00 485.00,296.00
             485.00,296.00 485.00,299.00 485.00,299.00
             485.00,299.00 511.00,303.00 511.00,303.00 Z
           M 1109.00,304.00
           C 1106.89,298.59 1098.03,298.92 1093.00,298.00
             1093.00,298.00 1092.00,302.00 1092.00,302.00
             1092.00,302.00 1109.00,304.00 1109.00,304.00 Z
           M 821.00,300.00
           C 821.00,300.00 804.00,302.00 804.00,302.00
             804.00,302.00 804.00,305.00 804.00,305.00
             804.00,305.00 821.00,303.00 821.00,303.00
             821.00,303.00 821.00,300.00 821.00,300.00 Z
           M 1429.00,301.00
           C 1429.00,301.00 1413.57,304.17 1413.57,304.17
             1413.57,304.17 1412.00,307.00 1412.00,307.00
             1412.00,307.00 1429.00,305.00 1429.00,305.00
             1429.00,305.00 1429.00,301.00 1429.00,301.00 Z
           M 501.00,304.00
           C 501.00,304.00 484.00,302.00 484.00,302.00
             484.00,302.00 484.00,305.00 484.00,305.00
             484.00,305.00 501.00,307.00 501.00,307.00
             501.00,307.00 501.00,304.00 501.00,304.00 Z
           M 822.00,307.00
           C 816.74,307.00 808.23,306.17 805.00,311.00
             805.00,311.00 822.00,309.00 822.00,309.00
             822.00,309.00 822.00,307.00 822.00,307.00 Z
           M 1108.00,309.00
           C 1108.00,309.00 1091.00,307.00 1091.00,307.00
             1091.00,307.00 1091.00,310.00 1091.00,310.00
             1091.00,310.00 1108.00,312.00 1108.00,312.00
             1108.00,312.00 1108.00,309.00 1108.00,309.00 Z
           M 500.00,313.00
           C 496.98,308.66 487.96,309.01 483.00,309.00
             483.00,309.00 483.00,311.00 483.00,311.00
             483.00,311.00 500.00,313.00 500.00,313.00 Z
           M 1430.00,310.00
           C 1430.00,310.00 1413.00,312.00 1413.00,312.00
             1416.11,316.11 1425.29,313.38 1430.00,313.00
             1430.00,313.00 1430.00,310.00 1430.00,310.00 Z
           M 867.00,311.00
           C 867.00,311.00 865.00,311.00 865.00,311.00
             865.00,311.00 865.00,315.00 865.00,315.00
             865.00,315.00 867.00,315.00 867.00,315.00
             867.00,315.00 867.00,311.00 867.00,311.00 Z
           M 823.00,313.00
           C 823.00,313.00 806.00,314.00 806.00,314.00
             806.00,314.00 806.00,316.00 806.00,316.00
             806.00,316.00 823.00,315.00 823.00,315.00
             823.00,315.00 823.00,313.00 823.00,313.00 Z
           M 499.00,319.00
           C 499.00,319.00 497.41,316.59 497.41,316.59
             497.41,316.59 483.00,315.00 483.00,315.00
             483.00,315.00 484.54,317.00 484.54,317.00
             484.54,317.00 499.00,319.00 499.00,319.00 Z
           M 1107.00,319.00
           C 1104.05,315.20 1094.95,315.65 1090.00,315.00
             1092.19,321.07 1101.70,319.00 1107.00,319.00 Z
           M 1431.00,321.00
           C 1431.00,321.00 1429.46,319.44 1429.46,319.44
             1429.46,319.44 1416.29,319.44 1416.29,319.44
             1416.29,319.44 1414.00,322.00 1414.00,322.00
             1414.00,322.00 1431.00,321.00 1431.00,321.00 Z
           M 823.00,319.00
           C 823.00,319.00 806.00,320.00 806.00,320.00
             806.00,320.00 806.00,322.00 806.00,322.00
             806.00,322.00 823.00,322.00 823.00,322.00
             823.00,322.00 823.00,319.00 823.00,319.00 Z
           M 499.00,322.00
           C 499.00,322.00 482.00,321.00 482.00,321.00
             482.00,321.00 482.00,324.00 482.00,324.00
             482.00,324.00 499.00,324.00 499.00,324.00
             499.00,324.00 499.00,322.00 499.00,322.00 Z
           M 1127.00,324.00
           C 1127.00,324.00 1104.00,323.00 1104.00,323.00
             1104.00,323.00 1090.74,323.99 1090.74,323.99
             1090.74,323.99 1089.00,331.00 1089.00,331.00
             1089.00,331.00 1115.00,331.00 1115.00,331.00
             1115.00,331.00 1125.26,330.01 1125.26,330.01
             1125.26,330.01 1127.00,324.00 1127.00,324.00 Z
           M 824.00,324.00
           C 824.00,324.00 811.00,325.00 811.00,325.00
             811.00,325.00 786.00,326.00 786.00,326.00
             786.00,326.00 786.00,331.00 786.00,331.00
             786.00,331.00 824.00,331.00 824.00,331.00
             824.00,331.00 824.00,324.00 824.00,324.00 Z
           M 1431.00,325.04
           C 1431.00,325.04 1420.00,325.04 1420.00,325.04
             1420.00,325.04 1410.00,326.00 1410.00,326.00
             1410.00,326.00 1395.00,326.00 1395.00,326.00
             1395.00,326.00 1395.00,333.00 1395.00,333.00
             1395.00,333.00 1431.00,334.00 1431.00,334.00
             1431.00,334.00 1431.00,325.04 1431.00,325.04 Z
           M 519.00,327.00
           C 519.00,327.00 498.00,327.00 498.00,327.00
             498.00,327.00 482.00,326.00 482.00,326.00
             482.00,326.00 482.00,333.00 482.00,333.00
             482.00,333.00 519.00,333.00 519.00,333.00
             519.00,333.00 519.00,327.00 519.00,327.00 Z
           M 499.00,335.00
           C 499.00,335.00 482.00,336.00 482.00,336.00
             482.00,336.00 482.00,338.00 482.00,338.00
             482.00,338.00 499.00,338.00 499.00,338.00
             499.00,338.00 499.00,335.00 499.00,335.00 Z
           M 1431.00,337.00
           C 1431.00,337.00 1414.00,337.00 1414.00,337.00
             1414.00,337.00 1414.00,340.00 1414.00,340.00
             1414.00,340.00 1431.00,341.00 1431.00,341.00
             1431.00,341.00 1431.00,337.00 1431.00,337.00 Z
           M 499.00,341.00
           C 499.00,341.00 483.00,342.00 483.00,342.00
             483.00,342.00 483.00,345.00 483.00,345.00
             483.00,345.00 499.00,344.00 499.00,344.00
             499.00,344.00 499.00,341.00 499.00,341.00 Z
           M 449.00,503.00
           C 452.20,493.39 455.88,480.10 456.00,470.00
             456.00,470.00 456.00,454.00 456.00,454.00
             455.97,437.26 449.41,416.39 440.99,402.00
             404.09,338.98 321.20,324.60 264.00,368.89
             238.23,388.84 220.05,422.03 220.00,455.00
             220.00,455.00 220.00,469.00 220.00,469.00
             220.12,479.33 224.77,501.95 231.00,510.00
             231.00,510.00 223.42,484.00 223.42,484.00
             218.88,459.04 221.64,436.12 232.31,413.00
             235.33,406.45 240.71,398.74 245.12,393.00
             266.28,365.46 294.35,349.69 329.00,346.92
             332.80,346.61 334.97,345.86 339.00,346.09
             368.89,347.79 394.53,356.87 417.00,377.17
             440.33,398.25 454.64,429.51 455.00,461.00
             455.09,469.22 453.64,479.98 451.77,488.00
             450.72,492.49 447.81,498.60 449.00,503.00 Z
           M 1687.00,506.00
           C 1695.74,480.74 1697.90,464.48 1693.41,438.00
             1690.04,418.11 1680.79,400.57 1668.20,385.00
             1657.57,371.86 1641.51,360.37 1626.00,353.72
             1584.11,335.76 1539.16,340.59 1503.00,369.00
             1498.14,372.82 1494.43,375.35 1490.17,380.00
             1475.14,396.44 1464.15,419.10 1460.09,441.00
             1460.09,441.00 1458.92,454.00 1458.92,454.00
             1458.92,454.00 1458.18,461.00 1458.18,461.00
             1458.18,461.00 1458.91,468.00 1458.91,468.00
             1459.73,479.86 1459.59,479.34 1462.63,491.00
             1465.14,500.66 1471.87,519.33 1479.00,526.00
             1479.00,526.00 1466.35,498.00 1466.35,498.00
             1458.67,474.96 1458.67,449.06 1466.35,426.00
             1481.31,381.10 1522.19,350.33 1569.00,346.91
             1569.00,346.91 1577.00,346.08 1577.00,346.08
             1577.00,346.08 1585.00,346.91 1585.00,346.91
             1602.24,348.17 1613.43,350.99 1629.00,358.75
             1638.27,363.38 1645.10,367.42 1653.00,374.29
             1676.07,394.35 1693.63,427.01 1694.00,458.00
             1694.14,470.39 1693.62,476.86 1690.63,489.00
             1689.53,493.46 1685.94,502.08 1687.00,506.00 Z
           M 1430.00,346.00
           C 1430.00,346.00 1414.00,344.00 1414.00,344.00
             1414.00,344.00 1414.71,346.98 1414.71,346.98
             1414.71,346.98 1430.00,349.00 1430.00,349.00
             1430.00,349.00 1430.00,346.00 1430.00,346.00 Z
           M 500.00,347.00
           C 500.00,347.00 483.00,348.00 483.00,348.00
             483.00,348.00 483.00,351.00 483.00,351.00
             487.76,350.90 497.19,351.03 500.00,347.00 Z
           M 500.00,353.00
           C 500.00,353.00 484.00,355.00 484.00,355.00
             484.00,355.00 484.00,357.00 484.00,357.00
             488.84,356.96 496.85,357.05 500.00,353.00 Z
           M 1429.00,358.00
           C 1426.90,352.18 1417.26,353.02 1412.00,353.00
             1415.09,356.98 1424.11,357.11 1429.00,358.00 Z
           M 511.00,357.00
           C 504.93,357.28 498.95,358.61 493.00,359.80
             489.17,360.57 486.56,360.19 485.00,364.00
             485.00,364.00 511.00,359.00 511.00,359.00
             511.00,359.00 511.00,357.00 511.00,357.00 Z
           M 335.00,360.29
           C 323.85,361.88 319.91,361.17 308.00,364.72
             281.58,372.59 258.80,391.29 246.27,416.00
             226.76,454.49 235.27,502.34 265.09,532.96
             275.43,543.58 288.36,550.84 302.00,556.20
             312.17,560.20 323.00,562.87 334.00,563.00
             344.08,563.11 354.20,562.38 364.00,559.83
             406.38,548.83 439.93,509.40 440.00,465.00
             440.03,447.42 437.71,431.95 429.73,416.00
             413.41,383.36 381.97,363.54 346.00,360.91
             340.91,360.54 340.72,359.81 335.00,360.29 Z
           M 1428.00,363.00
           C 1428.00,363.00 1411.00,360.00 1411.00,360.00
             1412.93,364.79 1422.28,365.11 1427.00,366.00
             1427.00,366.00 1428.00,363.00 1428.00,363.00 Z
           M 1574.00,360.19
           C 1563.25,361.83 1559.58,361.12 1548.00,364.43
             1523.55,371.40 1501.57,387.81 1488.87,410.00
             1468.96,444.80 1470.35,490.99 1495.52,523.00
             1508.05,538.94 1524.95,550.69 1544.00,557.34
             1553.07,560.51 1563.35,562.88 1573.00,563.00
             1613.96,563.48 1650.79,543.43 1669.24,506.00
             1675.16,494.01 1678.98,480.43 1679.00,467.00
             1679.02,452.92 1679.04,442.69 1674.30,429.00
             1670.43,417.78 1664.21,407.20 1656.74,398.00
             1636.37,372.92 1610.78,361.89 1579.00,360.19
             1579.00,360.19 1574.00,360.19 1574.00,360.19 Z
           M 503.00,364.00
           C 498.14,364.69 489.82,366.07 486.00,369.00
             490.82,369.69 500.20,368.24 503.00,364.00 Z
           M 848.00,365.00
           C 848.00,365.00 847.00,365.00 847.00,365.00
             847.00,365.00 848.00,366.00 848.00,366.00
             848.00,366.00 848.00,365.00 848.00,365.00 Z
           M 1070.00,365.00
           C 1069.53,369.20 1071.99,371.44 1075.00,374.00
             1075.00,374.00 1070.00,365.00 1070.00,365.00 Z
           M 1426.00,371.00
           C 1426.00,371.00 1400.00,365.00 1400.00,365.00
             1400.00,365.00 1401.59,367.73 1401.59,367.73
             1401.59,367.73 1421.94,373.39 1421.94,373.39
             1421.94,373.39 1426.00,371.00 1426.00,371.00 Z
           M 505.00,371.00
           C 499.83,369.77 491.04,371.32 488.00,376.00
             488.00,376.00 505.00,371.00 505.00,371.00 Z
           M 855.00,370.00
           C 855.00,370.00 836.92,397.00 836.92,397.00
             836.92,397.00 819.06,424.00 819.06,424.00
             819.06,424.00 805.92,446.00 805.92,446.00
             805.92,446.00 773.00,497.00 773.00,497.00
             767.75,504.95 753.79,526.17 751.00,534.00
             751.00,534.00 762.41,519.00 762.41,519.00
             762.41,519.00 780.16,493.00 780.16,493.00
             780.16,493.00 830.68,413.00 830.68,413.00
             830.68,413.00 847.72,385.00 847.72,385.00
             847.72,385.00 855.00,370.00 855.00,370.00 Z
           M 843.00,372.00
           C 843.00,372.00 828.00,393.00 828.00,393.00
             828.00,393.00 799.94,437.00 799.94,437.00
             799.94,437.00 783.43,462.00 783.43,462.00
             783.43,462.00 757.58,504.00 757.58,504.00
             757.58,504.00 737.00,538.00 737.00,538.00
             741.54,535.30 745.71,527.58 748.58,523.00
             748.58,523.00 767.81,493.00 767.81,493.00
             767.81,493.00 801.95,440.00 801.95,440.00
             801.95,440.00 816.69,416.00 816.69,416.00
             822.61,406.89 840.20,380.86 843.00,372.00 Z
           M 1064.00,372.00
           C 1062.92,376.52 1066.57,380.16 1068.69,384.00
             1068.69,384.00 1084.67,411.00 1084.67,411.00
             1084.67,411.00 1138.00,495.00 1138.00,495.00
             1138.00,495.00 1152.17,516.00 1152.17,516.00
             1154.74,519.87 1156.96,524.58 1161.00,527.00
             1161.00,527.00 1135.81,485.00 1135.81,485.00
             1135.81,485.00 1122.06,464.00 1122.06,464.00
             1122.06,464.00 1093.16,418.00 1093.16,418.00
             1093.16,418.00 1070.14,382.00 1070.14,382.00
             1070.14,382.00 1064.00,372.00 1064.00,372.00 Z
           M 1076.00,374.00
           C 1075.53,378.12 1078.95,382.51 1081.01,386.00
             1081.01,386.00 1098.32,414.00 1098.32,414.00
             1098.32,414.00 1156.00,504.00 1156.00,504.00
             1156.00,504.00 1170.20,526.00 1170.20,526.00
             1172.97,530.56 1175.19,535.46 1180.00,538.00
             1180.00,538.00 1147.42,485.00 1147.42,485.00
             1147.42,485.00 1076.00,374.00 1076.00,374.00 Z
           M 506.00,375.00
           C 500.51,376.24 492.02,377.07 490.00,383.00
             490.00,383.00 504.43,377.87 504.43,377.87
             504.43,377.87 506.00,375.00 506.00,375.00 Z
           M 1424.00,379.00
           C 1424.00,379.00 1407.00,375.00 1407.00,375.00
             1408.88,380.26 1417.93,381.84 1423.00,383.00
             1423.00,383.00 1424.00,379.00 1424.00,379.00 Z
           M 528.00,378.00
           C 528.00,378.00 493.00,391.00 493.00,391.00
             493.00,391.00 495.00,397.00 495.00,397.00
             495.00,397.00 529.00,384.00 529.00,384.00
             529.00,384.00 528.00,378.00 528.00,378.00 Z
           M 508.00,381.00
           C 502.31,381.51 494.04,383.01 492.00,389.00
             497.10,387.30 505.07,385.68 508.00,381.00 Z
           M 1421.00,387.00
           C 1421.00,387.00 1405.00,382.00 1405.00,382.00
             1405.00,382.00 1404.00,383.00 1404.00,383.00
             1404.00,383.00 1404.00,385.00 1404.00,385.00
             1404.00,385.00 1420.00,391.00 1420.00,391.00
             1420.00,391.00 1421.00,387.00 1421.00,387.00 Z
           M 1418.00,396.00
           C 1418.00,396.00 1402.00,389.00 1402.00,389.00
             1402.00,389.00 1401.00,392.00 1401.00,392.00
             1405.56,394.53 1413.11,399.22 1418.00,396.00 Z
           M 513.00,393.00
           C 508.09,393.92 498.89,397.10 497.00,402.00
             501.84,400.63 511.11,397.91 513.00,393.00 Z
           M 1411.00,409.00
           C 1411.00,409.00 1378.00,393.00 1378.00,393.00
             1378.00,393.00 1376.00,399.00 1376.00,399.00
             1376.00,399.00 1408.00,417.00 1408.00,417.00
             1408.00,417.00 1411.00,409.00 1411.00,409.00 Z
           M 1414.00,406.00
           C 1412.14,400.70 1403.92,398.12 1399.11,396.00
             1399.01,396.78 1398.59,397.27 1399.11,398.62
             1400.79,401.92 1410.50,405.34 1414.00,406.00 Z
           M 516.00,399.00
           C 510.82,399.01 501.80,402.86 500.00,408.00
             504.57,406.03 513.38,403.04 516.00,399.00 Z
           M 518.00,404.00
           C 512.27,405.08 505.94,407.75 503.00,413.00
             508.34,411.48 515.11,408.96 518.00,404.00 Z
           M 532.00,408.00
           C 526.29,410.75 513.12,418.60 509.00,422.90
             509.00,422.90 513.00,422.90 513.00,422.90
             513.00,422.90 530.43,411.24 530.43,411.24
             530.43,411.24 532.00,408.00 532.00,408.00 Z
           M 521.00,409.00
           C 515.69,410.20 508.87,413.22 506.00,418.00
             510.98,417.83 518.48,413.33 521.00,409.00 Z
           M 1405.00,420.00
           C 1399.95,417.30 1394.93,412.52 1389.00,413.00
             1392.57,417.08 1398.93,421.06 1404.00,423.00
             1404.00,423.00 1405.00,422.00 1405.00,422.00
             1405.00,422.00 1405.00,420.00 1405.00,420.00 Z
           M 528.00,419.00
           C 524.23,419.18 515.80,423.53 514.11,427.21
             513.59,428.69 514.01,429.18 514.11,430.00
             518.98,427.37 524.39,423.33 528.00,419.00 Z
           M 1400.00,427.00
           C 1400.00,427.00 1386.00,418.00 1386.00,418.00
             1386.06,423.88 1393.92,428.25 1399.00,430.00
             1399.00,430.00 1400.00,429.00 1400.00,429.00
             1400.00,429.00 1400.00,427.00 1400.00,427.00 Z
           M 554.94,422.82
           C 549.24,424.59 537.16,437.12 532.89,442.09
             531.38,443.85 528.54,447.22 531.37,449.46
             532.19,449.85 533.06,449.92 534.02,449.46
             536.15,449.10 539.40,445.59 541.00,444.00
             541.00,444.00 554.94,430.00 554.94,430.00
             557.45,427.20 560.05,424.08 554.94,422.82 Z
           M 531.00,423.00
           C 531.00,423.00 517.00,432.00 517.00,432.00
             517.00,432.00 518.00,435.00 518.00,435.00
             522.93,432.15 528.92,428.51 531.00,423.00 Z
           M 1382.00,424.00
           C 1379.62,429.58 1389.60,435.12 1394.00,437.00
             1393.67,430.83 1386.62,427.29 1382.00,424.00 Z
           M 534.00,427.00
           C 529.34,429.96 522.06,433.97 522.00,440.00
             526.57,436.94 533.94,433.01 534.00,427.00 Z
           M 1383.00,449.00
           C 1383.00,449.00 1381.41,445.17 1381.41,445.17
             1381.41,445.17 1367.91,431.89 1367.91,431.89
             1367.91,431.89 1363.00,430.00 1363.00,430.00
             1365.82,435.97 1376.65,447.14 1383.00,449.00 Z
           M 1389.00,443.00
           C 1386.44,437.37 1381.59,432.63 1376.00,430.00
             1376.00,430.00 1375.00,431.00 1375.00,431.00
             1377.53,436.24 1383.40,441.36 1389.00,443.00 Z
           M 539.00,433.00
           C 532.87,433.06 528.33,439.35 525.00,444.00
             531.01,442.29 535.41,437.97 539.00,433.00 Z
           M 547.00,441.00
           C 547.00,441.00 535.00,454.00 535.00,454.00
             535.00,454.00 536.00,455.00 536.00,455.00
             540.65,451.67 546.94,447.13 547.00,441.00 Z
           M 1377.00,455.00
           C 1375.35,449.39 1370.17,443.06 1364.00,443.00
             1367.10,447.34 1371.85,453.31 1377.00,455.00 Z
           M 1333.00,443.00
           C 1333.00,443.00 1326.00,446.00 1326.00,446.00
             1326.00,446.00 1344.00,478.00 1344.00,478.00
             1344.00,478.00 1350.30,473.62 1350.30,473.62
             1350.30,473.62 1346.81,465.00 1346.81,465.00
             1346.81,465.00 1333.00,443.00 1333.00,443.00 Z
           M 553.00,446.00
           C 553.00,446.00 550.00,445.00 550.00,445.00
             546.63,449.45 541.33,453.22 541.00,459.00
             541.00,459.00 553.00,446.00 553.00,446.00 Z
           M 1370.00,461.00
           C 1370.00,455.02 1364.11,448.06 1358.00,448.00
             1360.83,452.85 1364.82,458.55 1370.00,461.00 Z
           M 571.00,448.00
           C 567.44,451.00 557.12,463.83 556.03,468.00
             555.59,469.83 555.96,470.00 556.03,471.00
             560.93,467.12 570.79,454.22 571.00,448.00 Z
           M 557.00,449.00
           C 551.72,451.52 546.33,456.95 546.00,463.00
             550.50,459.50 555.37,454.54 557.00,449.00 Z
           M 602.00,453.00
           C 595.46,451.91 594.78,455.61 592.42,461.00
             592.42,461.00 582.00,485.18 582.00,485.18
             584.20,485.95 586.15,487.16 588.35,485.18
             589.95,484.05 591.82,479.07 592.77,477.00
             595.43,471.17 600.94,458.86 602.00,453.00 Z
           M 1356.00,452.00
           C 1356.00,452.00 1352.00,453.00 1352.00,453.00
             1354.74,457.72 1358.65,464.23 1364.00,466.00
             1364.00,466.00 1356.00,452.00 1356.00,452.00 Z
           M 562.00,453.00
           C 556.10,454.77 552.33,460.52 550.00,466.00
             550.00,466.00 551.00,467.00 551.00,467.00
             551.00,467.00 553.00,467.00 553.00,467.00
             553.00,467.00 562.00,453.00 562.00,453.00 Z
           M 1348.00,456.00
           C 1345.38,460.82 1351.64,466.80 1354.00,471.00
             1354.00,471.00 1358.00,470.00 1358.00,470.00
             1358.00,470.00 1348.00,456.00 1348.00,456.00 Z
           M 571.00,459.00
           C 571.00,459.00 569.00,459.00 569.00,459.00
             569.00,459.00 560.00,473.00 560.00,473.00
             566.22,472.94 569.90,464.40 571.00,459.00 Z
           M 576.00,462.00
           C 576.00,462.00 574.00,462.00 574.00,462.00
             574.00,462.00 566.00,477.00 566.00,477.00
             566.00,477.00 567.00,478.00 567.00,478.00
             567.00,478.00 569.00,478.00 569.00,478.00
             569.00,478.00 576.00,462.00 576.00,462.00 Z
           M 653.00,463.00
           C 653.00,463.00 647.00,463.00 647.00,463.00
             647.00,463.00 647.00,486.00 647.00,486.00
             647.00,486.00 646.00,500.00 646.00,500.00
             646.00,500.00 653.00,500.00 653.00,500.00
             653.00,500.00 653.00,463.00 653.00,463.00 Z
           M 1269.00,500.00
           C 1269.00,500.00 1267.81,490.00 1267.81,490.00
             1267.81,490.00 1267.81,473.00 1267.81,473.00
             1267.81,473.00 1265.98,464.60 1265.98,464.60
             1265.98,464.60 1260.00,463.00 1260.00,463.00
             1260.00,463.00 1260.00,500.00 1260.00,500.00
             1260.00,500.00 1269.00,500.00 1269.00,500.00 Z
           M 581.00,465.00
           C 581.00,465.00 579.00,465.00 579.00,465.00
             576.80,469.58 571.06,476.01 574.00,481.00
             574.00,481.00 581.00,465.00 581.00,465.00 Z
           M 1334.00,465.00
           C 1334.00,465.00 1332.00,465.00 1332.00,465.00
             1331.44,470.76 1335.23,476.13 1338.00,481.00
             1338.00,481.00 1341.00,480.00 1341.00,480.00
             1341.00,480.00 1334.00,465.00 1334.00,465.00 Z
           M 587.00,468.00
           C 587.00,468.00 584.00,468.00 584.00,468.00
             581.69,473.36 577.95,478.09 579.00,484.00
             579.00,484.00 587.00,468.00 587.00,468.00 Z
           M 1302.00,468.00
           C 1302.00,468.00 1299.00,468.00 1299.00,468.00
             1299.00,468.00 1306.00,494.00 1306.00,494.00
             1310.06,490.85 1308.09,488.38 1306.67,484.00
             1306.67,484.00 1302.00,468.00 1302.00,468.00 Z
           M 1327.00,469.00
           C 1327.00,469.00 1324.00,469.00 1324.00,469.00
             1324.00,469.00 1330.00,485.00 1330.00,485.00
             1335.04,481.37 1328.88,473.36 1327.00,469.00 Z
           M 623.00,470.00
           C 623.00,470.00 621.00,470.00 621.00,470.00
             621.00,470.00 616.00,496.00 616.00,496.00
             616.00,496.00 618.49,493.71 618.49,493.71
             618.49,493.71 623.00,470.00 623.00,470.00 Z
           M 1325.00,488.00
           C 1324.46,484.54 1322.05,475.07 1319.31,472.99
             1318.16,472.12 1317.27,472.22 1316.00,472.00
             1317.45,477.37 1319.30,486.05 1325.00,488.00 Z
           M 599.00,473.00
           C 599.00,473.00 596.00,473.00 596.00,473.00
             596.00,473.00 591.00,489.00 591.00,489.00
             596.17,485.98 597.98,478.62 599.00,473.00 Z
           M 1312.00,474.00
           C 1312.00,474.00 1310.00,474.00 1310.00,474.00
             1309.34,479.13 1311.71,489.11 1317.00,491.00
             1317.00,491.00 1312.00,474.00 1312.00,474.00 Z
           M 605.00,475.00
           C 605.00,475.00 601.85,476.59 601.85,476.59
             601.85,476.59 597.00,491.00 597.00,491.00
             602.26,489.12 603.84,480.07 605.00,475.00 Z
           M 610.00,477.00
           C 610.00,477.00 607.00,477.00 607.00,477.00
             607.00,477.00 603.00,493.00 603.00,493.00
             608.50,491.02 609.27,482.17 610.00,477.00 Z
           M 616.00,478.00
           C 616.00,478.00 614.00,478.00 614.00,478.00
             614.00,478.00 609.00,495.00 609.00,495.00
             609.00,495.00 611.87,493.43 611.87,493.43
             611.87,493.43 616.00,478.00 616.00,478.00 Z
           M 1297.00,479.00
           C 1297.00,479.00 1294.00,479.00 1294.00,479.00
             1294.00,479.00 1298.00,496.00 1298.00,496.00
             1298.00,496.00 1301.00,495.00 1301.00,495.00
             1301.00,495.00 1297.00,479.00 1297.00,479.00 Z
           M 1288.00,480.00
           C 1285.97,485.18 1288.55,491.52 1289.00,497.00
             1289.00,497.00 1292.00,497.00 1292.00,497.00
             1291.76,491.86 1290.84,484.30 1288.00,480.00 Z
           M 627.00,481.00
           C 627.00,481.00 625.00,481.00 625.00,481.00
             625.00,481.00 622.00,497.00 622.00,497.00
             622.00,497.00 624.01,496.00 624.01,496.00
             624.01,496.00 627.00,481.00 627.00,481.00 Z
           M 632.00,481.00
           C 629.08,485.51 629.02,492.70 629.00,498.00
             629.00,498.00 631.00,498.00 631.00,498.00
             631.00,498.00 632.00,481.00 632.00,481.00 Z
           M 1282.00,481.00
           C 1276.84,484.87 1279.42,493.62 1281.00,499.00
             1281.00,499.00 1283.00,499.00 1283.00,499.00
             1283.00,499.00 1282.00,481.00 1282.00,481.00 Z
           M 639.00,482.00
           C 639.00,482.00 636.00,482.00 636.00,482.00
             636.00,482.00 635.00,499.00 635.00,499.00
             635.00,499.00 637.00,499.00 637.00,499.00
             637.00,499.00 639.00,482.00 639.00,482.00 Z
           M 1274.00,482.00
           C 1274.00,482.00 1272.00,482.00 1272.00,482.00
             1272.00,482.00 1272.00,499.00 1272.00,499.00
             1272.00,499.00 1275.00,499.00 1275.00,499.00
             1275.00,499.00 1274.00,482.00 1274.00,482.00 Z
           M 645.00,483.00
           C 645.00,483.00 642.00,483.00 642.00,483.00
             642.00,483.00 641.00,500.00 641.00,500.00
             645.42,497.04 644.99,487.99 645.00,483.00 Z
           M 448.00,503.00
           C 448.00,503.00 447.00,508.00 447.00,508.00
             447.00,508.00 448.00,503.00 448.00,503.00 Z
           M 1686.00,506.00
           C 1686.00,506.00 1670.00,533.00 1670.00,533.00
             1676.43,529.30 1684.62,513.34 1686.00,506.00 Z
           M 232.00,510.00
           C 231.23,513.19 231.85,513.66 234.00,516.00
             234.00,516.00 232.00,510.00 232.00,510.00 Z
           M 445.00,510.00
           C 445.00,510.00 443.00,516.00 443.00,516.00
             443.00,516.00 445.00,510.00 445.00,510.00 Z
           M 236.00,518.00
           C 235.31,523.27 240.55,529.69 245.00,532.00
             245.00,532.00 236.00,518.00 236.00,518.00 Z
           M 441.00,518.00
           C 441.00,518.00 430.00,534.00 430.00,534.00
             434.97,531.14 439.65,523.52 441.00,518.00 Z
           M 1480.00,526.00
           C 1479.81,529.66 1481.35,530.73 1484.00,533.00
             1484.00,533.00 1480.00,526.00 1480.00,526.00 Z
           M 245.00,533.00
           C 245.00,533.00 249.00,538.00 249.00,538.00
             249.00,538.00 245.00,533.00 245.00,533.00 Z
           M 1485.00,533.00
           C 1485.00,533.00 1487.00,536.00 1487.00,536.00
             1487.00,536.00 1487.00,535.00 1487.00,535.00
             1487.00,535.00 1485.00,533.00 1485.00,533.00 Z
           M 1668.00,536.00
           C 1668.00,536.00 1667.00,536.00 1667.00,536.00
             1667.00,536.00 1668.00,537.00 1668.00,537.00
             1668.00,537.00 1668.00,536.00 1668.00,536.00 Z
           M 1488.00,537.00
           C 1488.00,537.00 1487.00,537.00 1487.00,537.00
             1487.00,537.00 1488.00,538.00 1488.00,538.00
             1488.00,538.00 1488.00,537.00 1488.00,537.00 Z
           M 1667.00,537.00
           C 1667.00,537.00 1666.00,537.00 1666.00,537.00
             1666.00,537.00 1667.00,538.00 1667.00,538.00
             1667.00,538.00 1667.00,537.00 1667.00,537.00 Z
           M 427.00,538.00
           C 427.00,538.00 419.00,546.00 419.00,546.00
             422.85,544.17 425.17,541.85 427.00,538.00 Z
           M 1666.00,538.00
           C 1666.00,538.00 1665.00,538.00 1665.00,538.00
             1665.00,538.00 1666.00,539.00 1666.00,539.00
             1666.00,539.00 1666.00,538.00 1666.00,538.00 Z
           M 1665.00,539.00
           C 1665.00,539.00 1664.00,539.00 1664.00,539.00
             1664.00,539.00 1665.00,540.00 1665.00,540.00
             1665.00,540.00 1665.00,539.00 1665.00,539.00 Z
           M 252.00,540.00
           C 252.00,540.00 251.00,540.00 251.00,540.00
             251.00,540.00 252.00,541.00 252.00,541.00
             252.00,541.00 252.00,540.00 252.00,540.00 Z
           M 1491.00,540.00
           C 1491.00,540.00 1490.00,540.00 1490.00,540.00
             1490.00,540.00 1491.00,541.00 1491.00,541.00
             1491.00,541.00 1491.00,540.00 1491.00,540.00 Z
           M 253.00,541.00
           C 253.00,541.00 252.00,541.00 252.00,541.00
             252.00,541.00 253.00,542.00 253.00,542.00
             253.00,542.00 253.00,541.00 253.00,541.00 Z
           M 633.00,541.00
           C 633.00,541.00 624.00,542.00 624.00,542.00
             624.00,542.00 633.00,541.00 633.00,541.00 Z
           M 1664.00,541.00
           C 1664.00,541.00 1663.00,541.00 1663.00,541.00
             1663.00,541.00 1664.00,542.00 1664.00,542.00
             1664.00,542.00 1664.00,541.00 1664.00,541.00 Z
           M 254.00,542.00
           C 254.00,542.00 253.00,542.00 253.00,542.00
             253.00,542.00 254.00,543.00 254.00,543.00
             254.00,543.00 254.00,542.00 254.00,542.00 Z
           M 1172.00,542.00
           C 1172.00,542.00 873.00,542.00 873.00,542.00
             873.00,542.00 786.00,542.00 786.00,542.00
             786.00,542.00 761.00,542.00 761.00,542.00
             761.00,542.00 747.00,543.00 747.00,543.00
             760.20,544.74 773.69,544.00 787.00,544.00
             787.00,544.00 850.00,544.00 850.00,544.00
             850.00,544.00 1045.00,544.00 1045.00,544.00
             1045.00,544.00 1131.00,544.00 1131.00,544.00
             1140.00,544.00 1164.82,544.86 1172.00,542.00 Z
           M 1269.00,542.00
           C 1269.00,542.00 1268.00,542.00 1268.00,542.00
             1268.00,542.00 1269.00,543.00 1269.00,543.00
             1269.00,543.00 1269.00,542.00 1269.00,542.00 Z
           M 1280.00,542.00
           C 1280.00,542.00 1274.00,543.00 1274.00,543.00
             1274.00,543.00 1280.00,542.00 1280.00,542.00 Z
           M 255.00,543.00
           C 255.00,543.00 254.00,543.00 254.00,543.00
             254.00,543.00 255.00,544.00 255.00,544.00
             255.00,544.00 255.00,543.00 255.00,543.00 Z
           M 1662.00,543.00
           C 1662.00,543.00 1661.00,543.00 1661.00,543.00
             1661.00,543.00 1662.00,544.00 1662.00,544.00
             1662.00,544.00 1662.00,543.00 1662.00,543.00 Z
           M 256.00,544.00
           C 256.00,544.00 255.00,544.00 255.00,544.00
             255.00,544.00 256.00,545.00 256.00,545.00
             256.00,545.00 256.00,544.00 256.00,544.00 Z
           M 257.00,545.00
           C 257.00,545.00 256.00,545.00 256.00,545.00
             256.00,545.00 257.00,546.00 257.00,546.00
             257.00,546.00 257.00,545.00 257.00,545.00 Z
           M 1660.00,545.00
           C 1660.00,545.00 1659.00,545.00 1659.00,545.00
             1659.00,545.00 1660.00,546.00 1660.00,546.00
             1660.00,546.00 1660.00,545.00 1660.00,545.00 Z
           M 258.00,546.00
           C 258.00,546.00 257.00,546.00 257.00,546.00
             257.00,546.00 258.00,547.00 258.00,547.00
             258.00,547.00 258.00,546.00 258.00,546.00 Z
           M 419.00,546.00
           C 419.00,546.00 418.00,546.00 418.00,546.00
             418.00,546.00 419.00,547.00 419.00,547.00
             419.00,547.00 419.00,546.00 419.00,546.00 Z
           M 259.00,547.00
           C 259.00,547.00 258.00,547.00 258.00,547.00
             258.00,547.00 259.00,548.00 259.00,548.00
             259.00,548.00 259.00,547.00 259.00,547.00 Z
           M 418.00,547.00
           C 418.00,547.00 417.00,547.00 417.00,547.00
             417.00,547.00 418.00,548.00 418.00,548.00
             418.00,548.00 418.00,547.00 418.00,547.00 Z
           M 1498.00,547.00
           C 1498.00,547.00 1497.00,547.00 1497.00,547.00
             1497.00,547.00 1498.00,548.00 1498.00,548.00
             1498.00,548.00 1498.00,547.00 1498.00,547.00 Z
           M 1656.00,548.00
           C 1656.00,548.00 1655.00,548.00 1655.00,548.00
             1655.00,548.00 1656.00,549.00 1656.00,549.00
             1656.00,549.00 1656.00,548.00 1656.00,548.00 Z
           M 1655.00,549.00
           C 1655.00,549.00 1654.00,549.00 1654.00,549.00
             1654.00,549.00 1655.00,550.00 1655.00,550.00
             1655.00,550.00 1655.00,549.00 1655.00,549.00 Z
           M 1502.00,550.00
           C 1502.00,550.00 1501.00,550.00 1501.00,550.00
             1501.00,550.00 1502.00,551.00 1502.00,551.00
             1502.00,551.00 1502.00,550.00 1502.00,550.00 Z
           M 1653.00,550.00
           C 1653.00,550.00 1652.00,550.00 1652.00,550.00
             1652.00,550.00 1653.00,551.00 1653.00,551.00
             1653.00,551.00 1653.00,550.00 1653.00,550.00 Z
           M 1503.00,551.00
           C 1503.00,551.00 1502.00,551.00 1502.00,551.00
             1502.00,551.00 1503.00,552.00 1503.00,552.00
             1503.00,552.00 1503.00,551.00 1503.00,551.00 Z
           M 412.00,552.00
           C 412.00,552.00 411.00,552.00 411.00,552.00
             411.00,552.00 412.00,553.00 412.00,553.00
             412.00,553.00 412.00,552.00 412.00,552.00 Z
           M 267.00,553.00
           C 267.00,553.00 266.00,553.00 266.00,553.00
             266.00,553.00 267.00,554.00 267.00,554.00
             267.00,554.00 267.00,553.00 267.00,553.00 Z
           M 411.00,553.00
           C 411.00,553.00 410.00,553.00 410.00,553.00
             410.00,553.00 411.00,554.00 411.00,554.00
             411.00,554.00 411.00,553.00 411.00,553.00 Z
           M 1648.00,554.00
           C 1648.00,554.00 1647.00,554.00 1647.00,554.00
             1647.00,554.00 1648.00,555.00 1648.00,555.00
             1648.00,555.00 1648.00,554.00 1648.00,554.00 Z
           M 269.00,555.00
           C 269.00,555.00 268.00,555.00 268.00,555.00
             268.00,555.00 269.00,556.00 269.00,556.00
             269.00,556.00 269.00,555.00 269.00,555.00 Z
           M 272.00,557.00
           C 272.00,557.00 271.00,557.00 271.00,557.00
             271.00,557.00 272.00,558.00 272.00,558.00
             272.00,558.00 272.00,557.00 272.00,557.00 Z
           M 1511.00,557.00
           C 1511.00,557.00 1510.00,557.00 1510.00,557.00
             1510.00,557.00 1511.00,558.00 1511.00,558.00
             1511.00,558.00 1511.00,557.00 1511.00,557.00 Z
           M 1644.00,557.00
           C 1644.00,557.00 1643.00,557.00 1643.00,557.00
             1643.00,557.00 1644.00,558.00 1644.00,558.00
             1644.00,558.00 1644.00,557.00 1644.00,557.00 Z
           M 404.00,558.00
           C 404.00,558.00 403.00,558.00 403.00,558.00
             403.00,558.00 404.00,559.00 404.00,559.00
             404.00,559.00 404.00,558.00 404.00,558.00 Z
           M 1513.00,558.00
           C 1513.00,558.00 1512.00,558.00 1512.00,558.00
             1512.00,558.00 1513.00,559.00 1513.00,559.00
             1513.00,559.00 1513.00,558.00 1513.00,558.00 Z
           M 1643.00,558.00
           C 1643.00,558.00 1642.00,558.00 1642.00,558.00
             1642.00,558.00 1643.00,559.00 1643.00,559.00
             1643.00,559.00 1643.00,558.00 1643.00,558.00 Z
           M 403.00,559.00
           C 403.00,559.00 402.00,559.00 402.00,559.00
             402.00,559.00 403.00,560.00 403.00,560.00
             403.00,560.00 403.00,559.00 403.00,559.00 Z" />
</svg>
