<?xml version="1.0" encoding="UTF-8" standalone="no"?>
<!DOCTYPE svg PUBLIC "-//W3C//DTD SVG 20010904//EN"
              "http://www.w3.org/TR/2001/REC-SVG-20010904/DTD/svg10.dtd">

<svg xmlns="http://www.w3.org/2000/svg"
     width="52.9101mm" height="52.9101mm"
     viewBox="0 0 150 150">
  <path id="Selection #1"
        fill="none" stroke="black" stroke-width="1"
        d="M 48.00,119.00
           C 48.24,110.37 49.98,114.67 50.00,104.00
             50.00,104.00 50.00,48.00 50.00,48.00
             50.00,42.92 48.45,29.80 53.15,27.02
             55.20,25.81 58.65,26.00 61.00,26.00
             61.00,26.00 94.00,26.00 94.00,26.00
             96.73,26.04 100.08,25.90 101.83,28.43
             103.24,30.48 103.00,34.55 103.00,37.00
             103.00,37.00 103.00,57.00 103.00,57.00
             103.01,59.68 102.67,63.34 104.60,65.44
             106.45,67.47 109.86,67.54 112.30,70.39
             114.77,73.28 114.95,77.40 115.01,81.00
             115.04,84.64 113.82,97.70 115.01,99.79
             119.00,106.66 131.02,104.75 132.65,96.99
             133.30,93.89 130.93,86.25 130.00,83.00
             127.96,75.87 126.09,68.45 126.00,61.00
             125.94,55.58 126.74,47.79 124.31,43.00
             119.76,34.01 114.38,37.87 112.00,31.00
             125.84,31.01 135.65,35.58 136.00,51.00
             136.00,51.00 129.00,51.00 129.00,51.00
             129.00,70.35 128.79,66.30 133.85,85.00
             135.18,89.93 137.50,97.35 134.40,101.96
             128.64,110.52 113.74,108.34 111.43,99.98
             109.87,94.33 114.01,84.74 112.06,78.00
             111.30,75.39 107.18,68.37 104.02,72.42
             102.79,74.00 103.00,78.02 103.00,80.00
             103.00,80.00 103.00,103.00 103.00,103.00
             103.02,113.28 104.74,110.53 105.00,119.00
             105.00,119.00 48.00,119.00 48.00,119.00 Z
           M 57.31,35.60
           C 56.56,36.24 56.34,35.80 55.60,37.31
             54.66,39.23 54.95,52.05 55.00,55.00
             55.03,56.62 54.96,59.06 56.02,60.40
             57.49,62.26 60.87,61.98 63.00,62.00
             63.00,62.00 90.00,62.00 90.00,62.00
             91.99,62.00 95.81,62.23 97.40,60.98
             99.38,59.41 99.00,55.30 99.00,53.00
             99.00,53.00 99.00,42.00 99.00,42.00
             98.95,39.65 99.15,36.81 96.69,35.60
             94.89,34.72 87.39,35.00 85.00,35.00
             78.88,35.00 62.22,34.41 57.31,35.60 Z
           M 38.00,110.00
           C 35.83,109.93 34.09,109.99 32.04,109.07
             28.46,107.45 13.95,91.96 10.00,88.03
             7.49,85.54 2.71,81.72 2.45,78.00
             2.15,73.96 7.36,69.65 10.00,67.00
             13.83,63.16 28.50,47.77 32.00,46.02
             34.06,44.99 35.80,45.08 38.00,45.00
             38.00,45.00 38.00,110.00 38.00,110.00 Z" />
</svg>
