<?xml version="1.0" encoding="UTF-8" standalone="no"?>
<!DOCTYPE svg PUBLIC "-//W3C//DTD SVG 20010904//EN"
              "http://www.w3.org/TR/2001/REC-SVG-20010904/DTD/svg10.dtd">

<svg xmlns="http://www.w3.org/2000/svg"
     width="52.9101mm" height="52.9101mm"
     viewBox="0 0 150 150">
  <path id="Selection"
        fill="none" stroke="black" stroke-width="1"
        d="M 80.04,41.57
           C 90.01,39.73 104.62,41.93 113.00,47.80
             127.30,57.81 129.84,73.68 115.71,85.21
             112.74,87.65 107.62,89.99 104.00,91.38
             97.33,93.94 93.00,94.09 86.00,94.00
             83.75,93.97 81.22,94.01 79.21,92.83
             76.64,91.31 75.02,87.63 73.78,85.00
             69.11,75.07 69.03,65.51 71.66,55.00
             73.05,49.45 74.49,43.97 80.04,41.57 Z
           M 30.00,44.00
           C 30.00,44.00 68.00,44.00 68.00,44.00
             68.00,44.00 68.00,48.00 68.00,48.00
             68.00,48.00 30.00,48.00 30.00,48.00
             30.00,48.00 30.00,44.00 30.00,44.00 Z
           M 80.00,48.01
           C 78.75,54.71 75.64,59.36 76.18,67.00
             76.53,71.87 77.84,81.88 80.99,85.57
             84.38,89.54 92.54,87.74 97.00,86.79
             107.14,84.63 120.89,77.56 118.31,65.00
             117.72,62.15 116.59,59.55 114.70,57.33
             113.16,55.52 110.95,53.88 108.91,52.67
             105.25,50.48 101.22,48.71 97.00,48.01
             89.40,46.76 87.58,46.64 80.00,48.01 Z
           M 29.00,53.00
           C 29.00,53.00 43.00,53.00 43.00,53.00
             43.00,53.00 59.00,53.00 59.00,53.00
             60.84,53.01 64.71,52.77 65.83,54.54
             68.23,58.33 59.48,58.00 58.00,58.00
             58.00,58.00 40.00,58.00 40.00,58.00
             37.98,58.00 32.96,58.21 31.31,57.40
             29.28,56.41 29.34,54.92 29.00,53.00 Z
           M 28.00,67.00
           C 29.03,61.13 31.74,62.01 37.00,62.00
             37.00,62.00 59.00,62.00 59.00,62.00
             63.80,62.09 65.13,62.07 66.00,67.00
             66.00,67.00 28.00,67.00 28.00,67.00 Z
           M 29.00,73.00
           C 29.00,73.00 43.00,73.00 43.00,73.00
             43.00,73.00 59.00,73.00 59.00,73.00
             60.84,73.01 64.71,72.77 65.83,74.54
             68.23,78.33 59.48,78.00 58.00,78.00
             58.00,78.00 40.00,78.00 40.00,78.00
             37.98,78.00 32.96,78.21 31.31,77.40
             29.28,76.41 29.34,74.92 29.00,73.00 Z
           M 30.00,87.00
           C 31.03,81.13 33.74,82.01 39.00,82.00
             39.00,82.00 61.00,82.00 61.00,82.00
             65.80,82.09 67.13,82.07 68.00,87.00
             68.00,87.00 30.00,87.00 30.00,87.00 Z" />
</svg>
