<?xml version="1.0" encoding="UTF-8" standalone="no"?>
<!DOCTYPE svg PUBLIC "-//W3C//DTD SVG 20010904//EN"
              "http://www.w3.org/TR/2001/REC-SVG-20010904/DTD/svg10.dtd">

<svg xmlns="http://www.w3.org/2000/svg"
     width="1341.45mm" height="541.446mm"
     viewBox="0 0 3803 1535">
  <path id="Selection #6"
        fill="#171717" stroke="black" stroke-width="1"
        d="M 1067.00,1352.00
           C 1069.81,1358.59 1078.69,1368.94 1083.35,1375.00
             1085.32,1377.56 1089.71,1382.66 1089.46,1385.96
             1089.24,1388.83 1085.99,1391.25 1084.00,1393.05
             1084.00,1393.05 1067.00,1407.87 1067.00,1407.87
             1067.00,1407.87 1000.00,1466.00 1000.00,1466.00
             1000.00,1466.00 942.00,1514.60 942.00,1514.60
             937.52,1518.19 925.50,1528.78 921.00,1530.30
             918.56,1531.12 915.57,1531.00 913.00,1531.00
             913.00,1531.00 836.00,1531.00 836.00,1531.00
             836.00,1531.00 815.00,1530.00 815.00,1530.00
             815.00,1530.00 803.00,1530.68 803.00,1530.68
             803.00,1530.68 793.00,1530.00 793.00,1530.00
             793.00,1530.00 612.00,1530.00 612.00,1530.00
             612.00,1530.00 602.00,1529.09 602.00,1529.09
             602.00,1529.09 559.00,1525.15 559.00,1525.15
             500.23,1518.13 444.06,1501.74 390.00,1477.86
             390.00,1477.86 334.00,1451.82 334.00,1451.82
             314.72,1441.35 296.05,1429.46 278.00,1417.02
             278.00,1417.02 260.00,1404.85 260.00,1404.85
             195.56,1357.59 138.55,1298.25 95.31,1231.00
             95.31,1231.00 79.43,1206.00 79.43,1206.00
             79.43,1206.00 61.75,1171.00 61.75,1171.00
             51.03,1149.56 40.75,1127.61 32.69,1105.00
             20.82,1071.66 12.77,1036.99 7.73,1002.00
             7.73,1002.00 3.00,952.00 3.00,952.00
             3.00,952.00 3.00,882.00 3.00,882.00
             3.00,882.00 3.91,872.00 3.91,872.00
             5.49,849.05 8.15,826.66 12.39,804.00
             20.25,761.98 31.45,720.79 47.20,681.00
             47.20,681.00 62.15,646.00 62.15,646.00
             62.15,646.00 80.27,604.00 80.27,604.00
             80.27,604.00 111.40,548.00 111.40,548.00
             199.11,400.08 328.60,272.17 483.00,194.97
             558.53,157.20 620.62,142.09 702.00,124.79
             702.00,124.79 794.00,105.60 794.00,105.60
             918.81,80.63 1044.70,60.87 1171.00,45.28
             1171.00,45.28 1206.00,41.83 1206.00,41.83
             1206.00,41.83 1264.00,35.17 1264.00,35.17
             1264.00,35.17 1333.00,28.83 1333.00,28.83
             1333.00,28.83 1455.00,18.91 1455.00,18.91
             1455.00,18.91 1496.00,16.00 1496.00,16.00
             1496.00,16.00 1510.00,15.00 1510.00,15.00
             1510.00,15.00 1531.00,14.00 1531.00,14.00
             1531.00,14.00 1541.00,13.00 1541.00,13.00
             1541.00,13.00 1551.00,13.00 1551.00,13.00
             1551.00,13.00 1564.00,12.00 1564.00,12.00
             1564.00,12.00 1579.00,11.00 1579.00,11.00
             1579.00,11.00 1609.00,10.00 1609.00,10.00
             1609.00,10.00 1624.00,9.00 1624.00,9.00
             1624.00,9.00 1647.00,8.00 1647.00,8.00
             1647.00,8.00 1681.00,7.00 1681.00,7.00
             1681.00,7.00 1696.00,6.00 1696.00,6.00
             1696.00,6.00 1717.00,6.00 1717.00,6.00
             1717.00,6.00 1733.00,5.00 1733.00,5.00
             1733.00,5.00 1755.00,5.00 1755.00,5.00
             1755.00,5.00 1771.00,4.00 1771.00,4.00
             1771.00,4.00 1800.00,4.00 1800.00,4.00
             1800.00,4.00 1817.00,3.00 1817.00,3.00
             1817.00,3.00 2017.00,3.00 2017.00,3.00
             2017.00,3.00 2032.00,4.00 2032.00,4.00
             2032.00,4.00 2099.00,5.00 2099.00,5.00
             2099.00,5.00 2114.00,6.00 2114.00,6.00
             2114.00,6.00 2128.00,6.00 2128.00,6.00
             2128.00,6.00 2144.00,7.00 2144.00,7.00
             2144.00,7.00 2200.00,9.00 2200.00,9.00
             2200.00,9.00 2215.00,10.00 2215.00,10.00
             2215.00,10.00 2242.00,11.09 2242.00,11.09
             2242.00,11.09 2254.00,12.00 2254.00,12.00
             2254.00,12.00 2274.00,13.00 2274.00,13.00
             2274.00,13.00 2284.00,13.91 2284.00,13.91
             2284.00,13.91 2307.00,15.00 2307.00,15.00
             2307.00,15.00 2318.00,15.96 2318.00,15.96
             2318.00,15.96 2384.00,20.91 2384.00,20.91
             2384.00,20.91 2533.00,34.17 2533.00,34.17
             2533.00,34.17 2589.00,40.84 2589.00,40.84
             2589.00,40.84 2684.00,52.72 2684.00,52.72
             2754.91,62.05 2825.61,72.88 2896.00,85.58
             2966.21,98.24 3036.31,111.27 3106.00,126.58
             3106.00,126.58 3163.00,138.88 3163.00,138.88
             3212.75,150.68 3261.91,166.95 3308.00,189.26
             3343.34,206.36 3377.17,227.22 3410.00,248.66
             3410.00,248.66 3464.00,285.50 3464.00,285.50
             3464.00,285.50 3486.00,303.59 3486.00,303.59
             3516.11,328.65 3544.39,355.34 3571.09,384.00
             3571.09,384.00 3610.54,428.00 3610.54,428.00
             3610.54,428.00 3622.01,443.00 3622.01,443.00
             3658.37,489.59 3691.60,538.41 3718.74,591.00
             3718.74,591.00 3732.31,620.00 3732.31,620.00
             3762.25,685.38 3779.89,733.83 3792.25,805.00
             3792.25,805.00 3799.09,864.00 3799.09,864.00
             3799.09,864.00 3800.00,874.00 3800.00,874.00
             3800.00,874.00 3800.00,946.00 3800.00,946.00
             3800.00,946.00 3798.09,970.00 3798.09,970.00
             3794.84,1016.44 3783.19,1065.27 3767.31,1109.00
             3767.31,1109.00 3744.26,1162.00 3744.26,1162.00
             3744.26,1162.00 3721.57,1207.00 3721.57,1207.00
             3698.30,1247.57 3669.16,1285.38 3637.83,1320.00
             3637.83,1320.00 3625.04,1333.00 3625.04,1333.00
             3625.04,1333.00 3612.00,1346.96 3612.00,1346.96
             3612.00,1346.96 3595.00,1362.17 3595.00,1362.17
             3555.66,1397.70 3512.72,1429.42 3466.00,1454.69
             3466.00,1454.69 3406.00,1482.42 3406.00,1482.42
             3356.52,1503.88 3315.05,1515.31 3262.00,1524.08
             3240.66,1527.61 3219.52,1529.61 3198.00,1531.09
             3198.00,1531.09 3188.00,1532.00 3188.00,1532.00
             3188.00,1532.00 3082.00,1532.00 3082.00,1532.00
             3082.00,1532.00 2892.00,1532.00 2892.00,1532.00
             2889.54,1532.00 2886.29,1532.13 2884.00,1531.26
             2880.25,1529.83 2865.95,1516.56 2862.00,1513.05
             2862.00,1513.05 2802.00,1460.28 2802.00,1460.28
             2802.00,1460.28 2767.00,1428.09 2767.00,1428.09
             2767.00,1428.09 2734.00,1397.96 2734.00,1397.96
             2734.00,1397.96 2717.00,1382.04 2717.00,1382.04
             2715.23,1380.34 2711.30,1377.29 2710.82,1374.91
             2710.26,1372.11 2713.01,1369.05 2714.60,1367.00
             2718.93,1361.46 2723.77,1356.28 2727.00,1350.00
             2722.76,1350.00 2712.50,1350.45 2709.00,1349.11
             2704.35,1347.33 2698.87,1340.61 2695.00,1337.10
             2695.00,1337.10 2687.00,1330.79 2687.00,1330.79
             2687.00,1330.79 2669.00,1314.00 2669.00,1314.00
             2669.00,1314.00 2650.00,1296.00 2650.00,1296.00
             2650.00,1296.00 2628.99,1274.00 2628.99,1274.00
             2628.99,1274.00 2573.00,1218.00 2573.00,1218.00
             2573.00,1218.00 2547.00,1192.00 2547.00,1192.00
             2543.55,1188.55 2537.33,1181.54 2533.00,1179.89
             2529.44,1178.53 2520.23,1179.05 2516.00,1179.00
             2516.00,1179.00 2501.00,1178.00 2501.00,1178.00
             2501.00,1178.00 2450.00,1178.00 2450.00,1178.00
             2450.00,1178.00 2435.00,1177.00 2435.00,1177.00
             2435.00,1177.00 2379.00,1177.00 2379.00,1177.00
             2379.00,1177.00 2362.00,1176.00 2362.00,1176.00
             2362.00,1176.00 2291.00,1176.00 2291.00,1176.00
             2291.00,1176.00 2276.00,1175.00 2276.00,1175.00
             2276.00,1175.00 2177.00,1175.00 2177.00,1175.00
             2177.00,1175.00 2162.00,1174.00 2162.00,1174.00
             2162.00,1174.00 1935.00,1174.00 1935.00,1174.00
             1935.00,1174.00 1920.00,1173.00 1920.00,1173.00
             1920.00,1173.00 1869.00,1173.00 1869.00,1173.00
             1869.00,1173.00 1852.00,1174.00 1852.00,1174.00
             1852.00,1174.00 1687.00,1174.00 1687.00,1174.00
             1678.36,1174.01 1675.36,1175.66 1672.00,1175.66
             1668.64,1175.66 1665.64,1174.01 1657.00,1174.00
             1657.00,1174.00 1625.00,1174.00 1625.00,1174.00
             1625.00,1174.00 1610.00,1175.00 1610.00,1175.00
             1610.00,1175.00 1511.00,1175.00 1511.00,1175.00
             1511.00,1175.00 1496.00,1176.00 1496.00,1176.00
             1496.00,1176.00 1427.00,1176.00 1427.00,1176.00
             1427.00,1176.00 1412.00,1177.00 1412.00,1177.00
             1412.00,1177.00 1354.00,1177.00 1354.00,1177.00
             1354.00,1177.00 1339.00,1178.00 1339.00,1178.00
             1339.00,1178.00 1288.00,1178.00 1288.00,1178.00
             1288.00,1178.00 1268.00,1179.00 1268.00,1179.00
             1258.86,1179.17 1255.49,1185.74 1249.83,1192.00
             1249.83,1192.00 1225.00,1217.00 1225.00,1217.00
             1225.00,1217.00 1208.00,1235.00 1208.00,1235.00
             1208.00,1235.00 1131.00,1312.00 1131.00,1312.00
             1131.00,1312.00 1105.00,1338.00 1105.00,1338.00
             1101.57,1341.43 1093.28,1349.65 1089.00,1351.26
             1085.74,1352.49 1071.39,1352.00 1067.00,1352.00 Z
           M 1294.00,1030.00
           C 1294.00,1030.00 1272.00,1029.00 1272.00,1029.00
             1272.00,1029.00 1252.00,1027.15 1252.00,1027.15
             1216.06,1022.86 1188.70,1015.26 1155.00,1002.42
             1112.63,986.29 1073.19,960.85 1040.00,930.09
             1011.63,903.79 987.74,875.68 968.43,842.00
             907.45,735.65 901.07,612.57 952.31,501.00
             969.59,463.36 993.94,429.22 1022.09,399.00
             1052.86,365.97 1094.46,337.88 1135.00,318.26
             1170.69,300.99 1229.34,284.46 1269.00,284.00
             1269.00,284.00 1283.00,283.00 1283.00,283.00
             1283.00,283.00 1310.00,283.00 1310.00,283.00
             1310.00,283.00 1320.00,283.91 1320.00,283.91
             1342.04,285.43 1363.54,288.76 1385.00,294.13
             1486.61,319.53 1568.23,383.15 1621.40,473.00
             1641.03,506.17 1656.04,548.21 1663.60,586.00
             1666.18,598.90 1669.85,622.20 1670.00,635.00
             1670.04,638.59 1670.13,653.06 1672.02,655.40
             1673.91,657.73 1679.23,656.13 1682.00,656.04
             1682.00,656.04 1692.00,656.95 1692.00,656.95
             1692.00,656.95 1709.00,656.95 1709.00,656.95
             1711.07,656.96 1713.55,657.09 1715.07,655.40
             1717.23,652.99 1716.59,648.89 1716.14,646.00
             1716.14,646.00 1716.14,631.00 1716.14,631.00
             1716.14,631.00 1715.09,621.00 1715.09,621.00
             1713.12,594.12 1708.72,570.05 1701.88,544.00
             1667.29,412.23 1567.70,304.87 1440.00,258.05
             1390.67,239.97 1338.35,231.92 1286.00,232.00
             1286.00,232.00 1265.00,233.00 1265.00,233.00
             1265.00,233.00 1255.00,233.91 1255.00,233.91
             1226.24,235.92 1197.67,241.49 1170.00,249.58
             1057.21,282.55 960.57,362.98 909.26,469.00
             878.74,532.06 866.19,597.30 867.00,667.00
             867.00,667.00 867.91,677.00 867.91,677.00
             867.91,677.00 870.72,708.00 870.72,708.00
             886.64,837.03 964.67,954.38 1078.00,1018.58
             1132.37,1049.37 1178.48,1063.59 1240.00,1072.42
             1240.00,1072.42 1272.00,1074.91 1272.00,1074.91
             1276.48,1075.02 1289.30,1077.29 1292.43,1074.91
             1294.41,1073.26 1294.00,1069.30 1294.00,1067.00
             1294.00,1067.00 1294.00,1030.00 1294.00,1030.00 Z
           M 2502.00,1076.00
           C 2555.61,1076.00 2609.89,1066.60 2660.00,1047.19
             2781.19,1000.24 2874.40,899.38 2911.72,775.00
             2920.29,746.43 2926.01,716.75 2928.09,687.00
             2928.09,687.00 2929.00,677.00 2929.00,677.00
             2929.00,677.00 2929.00,666.00 2929.00,666.00
             2929.00,666.00 2929.91,653.00 2929.91,653.00
             2929.91,653.00 2929.00,634.00 2929.00,634.00
             2928.98,620.93 2925.65,596.32 2923.41,583.00
             2915.14,533.73 2897.39,486.28 2872.57,443.00
             2851.44,406.14 2820.21,367.35 2788.00,339.73
             2751.67,308.58 2716.11,285.25 2672.00,266.43
             2639.38,252.51 2600.14,241.75 2565.00,236.87
             2565.00,236.87 2526.00,233.00 2526.00,233.00
             2526.00,233.00 2515.00,233.00 2515.00,233.00
             2515.00,233.00 2505.00,232.18 2505.00,232.18
             2505.00,232.18 2497.00,232.98 2497.00,232.98
             2497.00,232.98 2482.00,232.98 2482.00,232.98
             2469.33,233.15 2445.91,236.42 2433.00,238.59
             2396.88,244.65 2359.28,256.03 2326.00,271.31
             2282.86,291.11 2247.11,316.40 2212.00,348.17
             2203.81,355.57 2196.18,363.78 2188.84,372.00
             2139.94,426.76 2103.89,493.69 2089.40,566.00
             2084.78,589.06 2081.27,612.47 2081.00,636.00
             2080.95,640.15 2078.38,653.43 2081.60,655.98
             2083.19,657.23 2087.01,657.00 2089.00,657.00
             2089.00,657.00 2119.00,657.00 2119.00,657.00
             2121.39,656.96 2124.01,657.19 2125.26,654.71
             2126.37,652.52 2125.88,645.03 2126.17,642.00
             2126.17,642.00 2128.95,611.00 2128.95,611.00
             2134.61,560.43 2152.99,511.87 2178.28,468.00
             2188.59,450.13 2202.41,431.63 2215.87,416.00
             2224.82,405.60 2233.95,395.45 2244.00,386.09
             2309.53,325.04 2399.86,285.05 2490.00,284.00
             2490.00,284.00 2504.00,283.04 2504.00,283.04
             2504.00,283.04 2517.00,284.00 2517.00,284.00
             2562.58,284.07 2618.68,299.33 2660.00,318.31
             2696.70,335.16 2735.48,361.48 2764.00,390.00
             2764.00,390.00 2781.83,408.00 2781.83,408.00
             2806.73,435.52 2829.19,469.23 2844.69,503.00
             2862.96,542.78 2877.49,597.15 2878.00,641.00
             2878.00,641.00 2879.00,656.00 2879.00,656.00
             2879.00,656.00 2878.00,678.00 2878.00,678.00
             2878.00,678.00 2876.16,697.00 2876.16,697.00
             2872.27,733.40 2862.03,771.55 2847.14,805.00
             2829.17,845.37 2807.45,877.26 2777.83,910.00
             2771.34,917.18 2764.17,923.69 2757.00,930.17
             2745.10,940.91 2733.06,951.24 2720.00,960.57
             2678.82,990.00 2626.67,1012.66 2577.00,1022.60
             2555.69,1026.86 2532.71,1029.96 2511.00,1030.00
             2502.36,1030.02 2502.02,1030.36 2502.00,1039.00
             2502.00,1039.00 2502.00,1076.00 2502.00,1076.00 Z
           M 1559.00,647.00
           C 1559.01,654.29 1558.12,656.85 1566.00,657.00
             1566.00,657.00 1622.00,657.00 1622.00,657.00
             1624.48,657.00 1628.54,657.32 1630.39,655.40
             1632.12,653.60 1631.50,651.19 1631.14,649.00
             1631.14,649.00 1631.14,636.00 1631.14,636.00
             1630.84,622.54 1626.69,597.44 1623.65,584.00
             1614.13,541.96 1597.12,501.38 1572.28,466.00
             1551.72,436.72 1526.84,410.39 1498.00,389.15
             1468.26,367.25 1435.23,349.60 1400.00,338.34
             1284.31,301.37 1156.44,327.50 1066.00,409.17
             1036.46,435.84 1011.51,468.63 993.26,504.00
             972.58,544.08 961.00,588.13 957.91,633.00
             957.91,633.00 957.00,645.00 957.00,645.00
             957.00,645.00 957.00,668.00 957.00,668.00
             957.00,668.00 958.83,690.00 958.83,690.00
             968.96,791.34 1026.19,886.43 1114.00,939.40
             1157.42,965.59 1197.87,980.15 1248.00,987.42
             1259.75,989.13 1271.15,989.87 1283.00,989.87
             1285.19,990.03 1290.85,990.81 1292.43,989.87
             1294.41,988.39 1294.00,984.15 1294.00,982.00
             1294.00,982.00 1294.00,919.00 1294.00,919.00
             1294.00,919.00 1283.00,919.00 1283.00,919.00
             1283.00,919.00 1283.00,958.00 1283.00,958.00
             1283.00,961.20 1283.74,970.23 1281.40,972.31
             1279.68,973.85 1274.43,973.08 1272.00,973.12
             1266.27,973.21 1266.91,972.40 1263.00,972.25
             1263.00,972.25 1257.00,972.25 1257.00,972.25
             1257.00,972.25 1239.00,968.88 1239.00,968.88
             1239.00,968.88 1232.00,968.10 1232.00,968.10
             1232.00,968.10 1215.00,963.71 1215.00,963.71
             1215.00,963.71 1208.00,962.26 1208.00,962.26
             1208.00,962.26 1192.00,956.84 1192.00,956.84
             1192.00,956.84 1185.00,954.96 1185.00,954.96
             1185.00,954.96 1169.00,947.81 1169.00,947.81
             1169.00,947.81 1150.00,939.91 1150.00,939.91
             1150.00,939.91 1129.00,928.23 1129.00,928.23
             1124.72,925.66 1125.19,925.36 1120.00,923.00
             1120.00,923.00 1138.67,893.00 1138.67,893.00
             1138.67,893.00 1149.00,875.00 1149.00,875.00
             1149.00,875.00 1138.00,868.00 1138.00,868.00
             1138.00,868.00 1108.00,914.00 1108.00,914.00
             1091.58,903.73 1079.38,891.70 1065.96,878.01
             1058.56,870.46 1051.00,863.32 1044.37,855.00
             1044.37,855.00 1024.66,827.00 1024.66,827.00
             1017.26,815.63 1003.60,792.62 1000.00,780.00
             1000.00,780.00 1043.00,762.60 1043.00,762.60
             1046.96,760.92 1050.88,759.25 1049.33,754.05
             1049.00,752.95 1048.34,751.68 1047.35,751.03
             1044.42,749.10 1036.06,753.18 1033.00,754.40
             1033.00,754.40 995.00,769.00 995.00,769.00
             982.87,734.01 976.63,710.26 974.09,673.00
             974.09,673.00 974.99,653.00 974.99,653.00
             974.99,653.00 974.01,642.00 974.01,642.00
             974.01,642.00 979.00,598.00 979.00,598.00
             979.00,598.00 1018.00,607.74 1018.00,607.74
             1020.86,608.54 1030.32,611.99 1032.69,611.22
             1035.62,610.26 1036.47,601.80 1037.00,599.00
             1037.00,599.00 1001.00,589.77 1001.00,589.77
             1001.00,589.77 982.00,586.00 982.00,586.00
             984.40,568.99 991.05,552.65 997.77,537.00
             997.77,537.00 1002.33,525.00 1002.33,525.00
             1010.21,506.75 1023.56,483.87 1035.47,468.00
             1035.47,468.00 1054.72,445.00 1054.72,445.00
             1056.53,442.92 1060.05,438.04 1063.00,438.04
             1065.85,438.04 1070.97,443.97 1073.00,446.00
             1073.00,446.00 1097.09,468.96 1097.09,468.96
             1098.56,470.42 1100.86,472.66 1103.00,472.95
             1106.55,473.42 1109.93,469.37 1108.85,466.00
             1108.12,463.74 1102.78,457.90 1100.96,456.00
             1100.96,456.00 1083.00,438.00 1083.00,438.00
             1080.85,435.85 1074.04,429.93 1074.04,427.00
             1074.04,424.12 1078.94,420.19 1081.00,418.43
             1081.00,418.43 1105.00,399.29 1105.00,399.29
             1131.27,380.48 1153.71,368.51 1184.00,357.32
             1194.58,353.41 1212.07,347.54 1223.00,346.00
             1223.00,346.00 1225.68,360.00 1225.68,360.00
             1225.68,360.00 1229.29,387.00 1229.29,387.00
             1229.29,387.00 1232.00,402.00 1232.00,402.00
             1232.00,402.00 1246.00,399.00 1246.00,399.00
             1246.00,399.00 1236.00,343.00 1236.00,343.00
             1236.00,343.00 1264.00,339.17 1264.00,339.17
             1264.00,339.17 1311.00,338.00 1311.00,338.00
             1311.00,338.00 1355.00,343.42 1355.00,343.42
             1355.00,343.42 1391.00,352.72 1391.00,352.72
             1391.00,352.72 1408.00,358.00 1408.00,358.00
             1408.00,358.00 1392.95,398.00 1392.95,398.00
             1391.71,401.31 1387.45,409.08 1390.58,411.91
             1391.41,412.67 1392.90,413.21 1394.00,413.36
             1399.54,414.15 1401.13,408.00 1402.85,404.00
             1402.85,404.00 1415.58,374.00 1415.58,374.00
             1416.78,371.21 1418.56,365.57 1422.10,365.23
             1423.95,365.06 1430.01,367.98 1432.00,368.86
             1441.29,373.00 1450.26,378.21 1459.00,383.40
             1484.86,398.72 1508.88,417.74 1529.07,440.00
             1535.97,447.60 1548.50,461.26 1553.00,470.00
             1545.92,472.26 1534.61,481.68 1528.00,486.28
             1523.69,489.28 1514.43,494.52 1511.23,497.67
             1507.50,501.33 1508.98,506.51 1513.32,508.96
             1517.73,511.45 1523.54,506.08 1527.00,503.74
             1527.00,503.74 1561.00,480.00 1561.00,480.00
             1561.00,480.00 1568.54,492.00 1568.54,492.00
             1568.54,492.00 1580.74,514.00 1580.74,514.00
             1590.11,532.15 1597.68,552.30 1603.08,572.00
             1603.08,572.00 1610.82,607.00 1610.82,607.00
             1610.82,607.00 1615.00,644.00 1615.00,644.00
             1615.00,644.00 1603.00,645.00 1603.00,645.00
             1603.00,645.00 1587.00,646.00 1587.00,646.00
             1587.00,646.00 1559.00,647.00 1559.00,647.00 Z
           M 2502.00,991.00
           C 2572.07,991.00 2635.71,971.21 2694.00,932.33
             2731.09,907.60 2764.67,872.89 2788.19,835.00
             2810.99,798.28 2827.24,757.72 2834.41,715.00
             2836.37,703.36 2838.98,686.58 2839.00,675.00
             2839.00,675.00 2839.99,656.00 2839.99,656.00
             2839.99,656.00 2839.04,646.00 2839.04,646.00
             2839.04,646.00 2839.04,636.00 2839.04,636.00
             2839.04,636.00 2838.08,626.00 2838.08,626.00
             2835.70,596.24 2827.95,564.91 2817.42,537.00
             2805.85,506.31 2788.29,475.61 2767.80,450.00
             2748.39,425.74 2727.23,404.97 2702.00,386.74
             2650.68,349.67 2580.68,323.74 2517.00,323.00
             2517.00,323.00 2502.00,322.01 2502.00,322.01
             2502.00,322.01 2493.00,322.96 2493.00,322.96
             2493.00,322.96 2482.00,322.96 2482.00,322.96
             2482.00,322.96 2473.00,323.83 2473.00,323.83
             2473.00,323.83 2443.00,327.59 2443.00,327.59
             2396.52,335.39 2352.15,353.57 2313.00,379.67
             2269.37,408.75 2234.96,445.50 2208.85,491.00
             2179.86,541.51 2165.00,598.86 2165.00,657.00
             2165.00,657.00 2229.00,657.00 2229.00,657.00
             2230.65,657.00 2234.16,657.14 2235.63,656.43
             2238.52,654.95 2238.47,650.04 2235.63,647.93
             2232.96,645.86 2227.32,646.01 2224.00,646.00
             2224.00,646.00 2208.00,646.00 2208.00,646.00
             2208.00,646.00 2192.00,645.00 2192.00,645.00
             2189.88,645.00 2185.10,645.28 2183.46,643.99
             2178.77,640.28 2188.68,639.98 2190.00,639.97
             2190.00,639.97 2193.96,639.97 2193.96,639.97
             2199.07,639.51 2198.19,636.66 2195.81,635.59
             2192.54,634.13 2184.97,636.40 2183.17,632.70
             2180.77,627.79 2189.58,628.00 2192.00,628.00
             2192.00,628.00 2199.00,628.00 2199.00,628.00
             2196.21,620.03 2185.11,625.87 2183.87,619.89
             2182.60,613.75 2193.22,616.74 2195.96,616.78
             2197.25,616.80 2199.62,616.67 2199.66,614.85
             2199.77,610.22 2182.85,613.05 2186.17,606.30
             2188.19,602.18 2195.58,605.85 2198.89,605.69
             2200.62,605.61 2202.72,604.54 2201.60,602.51
             2199.79,599.22 2185.27,600.03 2188.17,594.31
             2189.62,591.44 2194.58,592.92 2197.00,593.40
             2197.00,593.40 2223.00,598.00 2223.00,598.00
             2223.00,598.00 2223.00,594.00 2223.00,594.00
             2223.00,594.00 2196.00,588.19 2196.00,588.19
             2193.60,587.58 2187.36,584.99 2191.49,581.89
             2194.66,579.31 2199.89,584.13 2208.00,581.89
             2205.04,576.70 2197.44,575.81 2192.00,574.00
             2192.00,574.00 2193.00,569.00 2193.00,569.00
             2193.00,569.00 2211.00,571.00 2211.00,571.00
             2206.79,563.05 2200.69,566.41 2197.71,562.49
             2196.14,560.44 2197.27,557.95 2200.11,557.83
             2200.11,557.83 2214.00,561.00 2214.00,561.00
             2212.74,553.67 2205.25,553.48 2199.00,551.00
             2204.22,541.73 2204.85,549.28 2218.00,550.00
             2216.82,543.08 2209.94,542.06 2204.00,540.00
             2204.00,540.00 2204.00,538.00 2204.00,538.00
             2209.89,537.49 2212.68,539.65 2218.00,541.80
             2218.00,541.80 2242.00,551.60 2242.00,551.60
             2245.95,553.18 2253.83,557.32 2257.77,554.97
             2258.91,554.30 2259.79,553.21 2260.21,551.96
             2261.96,546.72 2254.52,544.71 2251.00,543.14
             2251.00,543.14 2220.00,529.00 2220.00,529.00
             2218.62,528.40 2209.79,524.97 2212.03,522.46
             2212.99,521.47 2214.90,522.03 2216.02,522.46
             2220.65,523.95 2220.86,525.66 2228.00,527.00
             2228.71,518.45 2221.24,520.57 2217.54,515.62
             2215.72,513.18 2216.77,509.61 2223.00,512.28
             2223.00,512.28 2227.00,514.20 2227.00,514.20
             2229.91,515.49 2230.89,515.67 2234.00,516.00
             2232.28,505.88 2219.58,510.58 2223.00,499.00
             2229.03,503.02 2231.54,505.58 2239.00,506.00
             2237.53,497.12 2229.93,498.70 2228.34,493.73
             2227.64,491.55 2229.54,490.24 2232.02,490.95
             2236.09,492.11 2236.69,495.48 2246.00,496.00
             2244.61,487.90 2235.44,486.93 2234.73,482.60
             2233.98,478.03 2240.56,481.14 2242.00,482.02
             2249.09,486.36 2258.74,494.69 2266.00,497.00
             2266.67,491.62 2264.10,490.82 2260.00,487.86
             2256.42,485.28 2243.36,477.15 2242.03,473.93
             2241.06,471.58 2242.62,469.91 2245.05,470.45
             2248.22,471.16 2255.31,478.93 2257.87,475.37
             2260.39,471.87 2251.58,467.98 2249.91,464.03
             2248.80,461.40 2250.54,459.48 2255.00,462.31
             2255.00,462.31 2259.00,465.21 2259.00,465.21
             2261.34,466.77 2262.39,467.17 2265.00,468.00
             2266.87,458.84 2257.58,459.01 2256.73,453.65
             2256.45,451.90 2258.29,450.61 2260.85,451.79
             2266.08,454.20 2265.05,458.28 2274.00,459.00
             2273.53,452.99 2271.93,453.22 2268.03,448.99
             2266.86,447.71 2264.42,445.33 2265.20,443.37
             2265.84,441.75 2267.77,442.12 2268.97,442.74
             2271.59,444.10 2273.90,448.36 2277.02,449.77
             2280.55,451.37 2283.55,448.87 2278.77,443.00
             2278.77,443.00 2275.98,440.00 2275.98,440.00
             2275.98,440.00 2271.00,435.00 2271.00,435.00
             2276.68,435.29 2279.05,439.40 2283.04,443.17
             2283.04,443.17 2294.83,454.09 2294.83,454.09
             2294.83,454.09 2306.00,465.98 2306.00,465.98
             2309.52,469.39 2316.87,475.35 2319.34,466.98
             2320.59,462.76 2314.59,456.88 2311.91,454.00
             2303.96,445.46 2289.48,432.05 2283.00,423.00
             2292.58,422.70 2289.28,430.64 2301.00,432.00
             2300.29,423.26 2296.28,424.05 2293.62,419.01
             2292.03,416.00 2293.97,413.89 2296.13,414.96
             2297.37,415.58 2299.85,418.75 2300.92,419.91
             2300.92,419.91 2303.43,422.42 2303.43,422.42
             2307.09,425.36 2309.97,424.00 2309.28,420.89
             2308.65,418.04 2304.62,414.31 2303.41,412.01
             2302.71,410.78 2301.93,408.92 2303.41,407.91
             2304.56,407.17 2305.76,407.78 2306.71,408.46
             2308.76,409.93 2311.38,414.71 2314.07,416.29
             2317.13,418.09 2320.17,416.35 2317.14,411.00
             2317.14,411.00 2314.37,407.00 2314.37,407.00
             2314.37,407.00 2310.00,401.00 2310.00,401.00
             2310.00,401.00 2315.00,398.00 2315.00,398.00
             2316.41,400.45 2322.90,411.96 2326.58,409.83
             2328.05,408.83 2327.31,406.39 2326.58,405.00
             2325.69,402.31 2321.75,396.80 2320.00,394.00
             2320.00,394.00 2325.00,391.00 2325.00,391.00
             2325.00,391.00 2344.00,420.00 2344.00,420.00
             2344.00,420.00 2346.00,420.00 2346.00,420.00
             2347.62,412.41 2339.10,403.15 2335.00,397.00
             2331.06,391.10 2327.06,388.03 2336.00,385.00
             2336.90,387.35 2337.67,388.84 2338.95,391.00
             2338.95,391.00 2341.32,394.85 2341.32,394.85
             2344.29,398.83 2347.26,397.58 2347.19,394.85
             2347.11,391.91 2339.06,381.60 2344.10,380.62
             2346.31,380.19 2347.93,383.51 2348.86,385.00
             2351.83,389.80 2352.17,391.54 2358.00,392.00
             2356.79,381.31 2346.21,376.85 2357.00,373.00
             2358.03,376.60 2361.52,385.10 2365.32,386.16
             2366.79,386.78 2367.66,386.29 2369.00,386.16
             2368.24,383.33 2367.48,381.47 2366.22,379.00
             2365.31,377.23 2363.21,373.99 2363.29,372.06
             2363.39,369.84 2365.38,368.37 2367.37,369.74
             2371.95,372.90 2369.70,380.46 2379.00,382.00
             2377.84,371.09 2370.20,368.11 2377.00,364.00
             2377.00,364.00 2391.58,400.00 2391.58,400.00
             2392.89,403.06 2395.80,411.35 2398.39,412.97
             2401.28,414.79 2405.16,413.07 2408.00,412.00
             2408.00,412.00 2401.05,392.00 2401.05,392.00
             2401.05,392.00 2388.00,359.00 2388.00,359.00
             2388.00,359.00 2393.00,357.00 2393.00,357.00
             2395.28,362.74 2396.33,368.80 2401.00,373.00
             2404.33,366.04 2400.54,365.18 2399.90,359.02
             2399.70,357.06 2400.35,354.36 2402.92,354.76
             2405.46,355.16 2406.34,358.98 2407.02,361.00
             2408.61,365.69 2408.78,368.11 2414.00,369.00
             2413.73,357.08 2406.62,351.72 2417.00,350.00
             2417.30,353.29 2419.13,363.03 2421.70,365.01
             2422.82,365.87 2423.74,365.78 2425.00,366.00
             2424.92,362.52 2424.88,361.42 2423.99,358.00
             2423.56,356.38 2422.06,351.91 2422.29,350.48
             2422.72,347.84 2425.97,346.74 2428.15,349.33
             2432.07,354.02 2427.76,361.58 2436.00,363.00
             2435.90,358.59 2435.82,358.28 2434.64,354.00
             2434.48,352.13 2433.49,348.48 2434.64,346.73
             2435.58,344.42 2439.09,343.54 2440.97,348.06
             2440.97,348.06 2447.00,378.00 2447.00,378.00
             2451.92,376.26 2450.52,373.51 2449.75,369.00
             2449.75,369.00 2445.75,346.06 2445.75,346.06
             2446.12,342.52 2449.33,341.69 2451.41,343.62
             2452.90,345.00 2453.25,348.07 2453.59,350.00
             2454.31,354.10 2454.35,355.05 2456.00,359.00
             2456.00,359.00 2458.00,359.00 2458.00,359.00
             2460.42,350.40 2455.21,343.42 2460.17,341.17
             2466.43,338.32 2466.00,353.97 2466.00,357.00
             2473.58,355.67 2470.01,351.65 2470.00,339.00
             2471.94,339.16 2473.90,339.10 2475.40,340.60
             2477.36,342.55 2477.93,352.95 2478.00,356.00
             2485.72,353.30 2479.80,345.15 2482.31,340.32
             2483.56,337.91 2486.54,338.20 2487.98,340.32
             2489.25,342.19 2488.93,345.78 2489.04,348.00
             2489.04,348.00 2490.00,355.00 2490.00,355.00
             2491.23,354.57 2492.05,354.62 2492.99,353.41
             2495.02,350.73 2493.88,342.10 2492.99,339.00
             2498.75,337.38 2498.91,341.26 2499.00,346.00
             2499.00,346.00 2499.00,394.00 2499.00,394.00
             2509.20,394.00 2509.98,394.56 2510.00,385.00
             2510.00,385.00 2510.00,353.00 2510.00,353.00
             2510.03,350.49 2510.58,342.27 2512.00,340.46
             2513.65,338.36 2515.18,340.26 2515.84,342.08
             2515.84,342.08 2515.84,355.00 2515.84,355.00
             2523.68,352.31 2518.31,341.56 2523.31,339.17
             2526.66,337.56 2527.87,341.55 2528.01,344.00
             2528.01,344.00 2528.01,350.00 2528.01,350.00
             2528.01,350.00 2528.01,356.00 2528.01,356.00
             2528.01,356.00 2532.00,356.00 2532.00,356.00
             2532.00,352.35 2531.82,345.33 2533.51,342.16
             2534.77,339.79 2537.27,339.06 2538.98,341.45
             2541.86,345.49 2536.50,354.76 2539.58,356.83
             2541.52,358.13 2542.98,355.37 2543.43,353.94
             2543.43,353.94 2545.00,341.00 2545.00,341.00
             2555.36,341.75 2551.01,345.33 2551.00,359.00
             2551.00,359.00 2555.00,359.00 2555.00,359.00
             2555.22,356.41 2556.65,347.18 2558.01,345.33
             2559.79,342.90 2563.13,343.49 2563.81,346.34
             2564.23,348.07 2562.62,354.88 2562.20,357.00
             2560.58,365.10 2559.03,370.60 2559.00,379.00
             2560.43,378.20 2560.99,378.20 2562.07,376.71
             2562.07,376.71 2568.72,349.06 2568.72,349.06
             2570.62,344.86 2574.30,345.35 2575.10,348.23
             2575.57,349.89 2574.38,354.15 2574.00,356.00
             2573.33,359.34 2573.16,360.60 2573.00,364.00
             2574.23,363.79 2575.19,363.88 2576.28,363.01
             2578.42,361.31 2580.70,350.92 2581.00,348.00
             2591.01,349.65 2585.57,355.58 2584.73,361.98
             2584.50,363.71 2584.79,367.37 2587.55,365.83
             2591.18,363.82 2590.74,352.40 2596.14,352.49
             2601.45,352.58 2596.74,361.96 2596.14,364.98
             2595.69,369.89 2598.29,370.69 2600.17,368.58
             2601.99,366.53 2603.04,359.48 2604.92,357.42
             2606.90,355.26 2611.27,356.00 2609.31,363.00
             2609.31,363.00 2608.00,367.00 2608.00,367.00
             2608.00,367.00 2606.00,373.00 2606.00,373.00
             2615.45,375.09 2610.40,365.07 2620.00,360.00
             2620.00,360.00 2603.00,404.00 2603.00,404.00
             2601.63,407.57 2599.31,412.91 2604.13,415.14
             2605.30,415.48 2606.66,415.67 2607.90,415.14
             2611.70,414.16 2613.79,407.36 2615.30,404.00
             2618.64,396.60 2629.82,372.33 2631.00,366.00
             2638.21,368.36 2633.74,373.05 2632.13,378.00
             2631.33,379.50 2630.21,382.79 2632.13,383.66
             2637.59,385.78 2638.59,370.82 2643.86,371.77
             2648.86,372.68 2642.35,381.90 2641.68,384.96
             2641.22,387.09 2641.91,389.85 2644.66,388.60
             2648.39,386.91 2650.34,375.99 2654.25,376.75
             2660.41,377.93 2652.24,387.44 2651.51,389.98
             2650.59,393.19 2652.44,394.84 2654.65,393.83
             2659.95,391.40 2658.77,382.84 2668.00,383.00
             2665.99,390.06 2663.01,392.84 2661.98,395.98
             2661.03,398.85 2662.31,400.96 2664.95,399.83
             2668.42,398.36 2669.80,392.55 2672.39,390.42
             2675.24,388.07 2679.35,389.68 2676.55,395.00
             2676.55,395.00 2664.35,413.00 2664.35,413.00
             2661.91,416.85 2659.51,420.05 2665.00,422.00
             2665.00,422.00 2685.00,394.00 2685.00,394.00
             2685.00,394.00 2689.00,397.00 2689.00,397.00
             2687.75,399.44 2686.95,400.75 2685.36,403.00
             2684.03,404.89 2679.22,410.67 2681.80,413.13
             2682.37,413.46 2683.12,413.50 2683.81,413.13
             2690.53,411.31 2689.74,398.92 2699.00,406.00
             2697.11,407.42 2696.04,408.25 2694.44,410.04
             2694.44,410.04 2691.35,414.00 2691.35,414.00
             2687.77,419.54 2691.06,421.26 2693.73,419.92
             2696.23,418.67 2698.94,414.03 2701.17,412.29
             2702.50,411.26 2704.87,410.09 2705.84,412.29
             2707.50,416.05 2700.15,419.68 2698.00,427.00
             2703.98,427.54 2705.42,425.02 2709.39,421.07
             2710.57,419.89 2712.86,417.26 2714.71,418.94
             2717.74,421.68 2710.86,426.38 2709.14,430.00
             2708.11,431.45 2707.17,434.51 2709.14,435.29
             2711.41,436.02 2713.83,433.17 2715.09,431.95
             2718.76,428.38 2719.81,425.86 2725.00,428.00
             2719.29,432.09 2714.01,437.99 2709.00,443.00
             2709.00,443.00 2698.04,454.00 2698.04,454.00
             2694.78,457.41 2681.03,470.10 2691.06,473.60
             2695.19,475.04 2700.37,468.62 2703.00,466.00
             2703.00,466.00 2725.00,445.00 2725.00,445.00
             2729.23,440.78 2731.12,436.80 2737.00,440.00
             2735.22,441.28 2733.60,442.51 2732.02,444.04
             2730.40,445.61 2725.03,450.80 2727.71,453.46
             2728.39,453.88 2729.21,453.90 2730.06,453.46
             2733.12,452.81 2736.80,447.26 2739.96,446.32
             2742.06,445.70 2744.10,446.99 2743.04,449.29
             2740.69,454.40 2734.78,453.30 2734.00,463.00
             2744.61,461.29 2745.66,449.93 2753.00,459.00
             2753.00,459.00 2748.00,461.93 2748.00,461.93
             2748.00,461.93 2744.13,465.00 2744.13,465.00
             2739.48,469.38 2742.16,471.81 2745.06,471.12
             2748.69,470.26 2756.52,461.00 2757.89,466.23
             2759.10,470.82 2750.74,472.63 2748.00,480.00
             2752.31,480.97 2753.30,480.56 2757.00,478.06
             2758.62,476.97 2761.66,474.17 2763.72,474.61
             2768.37,475.60 2762.29,481.24 2760.99,482.24
             2757.14,485.21 2742.85,493.65 2740.99,496.51
             2740.14,497.83 2740.24,498.59 2740.00,500.00
             2747.56,499.15 2754.73,492.84 2761.00,488.67
             2767.62,484.26 2769.75,481.39 2774.00,488.00
             2768.66,490.73 2762.08,493.66 2761.00,500.00
             2770.37,499.46 2770.50,495.42 2774.96,494.45
             2777.81,493.83 2779.55,496.29 2778.18,498.62
             2775.37,503.38 2768.46,501.48 2767.00,510.00
             2769.91,509.84 2771.24,509.81 2774.00,508.59
             2774.00,508.59 2778.00,506.46 2778.00,506.46
             2784.09,503.48 2785.55,507.05 2783.54,509.62
             2779.83,514.36 2771.47,512.80 2774.00,521.00
             2776.20,520.37 2777.93,519.73 2780.00,518.74
             2780.00,518.74 2783.96,516.76 2783.96,516.76
             2790.54,513.62 2791.23,517.79 2789.51,519.78
             2785.09,524.86 2778.71,522.11 2778.00,531.00
             2778.00,531.00 2795.00,525.00 2795.00,525.00
             2794.40,530.16 2790.25,530.82 2786.00,532.77
             2786.00,532.77 2757.00,545.42 2757.00,545.42
             2752.90,547.17 2744.30,549.23 2745.71,555.00
             2747.17,560.99 2751.71,559.65 2756.00,558.00
             2756.00,558.00 2787.00,545.80 2787.00,545.80
             2788.97,545.01 2799.58,539.68 2800.38,543.25
             2800.85,545.35 2797.42,546.70 2795.99,547.30
             2791.04,549.40 2788.99,549.20 2788.00,555.00
             2791.06,554.83 2792.03,554.72 2795.00,553.82
             2795.00,553.82 2799.00,552.53 2799.00,552.53
             2805.32,550.77 2805.88,554.11 2803.63,556.31
             2799.35,560.47 2791.15,557.69 2793.00,566.00
             2793.00,566.00 2808.00,561.00 2808.00,561.00
             2810.76,569.09 2807.36,568.13 2801.00,570.36
             2799.40,570.93 2794.45,572.83 2796.17,575.40
             2797.58,577.50 2802.18,575.30 2804.00,574.75
             2810.24,572.84 2811.34,573.26 2814.00,579.00
             2808.61,581.04 2800.09,580.88 2798.00,587.00
             2801.37,586.97 2802.62,587.00 2806.00,586.34
             2808.25,585.89 2817.45,584.05 2814.83,589.74
             2813.59,592.45 2808.61,593.06 2806.00,593.60
             2802.75,594.27 2786.15,597.58 2784.59,598.93
             2783.38,599.99 2783.46,600.68 2783.00,602.00
             2783.00,602.00 2812.98,597.12 2812.98,597.12
             2816.78,597.34 2819.55,600.70 2815.78,603.15
             2813.43,604.68 2806.02,605.60 2803.00,606.00
             2803.00,606.00 2803.00,610.00 2803.00,610.00
             2803.00,610.00 2815.95,608.88 2815.95,608.88
             2818.47,609.52 2821.06,612.31 2818.53,614.58
             2814.21,618.46 2807.41,614.33 2805.00,621.03
             2807.82,621.00 2817.11,620.08 2818.84,621.03
             2821.55,622.60 2821.38,625.36 2818.84,626.98
             2816.56,628.43 2808.87,628.94 2806.00,629.00
             2806.00,629.00 2806.00,633.00 2806.00,633.00
             2809.47,632.84 2821.80,629.97 2821.80,636.00
             2821.80,640.62 2810.43,640.55 2807.00,641.00
             2807.00,641.00 2807.00,644.00 2807.00,644.00
             2809.84,644.00 2817.59,643.69 2819.84,644.74
             2822.92,646.18 2823.34,649.84 2815.00,650.00
             2815.00,650.00 2785.00,650.00 2785.00,650.00
             2785.00,650.00 2767.00,651.00 2767.00,651.00
             2767.00,651.00 2767.00,660.00 2767.00,660.00
             2767.00,660.00 2808.00,660.58 2808.00,660.58
             2810.92,660.96 2818.80,660.71 2820.63,662.01
             2823.24,663.85 2821.20,665.89 2818.94,666.79
             2816.89,667.19 2809.56,667.00 2807.00,666.79
             2807.00,666.79 2807.00,670.00 2807.00,670.00
             2810.21,670.03 2817.19,670.29 2819.84,672.01
             2822.42,673.69 2822.52,676.33 2819.84,677.99
             2817.08,679.67 2809.62,678.08 2806.00,677.99
             2806.00,677.99 2806.00,682.00 2806.00,682.00
             2808.98,682.00 2823.59,681.72 2820.83,687.89
             2819.10,691.78 2808.91,690.00 2805.00,690.00
             2807.65,697.33 2817.63,691.47 2819.55,698.07
             2821.38,704.39 2809.13,700.77 2807.06,700.66
             2805.42,700.57 2802.87,701.36 2804.17,703.47
             2805.97,706.42 2815.92,705.30 2817.84,709.29
             2819.86,713.49 2814.66,714.17 2811.96,713.76
             2811.96,713.76 2783.00,709.00 2783.00,709.00
             2784.66,713.80 2787.38,713.47 2792.00,714.40
             2792.00,714.40 2812.93,718.70 2812.93,718.70
             2817.46,720.88 2816.39,725.69 2810.00,724.94
             2810.00,724.94 2799.00,723.00 2799.00,723.00
             2800.49,731.49 2808.51,727.10 2812.49,731.72
             2813.08,732.68 2813.21,733.74 2812.49,734.86
             2811.09,738.26 2806.73,736.75 2804.00,736.07
             2800.30,735.29 2799.72,735.12 2796.00,736.07
             2796.00,736.07 2796.00,738.00 2796.00,738.00
             2799.05,739.48 2808.74,741.61 2809.55,744.26
             2810.26,746.59 2808.02,748.07 2805.96,748.17
             2805.96,748.17 2793.00,746.00 2793.00,746.00
             2794.45,754.46 2803.45,750.54 2805.83,755.42
             2806.89,757.59 2805.07,759.34 2802.94,759.50
             2801.02,759.65 2796.11,757.33 2789.00,757.00
             2790.60,766.34 2801.48,760.47 2802.00,770.00
             2802.00,770.00 2762.00,754.81 2762.00,754.81
             2758.78,753.56 2750.83,749.57 2748.09,752.58
             2747.34,753.39 2746.77,754.93 2746.59,756.00
             2745.69,761.36 2751.09,762.62 2755.00,764.20
             2755.00,764.20 2797.00,781.89 2797.00,781.89
             2793.17,786.96 2790.94,783.79 2786.00,781.89
             2784.39,781.27 2781.45,780.18 2780.04,781.89
             2778.81,783.20 2780.18,784.78 2781.30,785.65
             2783.92,787.72 2790.80,789.29 2790.80,792.95
             2790.80,795.11 2788.72,795.61 2786.98,795.34
             2782.46,794.62 2781.76,791.33 2774.00,792.00
             2776.32,799.07 2781.22,797.06 2784.46,801.39
             2786.24,803.76 2785.03,806.47 2782.67,806.44
             2779.48,806.39 2777.99,802.50 2769.00,802.00
             2770.39,810.13 2781.47,809.00 2779.51,814.82
             2777.72,820.13 2770.14,811.62 2766.14,811.70
             2763.50,811.76 2762.12,814.22 2766.14,817.50
             2766.14,817.50 2770.00,820.25 2770.00,820.25
             2770.00,820.25 2775.00,823.00 2775.00,823.00
             2771.14,829.43 2768.19,826.41 2763.00,823.00
             2756.58,818.78 2749.37,813.15 2742.00,811.00
             2742.00,811.00 2741.00,812.00 2741.00,812.00
             2743.74,819.32 2758.43,825.54 2764.91,830.67
             2770.05,834.74 2765.55,837.13 2762.98,836.53
             2759.01,835.60 2758.61,831.92 2750.00,831.00
             2751.74,841.49 2761.12,838.17 2759.00,848.00
             2759.00,848.00 2754.00,844.54 2754.00,844.54
             2754.00,844.54 2750.00,842.20 2750.00,842.20
             2747.71,841.04 2741.32,839.60 2744.08,844.64
             2744.93,846.20 2757.05,853.54 2750.72,855.80
             2748.34,856.66 2745.63,853.46 2744.00,852.14
             2740.73,849.49 2740.07,849.33 2736.00,849.00
             2737.11,855.87 2739.27,855.10 2742.71,859.99
             2743.43,861.02 2744.74,862.99 2743.37,864.10
             2741.85,865.34 2739.21,863.37 2738.00,862.52
             2733.78,859.57 2733.47,857.89 2728.00,859.00
             2731.21,868.39 2736.59,866.00 2737.00,874.00
             2728.70,869.15 2710.22,849.16 2701.00,841.60
             2699.44,840.32 2697.07,838.20 2695.00,838.02
             2691.50,837.73 2688.34,841.69 2689.40,845.00
             2690.27,847.70 2695.83,852.83 2698.00,855.00
             2698.00,855.00 2717.00,874.00 2717.00,874.00
             2718.51,875.51 2722.55,879.41 2723.54,880.98
             2724.05,881.77 2725.24,884.00 2723.54,884.38
             2721.76,884.77 2719.21,882.07 2718.00,881.03
             2714.67,878.19 2714.33,877.70 2710.00,877.00
             2711.29,884.95 2715.26,884.47 2717.09,888.96
             2718.12,891.48 2716.31,893.12 2713.98,892.55
             2710.34,891.66 2705.60,883.00 2702.82,885.82
             2700.20,888.48 2708.02,894.79 2708.39,897.94
             2708.67,900.26 2706.56,901.56 2704.08,900.26
             2699.81,898.01 2700.61,894.24 2693.00,892.00
             2693.70,900.76 2698.87,901.79 2699.32,905.33
             2699.56,907.17 2697.46,909.32 2695.00,908.01
             2692.18,906.51 2687.76,898.12 2684.84,900.17
             2682.97,901.26 2684.34,903.78 2684.84,905.00
             2686.48,907.53 2690.70,911.49 2688.58,914.50
             2686.24,917.85 2682.70,912.70 2681.43,910.98
             2676.63,904.52 2671.13,893.45 2664.00,890.00
             2662.60,899.66 2678.74,911.76 2679.33,918.96
             2679.53,921.33 2677.55,923.57 2675.21,922.06
             2672.96,920.61 2670.49,914.45 2667.73,913.17
             2666.03,912.37 2664.72,913.31 2664.73,915.15
             2664.74,917.94 2668.20,921.69 2668.89,923.98
             2669.86,927.26 2667.52,928.99 2665.20,927.97
             2663.50,927.23 2661.93,924.52 2660.96,923.00
             2660.96,923.00 2658.00,918.00 2658.00,918.00
             2656.92,918.38 2655.83,918.41 2655.13,919.59
             2653.38,922.51 2659.25,930.57 2661.00,933.00
             2649.43,937.89 2654.14,925.70 2644.00,924.00
             2644.64,930.04 2647.05,933.82 2650.00,939.00
             2650.00,939.00 2644.00,942.00 2644.00,942.00
             2641.63,936.49 2640.12,930.90 2634.00,929.00
             2633.46,938.79 2641.27,939.87 2635.00,946.00
             2635.00,946.00 2622.31,918.00 2622.31,918.00
             2622.31,918.00 2615.10,902.02 2615.10,902.02
             2611.05,894.31 2603.99,897.19 2603.52,901.11
             2603.24,903.46 2606.03,909.58 2607.00,912.00
             2607.00,912.00 2617.80,938.00 2617.80,938.00
             2618.64,940.08 2622.98,949.04 2621.14,950.66
             2619.66,951.96 2618.00,950.02 2617.27,948.89
             2614.65,944.80 2616.52,943.88 2611.00,939.00
             2608.75,947.20 2612.95,948.95 2612.08,952.89
             2611.61,955.00 2609.50,956.48 2607.50,955.18
             2603.28,952.43 2606.26,945.48 2598.92,943.00
             2598.84,944.56 2598.68,945.37 2598.92,947.00
             2598.92,947.00 2600.32,953.00 2600.32,953.00
             2602.08,959.63 2598.53,960.76 2596.26,958.53
             2591.51,953.88 2596.11,947.73 2587.00,947.00
             2587.00,947.00 2587.90,953.00 2587.90,953.00
             2587.90,953.00 2588.97,957.00 2588.97,957.00
             2590.27,962.88 2586.97,963.84 2584.42,961.58
             2579.82,957.49 2583.74,951.33 2576.00,950.00
             2576.08,953.77 2576.11,954.28 2576.88,958.00
             2577.35,960.25 2578.40,968.31 2573.29,965.83
             2571.04,964.74 2570.62,960.24 2570.12,958.00
             2570.12,958.00 2565.00,934.00 2565.00,934.00
             2565.00,934.00 2561.00,934.00 2561.00,934.00
             2561.00,934.00 2566.08,964.95 2566.08,964.95
             2565.83,968.57 2562.96,970.00 2560.65,966.78
             2558.86,964.29 2558.25,958.11 2558.00,955.00
             2558.00,955.00 2553.00,955.00 2553.00,955.00
             2553.14,958.12 2554.74,966.55 2553.69,968.80
             2552.49,971.35 2549.34,972.09 2547.72,968.80
             2546.52,966.43 2546.06,959.82 2546.00,957.00
             2546.00,957.00 2542.13,957.00 2542.13,957.00
             2542.13,957.00 2542.13,963.00 2542.13,963.00
             2542.21,964.90 2542.92,968.16 2542.13,969.85
             2541.26,972.81 2537.79,973.28 2536.02,970.68
             2532.75,965.87 2538.67,959.53 2530.04,958.00
             2530.04,958.00 2530.04,964.00 2530.04,964.00
             2530.04,964.00 2530.04,968.00 2530.04,968.00
             2530.13,970.14 2529.77,974.56 2526.29,972.83
             2520.85,970.13 2528.22,960.59 2519.00,959.00
             2519.00,961.81 2519.44,969.62 2517.98,971.71
             2517.51,972.39 2516.88,972.96 2516.00,972.96
             2512.57,972.96 2513.00,966.18 2513.00,964.00
             2513.00,964.00 2513.00,928.00 2513.00,928.00
             2513.00,926.01 2513.23,922.19 2511.98,920.60
             2510.32,918.50 2504.68,918.50 2503.02,920.60
             2501.77,922.19 2502.00,926.01 2502.00,928.00
             2502.00,928.00 2502.00,991.00 2502.00,991.00 Z
           M 3263.00,432.00
           C 3268.56,444.92 3272.69,452.67 3275.39,467.00
             3276.05,470.48 3277.80,476.78 3275.39,479.69
             3272.31,483.42 3266.08,481.16 3258.00,482.59
             3255.80,482.99 3252.81,483.29 3252.66,486.13
             3252.46,489.51 3255.19,490.69 3258.02,490.94
             3261.72,491.27 3273.13,490.21 3275.60,492.02
             3278.38,494.06 3276.75,502.90 3276.25,506.00
             3272.88,526.77 3266.10,543.99 3253.52,561.00
             3250.90,564.54 3242.78,573.08 3248.31,577.22
             3254.07,581.52 3260.82,569.79 3263.33,566.00
             3274.22,549.60 3280.65,533.41 3283.92,514.00
             3284.69,509.43 3284.95,495.19 3287.59,492.60
             3291.48,488.78 3302.21,493.78 3304.20,487.85
             3304.91,486.16 3304.22,482.90 3304.20,481.00
             3304.20,481.00 3302.25,464.00 3302.25,464.00
             3298.00,438.27 3284.67,410.10 3266.91,391.00
             3249.45,372.22 3229.29,358.44 3205.00,350.08
             3152.67,332.07 3089.09,345.00 3050.09,385.04
             3036.10,399.40 3024.99,416.39 3017.60,435.00
             3010.56,452.76 3007.00,471.91 3007.00,491.00
             3011.10,491.54 3024.08,491.47 3025.98,494.31
             3027.11,496.01 3026.96,498.99 3027.17,501.00
             3027.17,501.00 3029.25,517.00 3029.25,517.00
             3031.68,530.99 3036.36,544.65 3043.43,557.00
             3045.68,560.94 3052.41,571.96 3055.62,574.43
             3059.40,577.33 3063.71,575.23 3062.67,570.00
             3061.98,566.51 3054.66,557.87 3052.23,554.00
             3043.99,540.87 3037.26,524.32 3034.68,509.00
             3034.17,505.41 3032.02,495.20 3034.68,492.60
             3037.02,490.16 3046.45,491.06 3050.00,491.00
             3057.49,490.86 3057.91,488.95 3058.00,482.00
             3054.06,482.00 3038.87,482.68 3036.31,480.98
             3034.83,479.99 3034.39,478.67 3034.16,476.98
             3033.82,474.45 3035.08,467.76 3035.61,465.00
             3038.23,451.36 3042.70,443.30 3048.00,431.00
             3051.59,433.04 3060.18,440.41 3063.99,436.42
             3071.08,429.00 3054.02,425.83 3055.86,419.83
             3056.64,417.30 3063.01,410.12 3065.04,408.00
             3073.84,398.80 3080.03,392.62 3091.00,386.00
             3092.98,390.11 3097.00,399.66 3102.69,397.13
             3112.08,393.20 3098.39,384.83 3102.69,380.22
             3104.31,378.16 3110.30,375.86 3113.00,374.81
             3121.82,371.39 3134.54,367.63 3144.00,368.02
             3152.83,368.38 3150.98,373.87 3151.00,386.00
             3151.00,387.71 3150.87,391.21 3151.60,392.69
             3153.05,395.63 3157.31,395.18 3158.98,392.69
             3160.34,390.64 3159.99,385.52 3160.00,383.00
             3160.00,383.00 3161.00,368.00 3161.00,368.00
             3176.10,368.00 3182.75,369.62 3197.00,374.69
             3200.09,375.79 3207.65,378.31 3209.13,381.21
             3211.50,385.86 3201.14,392.46 3207.31,397.24
             3214.53,402.84 3217.31,385.59 3226.00,390.32
             3231.91,393.53 3243.73,405.60 3248.25,411.00
             3249.89,412.96 3254.05,417.64 3254.55,419.99
             3255.64,425.14 3247.43,426.80 3245.22,431.18
             3243.47,434.64 3245.93,440.13 3250.04,439.26
             3250.04,439.26 3263.00,432.00 3263.00,432.00 Z
           M 1259.00,416.00
           C 1259.00,416.00 1238.00,416.00 1238.00,416.00
             1238.00,416.00 1238.00,434.00 1238.00,434.00
             1241.16,433.58 1244.88,432.71 1248.00,433.40
             1255.22,434.99 1256.83,442.24 1249.96,445.82
             1245.76,448.01 1240.98,445.58 1237.00,444.00
             1237.13,445.52 1237.05,447.13 1238.02,448.44
             1239.43,450.34 1242.81,450.77 1245.00,450.91
             1253.00,451.40 1259.89,446.66 1258.77,438.00
             1258.51,435.98 1257.74,433.94 1256.35,432.42
             1254.91,430.83 1253.04,430.03 1251.00,429.53
             1248.35,428.88 1244.76,429.00 1242.00,429.00
             1242.00,429.00 1242.00,420.00 1242.00,420.00
             1242.00,420.00 1259.00,420.00 1259.00,420.00
             1259.00,420.00 1259.00,416.00 1259.00,416.00 Z
           M 1389.00,430.00
           C 1381.14,430.01 1374.67,430.05 1370.44,438.00
             1365.77,446.79 1366.87,464.85 1380.00,464.91
             1392.02,464.97 1394.96,451.31 1388.61,445.65
             1383.95,441.50 1377.19,443.05 1372.00,445.00
             1375.40,435.54 1379.25,433.28 1389.00,435.00
             1389.00,435.00 1389.00,430.00 1389.00,430.00 Z
           M 1376.06,447.57
           C 1379.15,447.01 1382.95,446.51 1385.57,448.74
             1388.85,451.52 1388.97,458.65 1382.96,460.49
             1374.53,463.06 1367.48,451.51 1376.06,447.57 Z
           M 1135.00,474.00
           C 1135.00,474.00 1130.17,475.60 1130.17,475.60
             1130.17,475.60 1116.17,492.00 1116.17,492.00
             1116.17,492.00 1115.00,498.00 1115.00,498.00
             1115.00,498.00 1131.00,498.00 1131.00,498.00
             1131.00,498.00 1131.00,507.00 1131.00,507.00
             1131.00,507.00 1135.00,507.00 1135.00,507.00
             1135.00,507.00 1135.00,498.00 1135.00,498.00
             1135.00,498.00 1140.00,498.00 1140.00,498.00
             1140.00,498.00 1140.00,494.00 1140.00,494.00
             1140.00,494.00 1135.00,494.00 1135.00,494.00
             1135.00,494.00 1135.00,474.00 1135.00,474.00 Z
           M 1130.00,481.00
           C 1130.00,481.00 1131.00,494.00 1131.00,494.00
             1131.00,494.00 1120.00,494.00 1120.00,494.00
             1120.00,494.00 1130.00,481.00 1130.00,481.00 Z
           M 1499.00,514.00
           C 1499.00,514.00 1476.00,514.00 1476.00,514.00
             1476.00,514.00 1476.00,518.00 1476.00,518.00
             1476.00,518.00 1495.00,518.00 1495.00,518.00
             1495.00,518.00 1480.00,547.00 1480.00,547.00
             1485.99,545.97 1486.15,542.97 1488.78,538.00
             1492.79,530.40 1498.51,522.81 1499.00,514.00 Z
           M 1069.00,610.00
           C 1070.42,609.48 1071.34,609.37 1072.57,608.28
             1075.62,605.58 1075.48,600.40 1072.57,597.67
             1069.25,594.51 1058.95,593.78 1055.99,597.67
             1055.03,598.98 1055.12,600.51 1055.00,602.00
             1058.44,600.63 1063.25,598.30 1066.94,599.75
             1071.98,601.73 1071.61,607.89 1062.00,609.00
             1062.00,609.00 1062.00,613.00 1062.00,613.00
             1074.67,613.75 1072.86,622.93 1066.96,625.26
             1062.83,626.89 1057.83,624.52 1054.00,623.00
             1054.12,624.49 1054.03,626.02 1054.99,627.30
             1057.83,631.05 1075.16,632.67 1075.88,620.00
             1076.00,617.87 1075.70,615.96 1074.40,614.21
             1073.04,612.36 1070.90,611.20 1069.00,610.00 Z
           M 1538.00,652.00
           C 1539.85,649.90 1541.93,647.85 1542.53,645.00
             1545.43,631.24 1518.07,632.52 1522.61,646.00
             1523.43,648.41 1525.33,650.18 1527.00,652.00
             1516.98,657.03 1520.79,669.14 1531.00,669.88
             1542.27,670.71 1549.62,657.83 1538.00,652.00 Z
           M 1529.15,640.03
           C 1531.88,639.13 1534.20,638.68 1536.69,640.74
             1540.07,643.54 1538.52,648.25 1534.94,649.30
             1531.33,650.36 1522.44,646.05 1529.15,640.03 Z
           M 1528.23,654.04
           C 1537.65,651.05 1543.31,660.86 1536.77,664.82
             1530.67,668.52 1520.33,661.25 1528.23,654.04 Z
           M 905.00,916.00
           C 905.00,880.73 899.17,851.37 884.86,819.00
             872.60,791.27 856.40,769.36 835.00,748.00
             816.07,729.10 791.64,712.12 767.00,701.58
             741.47,690.66 718.65,684.80 691.00,682.04
             691.00,682.04 681.00,682.04 681.00,682.04
             681.00,682.04 673.00,681.04 673.00,681.04
             673.00,681.04 656.00,682.00 656.00,682.00
             644.84,682.13 625.07,685.87 614.00,688.63
             568.63,699.92 527.15,724.80 496.29,760.00
             475.06,784.20 462.04,806.93 451.05,837.00
             441.98,861.83 438.00,888.67 438.00,915.00
             438.00,915.00 458.00,915.00 458.00,915.00
             461.18,915.01 465.13,914.62 467.40,917.31
             469.38,919.67 468.93,924.00 469.28,927.00
             469.28,927.00 472.40,950.00 472.40,950.00
             480.34,989.78 495.42,1019.48 522.28,1050.00
             528.02,1056.51 542.78,1069.92 550.00,1074.52
             557.59,1079.36 560.32,1073.23 559.34,1070.17
             558.52,1067.59 551.37,1062.41 549.00,1060.41
             543.34,1055.64 534.36,1046.66 529.59,1041.00
             507.00,1014.23 491.67,983.58 485.42,949.00
             483.97,940.98 483.13,933.14 482.99,925.00
             482.94,922.29 482.21,918.63 484.40,916.60
             486.44,914.71 490.38,915.01 493.00,915.00
             493.00,915.00 519.00,915.00 519.00,915.00
             519.00,915.00 517.98,904.60 517.98,904.60
             517.98,904.60 509.00,902.04 509.00,902.04
             509.00,902.04 499.00,902.04 499.00,902.04
             499.00,902.04 484.00,901.00 484.00,901.00
             484.01,883.95 490.74,860.70 497.43,845.00
             497.43,845.00 507.00,825.00 507.00,825.00
             510.64,826.57 521.87,833.07 524.82,832.60
             528.65,831.99 532.00,824.87 529.99,821.52
             528.36,818.79 519.11,813.52 516.00,812.00
             522.93,798.46 542.98,778.83 555.00,769.20
             560.73,764.61 566.92,759.25 574.00,757.00
             575.95,762.11 580.16,771.56 587.00,768.76
             587.82,768.42 589.15,767.64 589.64,767.08
             597.88,760.76 584.39,753.04 589.64,747.65
             591.16,745.78 603.02,741.04 606.00,740.00
             619.14,735.41 632.18,731.48 646.00,729.43
             655.96,727.95 664.91,724.56 665.00,738.00
             665.00,738.00 665.00,758.00 665.00,758.00
             667.60,758.00 675.42,758.50 677.26,757.01
             679.38,755.30 679.00,750.50 679.00,748.00
             679.00,748.00 679.00,728.00 679.00,728.00
             697.49,728.00 717.67,731.89 735.00,738.42
             735.00,738.42 757.00,748.00 757.00,748.00
             755.66,750.85 750.58,760.41 750.99,762.96
             751.61,766.84 758.32,770.46 761.79,768.30
             764.44,766.65 768.74,758.98 770.00,756.00
             783.28,761.08 805.15,782.28 814.83,793.00
             817.20,795.62 826.21,806.06 826.75,808.96
             827.27,811.74 824.94,813.23 822.98,814.65
             817.61,818.56 809.80,821.01 815.15,828.94
             819.55,835.47 825.83,829.83 830.99,827.25
             833.31,826.08 835.48,824.43 837.78,826.48
             839.65,828.14 844.85,839.11 846.22,842.00
             851.05,852.24 856.42,869.81 858.79,881.00
             859.46,884.16 861.48,894.80 861.02,897.53
             860.27,901.95 855.52,901.93 852.00,902.00
             852.00,902.00 824.00,904.00 824.00,904.00
             824.00,904.00 824.00,915.00 824.00,915.00
             824.00,915.00 852.00,915.00 852.00,915.00
             855.06,915.01 859.26,914.63 861.36,917.31
             863.17,919.61 862.15,923.25 862.04,926.00
             861.73,933.49 861.31,938.55 860.08,946.00
             855.03,976.50 842.96,1005.27 824.37,1030.00
             815.98,1041.16 808.17,1049.18 798.04,1058.72
             795.74,1060.88 790.65,1066.46 797.06,1067.63
             801.10,1068.36 806.20,1063.36 809.00,1060.83
             817.44,1053.22 828.71,1040.34 835.28,1031.00
             853.72,1004.77 866.30,975.86 870.87,944.00
             870.87,944.00 872.91,926.00 872.91,926.00
             873.14,922.99 872.72,919.78 875.31,917.60
             877.56,915.71 881.23,916.01 884.00,916.00
             884.00,916.00 905.00,916.00 905.00,916.00 Z
           M 3275.00,905.00
           C 3275.00,907.41 3274.60,913.60 3276.02,915.40
             3277.37,917.10 3280.05,916.96 3282.00,917.00
             3282.00,917.00 3309.00,917.00 3309.00,917.00
             3311.16,917.02 3314.58,916.77 3316.09,918.60
             3317.57,920.38 3317.03,927.49 3317.00,930.00
             3316.57,965.34 3295.99,1011.27 3273.56,1038.00
             3264.04,1049.35 3258.90,1054.08 3248.00,1063.83
             3245.55,1066.03 3237.50,1071.61 3236.85,1074.18
             3236.28,1075.33 3236.38,1076.65 3236.85,1077.69
             3239.54,1081.62 3244.49,1077.94 3247.00,1076.10
             3255.71,1069.73 3266.49,1058.98 3273.91,1051.00
             3297.81,1025.30 3315.58,986.57 3321.25,952.00
             3321.25,952.00 3323.99,929.00 3323.99,929.00
             3324.06,926.01 3323.52,920.86 3325.74,918.60
             3327.64,916.66 3331.47,917.01 3334.00,917.00
             3334.00,917.00 3349.00,917.00 3349.00,917.00
             3350.95,916.96 3353.63,917.10 3354.98,915.40
             3356.27,913.76 3356.04,909.10 3355.99,907.00
             3355.99,907.00 3355.09,898.00 3355.09,898.00
             3353.48,874.54 3348.61,851.86 3339.80,830.00
             3327.09,798.48 3307.93,769.32 3283.00,746.09
             3211.13,679.13 3104.70,663.90 3017.00,707.75
             2994.49,719.01 2974.98,732.23 2957.00,750.00
             2938.33,768.46 2918.93,795.84 2908.42,820.00
             2895.09,850.66 2888.00,883.57 2888.00,917.00
             2888.00,917.00 2910.00,917.00 2910.00,917.00
             2913.18,917.01 2917.13,916.62 2919.40,919.31
             2921.47,921.77 2920.91,925.96 2921.04,929.00
             2921.04,929.00 2923.27,949.00 2923.27,949.00
             2928.32,983.24 2944.09,1018.32 2966.08,1045.00
             2971.57,1051.66 2984.44,1065.24 2991.00,1070.37
             2993.01,1071.94 2997.68,1075.46 3000.15,1072.40
             3000.69,1071.42 3000.68,1070.11 3000.15,1069.00
             2999.42,1065.94 2993.49,1061.41 2991.00,1058.99
             2983.75,1051.92 2976.53,1044.82 2970.08,1037.00
             2948.84,1011.24 2935.74,981.71 2929.61,949.00
             2928.10,940.94 2926.85,932.19 2927.00,924.00
             2927.04,921.86 2926.97,919.23 2928.60,917.60
             2930.52,915.68 2934.46,916.01 2937.00,916.00
             2937.00,916.00 2969.00,916.00 2969.00,916.00
             2969.00,916.00 2969.00,905.00 2969.00,905.00
             2969.00,905.00 2940.00,903.00 2940.00,903.00
             2940.00,903.00 2936.00,903.00 2936.00,903.00
             2933.81,902.96 2931.13,903.00 2929.60,901.40
             2926.21,898.44 2929.03,887.03 2929.60,883.00
             2932.82,867.38 2936.87,854.62 2943.15,840.00
             2944.49,836.88 2948.98,826.41 2951.10,824.50
             2953.59,822.26 2956.69,824.84 2959.00,826.20
             2962.13,828.05 2971.45,834.21 2974.82,833.27
             2976.47,832.81 2977.64,831.32 2978.52,829.94
             2983.59,822.04 2976.89,820.67 2967.01,813.65
             2965.09,812.29 2962.40,810.63 2962.44,807.96
             2962.48,804.56 2971.15,794.90 2973.59,792.00
             2984.18,779.45 3006.25,759.19 3021.00,752.00
             3023.28,757.10 3025.98,761.30 3028.95,766.00
             3029.99,767.65 3031.86,771.03 3033.53,771.95
             3036.88,773.80 3043.55,769.63 3043.76,765.90
             3044.02,761.35 3036.21,749.11 3034.00,744.00
             3054.79,735.04 3067.27,729.68 3090.00,725.92
             3095.24,725.05 3100.69,724.09 3106.00,723.99
             3108.39,723.95 3111.59,723.61 3113.40,725.48
             3115.33,727.48 3114.91,731.38 3115.17,734.00
             3115.17,734.00 3116.00,757.00 3116.00,757.00
             3116.01,758.78 3115.83,761.82 3116.99,763.26
             3118.92,765.64 3125.14,765.38 3127.18,763.26
             3129.02,761.34 3128.97,757.50 3129.00,755.00
             3129.00,755.00 3129.00,741.00 3129.00,741.00
             3129.05,737.33 3130.15,726.48 3131.00,723.00
             3131.00,723.00 3157.00,726.27 3157.00,726.27
             3165.95,727.66 3181.44,732.19 3190.00,735.42
             3193.31,736.67 3205.65,741.53 3207.58,743.64
             3210.07,746.35 3208.04,749.34 3206.57,752.00
             3203.03,758.42 3195.77,766.85 3205.02,771.31
             3212.91,775.12 3216.33,764.60 3219.81,759.00
             3220.95,757.16 3222.78,753.49 3225.32,753.66
             3227.98,753.83 3240.31,763.46 3243.00,765.60
             3258.84,778.21 3272.77,793.16 3284.00,810.00
             3280.12,811.73 3266.96,819.39 3264.83,822.52
             3261.94,826.76 3266.83,834.43 3272.01,833.30
             3272.01,833.30 3293.00,823.00 3293.00,823.00
             3293.00,823.00 3302.58,844.00 3302.58,844.00
             3306.74,853.92 3311.84,870.45 3314.00,881.00
             3314.87,885.27 3318.03,898.38 3314.65,901.40
             3312.16,903.63 3306.27,902.90 3303.00,903.04
             3303.00,903.04 3275.00,905.00 3275.00,905.00 Z
           M 1073.00,755.00
           C 1080.35,751.05 1095.33,737.08 1085.61,728.63
             1081.77,725.19 1072.48,725.41 1069.99,728.63
             1069.03,729.98 1069.12,731.51 1069.00,733.00
             1069.00,733.00 1075.00,730.94 1075.00,730.94
             1079.46,729.89 1085.69,730.98 1084.29,737.00
             1081.88,747.44 1068.88,747.78 1068.00,760.00
             1068.00,760.00 1090.00,760.00 1090.00,760.00
             1090.00,760.00 1090.00,756.00 1090.00,756.00
             1090.00,756.00 1073.00,755.00 1073.00,755.00 Z
           M 2119.00,726.00
           C 2117.90,731.35 2126.91,744.15 2129.95,749.00
             2129.95,749.00 2145.45,775.00 2145.45,775.00
             2145.45,775.00 2164.95,806.00 2164.95,806.00
             2164.95,806.00 2286.33,996.00 2286.33,996.00
             2286.33,996.00 2318.67,1045.00 2318.67,1045.00
             2323.06,1051.57 2328.95,1062.50 2336.00,1066.00
             2328.29,1048.71 2300.67,1005.97 2289.42,988.00
             2289.42,988.00 2205.34,855.00 2205.34,855.00
             2205.34,855.00 2183.66,821.00 2183.66,821.00
             2183.66,821.00 2170.69,802.00 2170.69,802.00
             2170.69,802.00 2142.42,759.00 2142.42,759.00
             2135.63,749.39 2126.51,733.97 2119.00,726.00 Z
           M 1678.00,727.00
           C 1678.00,727.00 1676.00,727.00 1676.00,727.00
             1676.00,727.00 1662.02,747.00 1662.02,747.00
             1662.02,747.00 1637.69,784.00 1637.69,784.00
             1637.69,784.00 1526.58,958.00 1526.58,958.00
             1526.58,958.00 1487.32,1021.00 1487.32,1021.00
             1481.85,1029.68 1466.70,1053.44 1464.00,1062.00
             1471.19,1056.00 1486.73,1031.10 1492.42,1022.00
             1492.42,1022.00 1534.69,957.00 1534.69,957.00
             1534.69,957.00 1621.68,820.00 1621.68,820.00
             1634.83,799.19 1668.71,746.30 1678.00,727.00 Z
           M 1693.00,737.00
           C 1686.77,741.56 1679.89,753.18 1675.33,760.00
             1675.33,760.00 1644.66,807.00 1644.66,807.00
             1644.66,807.00 1622.08,841.00 1622.08,841.00
             1622.08,841.00 1539.68,971.00 1539.68,971.00
             1539.68,971.00 1522.58,999.00 1522.58,999.00
             1522.58,999.00 1502.85,1031.00 1502.85,1031.00
             1498.92,1037.84 1490.33,1049.99 1489.00,1057.00
             1495.03,1053.87 1500.73,1042.80 1504.86,1037.00
             1504.86,1037.00 1527.69,1002.00 1527.69,1002.00
             1527.69,1002.00 1542.00,981.00 1542.00,981.00
             1542.00,981.00 1586.05,912.00 1586.05,912.00
             1586.05,912.00 1648.42,813.00 1648.42,813.00
             1648.42,813.00 1680.42,761.00 1680.42,761.00
             1684.40,754.14 1691.58,744.49 1693.00,737.00 Z
           M 2106.00,741.00
           C 2105.37,745.77 2113.48,757.33 2116.15,762.00
             2116.15,762.00 2149.58,816.00 2149.58,816.00
             2149.58,816.00 2250.49,974.00 2250.49,974.00
             2250.49,974.00 2277.19,1015.00 2277.19,1015.00
             2281.40,1021.78 2292.31,1038.52 2298.00,1043.00
             2295.88,1035.72 2281.78,1013.55 2277.05,1006.00
             2277.05,1006.00 2237.05,942.00 2237.05,942.00
             2237.05,942.00 2150.34,807.00 2150.34,807.00
             2140.27,791.57 2116.26,753.13 2106.00,741.00 Z
           M 1161.00,830.00
           C 1161.00,830.00 1151.00,836.00 1151.00,836.00
             1151.00,836.00 1151.00,838.00 1151.00,838.00
             1151.00,838.00 1158.00,839.00 1158.00,839.00
             1158.00,839.00 1158.00,859.00 1158.00,859.00
             1158.00,859.00 1151.00,860.00 1151.00,860.00
             1151.00,860.00 1151.00,862.00 1151.00,862.00
             1156.29,863.50 1163.71,863.50 1169.00,862.00
             1169.00,862.00 1169.00,860.00 1169.00,860.00
             1169.00,860.00 1162.00,859.00 1162.00,859.00
             1162.00,859.00 1161.00,830.00 1161.00,830.00 Z
           M 1285.09,873.43
           C 1277.84,876.72 1278.99,884.24 1279.00,891.00
             1279.01,898.19 1278.90,905.45 1288.00,905.96
             1289.67,906.05 1292.41,906.01 1293.96,905.40
             1300.25,902.93 1300.06,893.60 1300.00,888.00
             1299.87,876.74 1297.19,871.52 1285.09,873.43 Z
           M 1286.13,877.03
           C 1298.24,873.07 1298.26,890.69 1295.66,897.98
             1294.41,901.48 1291.87,903.50 1288.02,902.67
             1280.63,901.07 1280.92,885.97 1282.89,881.02
             1283.84,878.63 1284.32,878.54 1286.13,877.03 Z
           M 2257.00,1076.96
           C 2257.00,1076.96 2245.00,1076.96 2245.00,1076.96
             2245.00,1076.96 2233.00,1076.00 2233.00,1076.00
             2233.00,1076.00 2152.00,1076.00 2152.00,1076.00
             2152.00,1076.00 2135.00,1075.00 2135.00,1075.00
             2135.00,1075.00 1754.00,1075.00 1754.00,1075.00
             1754.00,1075.00 1638.00,1075.00 1638.00,1075.00
             1638.00,1075.00 1623.00,1076.00 1623.00,1076.00
             1623.00,1076.00 1569.00,1076.00 1569.00,1076.00
             1569.00,1076.00 1544.00,1077.04 1544.00,1077.04
             1544.00,1077.04 1557.00,1077.04 1557.00,1077.04
             1557.00,1077.04 1569.00,1078.00 1569.00,1078.00
             1569.00,1078.00 1636.00,1078.00 1636.00,1078.00
             1636.00,1078.00 1653.00,1079.00 1653.00,1079.00
             1653.00,1079.00 2048.00,1079.00 2048.00,1079.00
             2048.00,1079.00 2146.00,1079.00 2146.00,1079.00
             2146.00,1079.00 2161.00,1078.00 2161.00,1078.00
             2161.00,1078.00 2193.00,1078.00 2193.00,1078.00
             2193.00,1078.00 2236.00,1078.00 2236.00,1078.00
             2236.00,1078.00 2257.00,1076.96 2257.00,1076.96 Z
           M 2262.00,1077.00
           C 2262.00,1077.00 2261.00,1077.00 2261.00,1077.00
             2261.00,1077.00 2262.00,1078.00 2262.00,1078.00
             2262.00,1078.00 2262.00,1077.00 2262.00,1077.00 Z" />
</svg>
