<?xml version="1.0" encoding="UTF-8" standalone="no"?>
<!DOCTYPE svg PUBLIC "-//W3C//DTD SVG 20010904//EN"
              "http://www.w3.org/TR/2001/REC-SVG-20010904/DTD/svg10.dtd">

<svg xmlns="http://www.w3.org/2000/svg"
     width="7.11111in" height="7.11111in"
     viewBox="0 0 512 512">
  <path id="Selection"
        fill="none" stroke="black" stroke-width="1"
        d="M 147.00,330.00
           C 147.00,330.00 147.00,372.00 147.00,372.00
             146.99,375.47 147.19,378.79 145.55,381.99
             140.90,391.03 130.36,391.89 123.00,385.78
             123.00,385.78 97.00,360.00 97.00,360.00
             97.00,360.00 46.00,309.00 46.00,309.00
             46.00,309.00 12.00,275.00 12.00,275.00
             5.44,268.44 -0.52,265.00 0.04,255.00
             0.47,247.44 7.97,242.03 13.00,237.00
             13.00,237.00 51.00,199.00 51.00,199.00
             51.00,199.00 98.00,152.00 98.00,152.00
             98.00,152.00 123.00,127.22 123.00,127.22
             130.63,120.89 142.05,122.39 145.99,132.00
             147.07,134.62 146.99,137.24 147.00,140.00
             147.00,140.00 147.00,183.00 147.00,183.00
             147.00,183.00 226.00,183.00 226.00,183.00
             239.32,183.16 245.98,186.96 246.00,201.00
             246.00,201.00 246.00,312.00 246.00,312.00
             245.97,327.51 237.83,329.98 224.00,330.00
             224.00,330.00 147.00,330.00 147.00,330.00 Z" />
</svg>
