<?xml version="1.0" encoding="UTF-8" standalone="no"?>
<!DOCTYPE svg PUBLIC "-//W3C//DTD SVG 20010904//EN"
              "http://www.w3.org/TR/2001/REC-SVG-20010904/DTD/svg10.dtd">

<svg xmlns="http://www.w3.org/2000/svg"
     width="52.9101mm" height="52.9101mm"
     viewBox="0 0 150 150">
  <path id="Selection"
        fill="none" stroke="black" stroke-width="1"
        d="M 53.00,84.00
           C 51.13,77.34 53.38,63.53 58.39,58.52
             62.46,54.44 68.59,53.41 69.68,49.89
             70.80,46.26 66.01,43.93 66.16,38.00
             66.48,25.11 85.36,24.85 85.85,38.00
             85.95,40.47 85.43,41.85 84.32,44.00
             83.48,45.65 80.52,49.47 83.37,50.89
             88.19,53.30 95.77,38.64 100.63,41.17
             102.72,42.26 101.58,44.60 100.63,46.00
             98.73,48.81 93.28,52.61 93.18,56.00
             93.10,58.68 96.10,60.84 97.78,66.00
             99.41,71.03 100.22,84.87 99.00,90.00
             99.00,90.00 77.00,85.04 77.00,85.04
             77.00,85.04 62.00,86.00 62.00,86.00
             65.07,79.52 75.59,70.44 81.00,65.00
             82.52,63.48 87.86,58.85 86.80,56.46
             85.29,53.05 79.06,59.95 78.00,61.00
             72.06,66.89 59.72,80.82 53.00,84.00 Z
           M 51.00,87.00
           C 51.00,87.00 54.00,96.00 54.00,96.00
             62.73,91.17 74.16,89.69 84.00,91.46
             93.30,93.14 95.56,97.70 99.00,92.00
             102.45,92.72 113.29,97.78 110.83,102.64
             108.84,106.58 103.19,100.75 98.00,99.00
             97.13,104.62 92.97,118.02 87.90,120.83
             85.75,122.02 83.37,121.94 81.00,122.00
             81.79,113.32 87.04,106.71 85.65,103.23
             83.86,98.72 67.95,98.87 66.20,102.31
             64.59,105.52 70.51,117.50 72.00,121.20
             69.69,121.65 67.49,122.33 65.10,121.20
             59.09,119.05 54.54,104.04 54.00,98.00
             46.57,99.57 44.89,103.95 41.11,104.06
             38.14,104.15 37.03,101.42 39.18,98.51
             39.18,98.51 51.00,87.00 51.00,87.00 Z" />
</svg>
