<?xml version="1.0" encoding="UTF-8" standalone="no"?>
<!DOCTYPE svg PUBLIC "-//W3C//DTD SVG 20010904//EN"
              "http://www.w3.org/TR/2001/REC-SVG-20010904/DTD/svg10.dtd">

<svg xmlns="http://www.w3.org/2000/svg"
     width="9.72222in" height="10.9444in"
     viewBox="0 0 700 788">
  <path id="Selection"
        fill="none" stroke="black" stroke-width="1"
        d="M 131.00,460.00
           C 131.00,460.00 133.00,460.00 133.00,460.00
             133.00,460.00 133.00,468.00 133.00,468.00
             133.00,468.00 131.00,468.00 131.00,468.00
             131.00,468.00 131.00,460.00 131.00,460.00 Z
           M 117.00,466.00
           C 121.18,467.27 121.73,467.82 123.00,472.00
             118.69,471.28 117.72,470.31 117.00,466.00 Z
           M 141.00,471.00
           C 142.98,467.16 143.64,466.46 148.00,467.00
             146.02,470.84 145.36,471.54 141.00,471.00 Z
           M 128.02,471.74
           C 132.05,470.77 135.46,470.62 138.89,473.43
             145.31,478.68 143.45,488.11 136.91,490.99
             124.57,496.43 113.82,479.55 128.02,471.74 Z
           M 131.01,475.54
           C 121.16,479.19 126.97,488.65 132.99,487.63
             139.84,486.46 141.06,475.81 131.01,475.54 Z
           M 111.00,480.00
           C 111.00,480.00 118.00,480.00 118.00,480.00
             116.27,484.95 112.73,484.95 111.00,480.00 Z
           M 146.00,480.00
           C 146.00,480.00 153.00,480.00 153.00,480.00
             151.27,484.95 147.73,484.95 146.00,480.00 Z
           M 116.00,496.00
           C 118.01,492.08 118.68,491.71 123.00,491.00
             121.65,495.42 120.73,496.59 116.00,496.00 Z
           M 141.00,492.00
           C 145.36,491.46 146.02,492.16 148.00,496.00
             143.64,496.54 142.98,495.84 141.00,492.00 Z
           M 131.00,495.00
           C 131.00,495.00 133.00,495.00 133.00,495.00
             133.00,495.00 133.00,503.00 133.00,503.00
             133.00,503.00 131.00,503.00 131.00,503.00
             131.00,503.00 131.00,495.00 131.00,495.00 Z" />
</svg>
