<?xml version="1.0" encoding="UTF-8" standalone="no"?>
<!DOCTYPE svg PUBLIC "-//W3C//DTD SVG 20010904//EN"
              "http://www.w3.org/TR/2001/REC-SVG-20010904/DTD/svg10.dtd">

<svg xmlns="http://www.w3.org/2000/svg"
     width="52.9101mm" height="52.9101mm"
     viewBox="0 0 150 150">
  <path id="Selection"
        fill="none" stroke="black" stroke-width="1"
        d="M 52.00,32.00
           C 52.49,30.79 52.54,29.89 53.72,28.99
             59.11,24.87 65.97,33.48 56.00,32.87
             54.39,32.77 53.49,32.42 52.00,32.00 Z
           M 98.00,32.00
           C 96.51,32.42 95.61,32.77 94.00,32.87
             84.03,33.48 90.89,24.87 96.28,28.99
             97.46,29.89 97.51,30.79 98.00,32.00 Z
           M 44.96,32.17
           C 50.62,31.59 47.73,36.63 44.96,38.12
             42.47,39.46 40.68,38.14 41.34,35.95
             41.95,33.89 43.40,33.24 44.96,32.17 Z
           M 67.00,31.00
           C 71.92,32.76 73.78,34.63 73.00,40.00
             68.06,38.22 65.78,36.45 67.00,31.00 Z
           M 77.00,40.00
           C 76.07,34.49 77.95,32.77 83.00,31.00
             83.69,36.22 81.76,38.23 77.00,40.00 Z
           M 102.65,32.15
           C 107.72,31.28 110.09,36.58 108.27,38.18
             106.43,39.80 100.31,36.51 102.65,32.15 Z
           M 39.16,44.17
           C 43.27,45.14 41.42,48.95 39.82,49.55
             37.81,50.30 35.44,46.58 39.16,44.17 Z
           M 109.55,44.17
           C 113.99,43.57 113.00,48.82 111.48,49.51
             109.84,50.27 106.96,47.89 109.55,44.17 Z
           M 73.00,44.00
           C 78.70,44.99 77.18,47.93 77.00,53.00
             77.00,53.00 73.00,53.00 73.00,53.00
             73.00,53.00 73.00,44.00 73.00,44.00 Z
           M 66.00,56.42
           C 79.44,54.78 93.21,57.09 106.00,61.19
             109.46,62.30 118.31,65.60 120.36,68.39
             122.59,71.42 120.03,75.93 118.80,79.00
             118.80,79.00 108.40,104.00 108.40,104.00
             107.16,107.02 105.63,111.97 101.90,112.50
             99.89,112.79 90.89,110.00 88.00,109.41
             78.70,107.71 78.97,109.49 75.00,109.41
             71.05,109.49 72.23,107.86 63.00,109.41
             59.16,109.86 49.05,113.49 46.39,111.94
             44.11,110.61 42.34,105.46 41.28,103.00
             41.28,103.00 31.20,79.00 31.20,79.00
             29.97,75.93 27.41,71.42 29.64,68.39
             31.22,66.24 36.48,64.06 39.00,63.01
             48.54,59.06 55.97,57.94 66.00,56.42 Z
           M 74.00,68.00
           C 73.50,66.21 72.95,63.16 71.42,61.87
             69.50,60.60 66.19,61.44 64.00,61.87
             56.79,62.64 52.98,63.37 46.00,65.67
             43.14,66.61 36.53,68.65 35.13,71.39
             33.81,73.94 36.38,78.51 37.40,81.00
             37.40,81.00 48.00,107.00 48.00,107.00
             48.00,107.00 62.00,104.44 62.00,104.44
             67.51,103.57 70.47,105.01 74.00,100.00
             74.00,100.00 76.00,100.00 76.00,100.00
             79.61,105.12 88.05,104.32 94.00,105.53
             96.49,106.20 99.85,107.53 101.93,105.53
             103.66,103.64 109.03,89.33 110.42,86.00
             111.60,83.20 115.86,74.82 115.19,72.21
             114.35,68.92 107.90,66.99 105.00,66.00
             97.93,63.61 93.34,62.62 86.00,61.80
             83.82,61.27 80.49,60.58 78.58,61.80
             77.04,63.18 76.51,66.20 76.00,68.00
             76.00,68.00 74.00,68.00 74.00,68.00 Z
           M 73.00,72.00
           C 73.00,72.00 77.00,72.00 77.00,72.00
             77.00,72.00 76.00,82.00 76.00,82.00
             76.00,82.00 74.00,82.00 74.00,82.00
             74.00,82.00 73.00,72.00 73.00,72.00 Z
           M 46.00,82.00
           C 47.30,82.22 48.13,82.12 49.31,82.99
             49.67,83.26 57.06,96.14 62.70,85.94
             63.41,84.66 63.64,83.38 64.00,82.00
             64.00,82.00 68.00,82.00 68.00,82.00
             67.97,85.14 68.15,88.17 66.26,90.89
             62.57,96.21 52.88,96.36 48.65,91.61
             46.13,88.78 46.09,85.54 46.00,82.00 Z
           M 82.00,82.00
           C 82.00,82.00 86.00,82.00 86.00,82.00
             86.36,83.38 86.59,84.66 87.30,85.94
             92.67,95.65 99.69,83.62 100.54,83.02
             101.78,82.15 102.65,82.24 104.00,82.00
             103.91,85.54 103.87,88.78 101.35,91.69
             97.48,95.95 88.36,96.28 84.51,91.69
             82.07,88.93 82.08,85.51 82.00,82.00 Z
           M 74.00,86.00
           C 74.00,86.00 76.00,86.00 76.00,86.00
             76.00,86.00 77.00,96.00 77.00,96.00
             77.00,96.00 73.00,96.00 73.00,96.00
             73.00,96.00 74.00,86.00 74.00,86.00 Z
           M 73.00,115.00
           C 73.00,115.00 77.00,115.00 77.00,115.00
             76.85,119.17 77.21,120.52 73.00,122.00
             73.00,122.00 73.00,115.00 73.00,115.00 Z" />
</svg>
